ply
format ascii 1.0
comment Created by Blender 2.79 (sub 0) - www.blender.org, source file: ''
element vertex 600
property float x
property float y
property float z
property float nx
property float ny
property float nz
element face 200
property list uchar uint vertex_indices
end_header
0.016735 0.090129 0.064432 0.969340 0.001038 0.245721
0.017134 -0.089271 0.063614 0.969340 0.001038 0.245721
0.031590 -0.000559 0.006214 0.969340 0.001038 0.245721
-0.017054 -0.095525 0.022121 -0.986759 -0.159734 -0.028136
-0.017510 -0.097908 0.051666 -0.986759 -0.159734 -0.028136
-0.031598 -0.001987 0.001153 -0.986759 -0.159734 -0.028136
-0.025981 0.075770 -0.005082 -0.997162 0.069756 -0.028320
-0.031598 -0.001987 0.001153 -0.997162 0.069756 -0.028320
-0.031636 -0.000579 0.005973 -0.997162 0.069756 -0.028320
0.017033 -0.096802 0.030322 0.986571 -0.160626 -0.029621
0.031616 -0.001861 0.001180 0.986571 -0.160626 -0.029621
0.017585 -0.097407 0.051985 0.986571 -0.160626 -0.029621
0.031616 -0.001861 0.001180 0.991370 -0.125584 0.037604
0.031590 -0.000559 0.006214 0.991370 -0.125584 0.037604
0.017585 -0.097407 0.051985 0.991370 -0.125584 0.037604
0.018556 0.094602 0.056617 0.972565 0.010109 0.232413
0.016735 0.090129 0.064432 0.972565 0.010109 0.232413
0.031590 -0.000559 0.006214 0.972565 0.010109 0.232413
-0.016804 -0.091906 0.006295 -0.981257 -0.166939 -0.096261
-0.031598 -0.001987 0.001153 -0.981257 -0.166939 -0.096261
-0.016812 -0.087533 -0.001206 -0.981257 -0.166939 -0.096261
-0.031636 -0.000579 0.005973 -0.991092 -0.129756 0.029998
-0.031598 -0.001987 0.001153 -0.991092 -0.129756 0.029998
-0.017510 -0.097908 0.051666 -0.991092 -0.129756 0.029998
-0.017054 -0.095525 0.022121 -0.984842 -0.165070 -0.053271
-0.031598 -0.001987 0.001153 -0.984842 -0.165070 -0.053271
-0.016804 -0.091906 0.006295 -0.984842 -0.165070 -0.053271
0.016230 -0.099538 0.051584 0.303856 -0.952595 -0.015317
-0.000041 -0.103990 0.005691 0.303856 -0.952595 -0.015317
-0.000017 -0.103743 -0.009199 0.303856 -0.952595 -0.015317
-0.003617 -0.101158 -0.012610 -0.745915 -0.631674 -0.211185
-0.003430 -0.102598 -0.008964 -0.745915 -0.631674 -0.211185
-0.016804 -0.091906 0.006295 -0.745915 -0.631674 -0.211185
-0.025270 0.082065 0.005197 -0.996795 0.076981 0.021764
-0.025981 0.075770 -0.005082 -0.996795 0.076981 0.021764
-0.031636 -0.000579 0.005973 -0.996795 0.076981 0.021764
-0.028011 0.041784 -0.006396 -0.992516 0.063319 -0.104418
-0.031598 -0.001987 0.001153 -0.992516 0.063319 -0.104418
-0.025981 0.075770 -0.005082 -0.992516 0.063319 -0.104418
-0.000113 0.092808 0.065962 -0.044277 0.241169 0.969472
-0.012567 0.093712 0.065168 -0.044277 0.241169 0.969472
-0.014422 0.091276 0.065690 -0.044277 0.241169 0.969472
-0.017255 -0.090700 0.063082 -0.763533 -0.002405 0.645764
-0.015472 -0.090706 0.065190 -0.763533 -0.002405 0.645764
-0.016767 0.090252 0.064332 -0.763533 -0.002405 0.645764
0.016956 -0.091603 0.005563 0.985940 -0.162885 -0.037297
0.031616 -0.001861 0.001180 0.985940 -0.162885 -0.037297
0.017033 -0.096802 0.030322 0.985940 -0.162885 -0.037297
0.017134 -0.089271 0.063614 0.986849 -0.065060 0.147976
0.017607 -0.093848 0.058448 0.986849 -0.065060 0.147976
0.031590 -0.000559 0.006214 0.986849 -0.065060 0.147976
0.017607 -0.093848 0.058448 0.991549 -0.115042 0.059967
0.017585 -0.097407 0.051985 0.991549 -0.115042 0.059967
0.031590 -0.000559 0.006214 0.991549 -0.115042 0.059967
0.012506 -0.100188 0.056894 0.203398 -0.978830 0.022845
-0.000041 -0.103990 0.005691 0.203398 -0.978830 0.022845
0.016230 -0.099538 0.051584 0.203398 -0.978830 0.022845
0.015551 0.100200 0.054673 0.516573 0.854926 0.047465
0.019269 0.098494 0.044942 0.516573 0.854926 0.047465
0.016218 0.100285 0.045870 0.516573 0.854926 0.047465
0.001917 -0.045520 -0.025659 0.587131 0.003520 -0.809484
0.028015 0.042042 -0.006350 0.587131 0.003520 -0.809484
0.003810 -0.082966 -0.024449 0.587131 0.003520 -0.809484
0.020671 0.093692 0.043308 0.992470 0.077717 0.094674
0.031590 -0.000559 0.006214 0.992470 0.077717 0.094674
0.025448 0.081181 0.003501 0.992470 0.077717 0.094674
-0.031598 -0.001987 0.001153 -0.832137 -0.113798 -0.542769
-0.003637 -0.083586 -0.024606 -0.832137 -0.113798 -0.542769
-0.016533 -0.082236 -0.005118 -0.832137 -0.113798 -0.542769
-0.017255 -0.090700 0.063082 -0.990867 -0.102890 0.087154
-0.031636 -0.000579 0.005973 -0.990867 -0.102890 0.087154
-0.017510 -0.097908 0.051666 -0.990867 -0.102890 0.087154
-0.014017 -0.100091 0.056027 -0.246670 -0.969077 0.006568
-0.016013 -0.099629 0.049301 -0.246670 -0.969077 0.006568
-0.000041 -0.103990 0.005691 -0.246670 -0.969077 0.006568
-0.003617 -0.101158 -0.012610 -0.796752 -0.375026 -0.473859
-0.016812 -0.087533 -0.001206 -0.796752 -0.375026 -0.473859
-0.003215 -0.087766 -0.023884 -0.796752 -0.375026 -0.473859
-0.000113 0.092808 0.065962 -0.019031 -0.000028 0.999819
-0.014422 0.091276 0.065690 -0.019031 -0.000028 0.999819
-0.012988 -0.092496 0.065712 -0.019031 -0.000028 0.999819
-0.012988 -0.092496 0.065712 -0.019317 -0.000008 0.999813
-0.000506 -0.092945 0.065953 -0.019317 -0.000008 0.999813
-0.000113 0.092808 0.065962 -0.019317 -0.000008 0.999813
0.013540 0.092672 0.065688 0.020085 -0.000091 0.999798
-0.000113 0.092808 0.065962 0.020085 -0.000091 0.999798
-0.000506 -0.092945 0.065953 0.020085 -0.000091 0.999798
-0.000506 -0.092945 0.065953 0.015903 0.000225 0.999874
0.013425 -0.091927 0.065731 0.015903 0.000225 0.999874
0.013540 0.092672 0.065688 0.015903 0.000225 0.999874
-0.025270 0.082065 0.005197 -0.991348 0.077353 0.106043
-0.031636 -0.000579 0.005973 -0.991348 0.077353 0.106043
-0.019229 0.097261 0.050588 -0.991348 0.077353 0.106043
0.017033 -0.096802 0.030322 0.846324 -0.531424 -0.036400
0.017585 -0.097407 0.051985 0.846324 -0.531424 -0.036400
0.016230 -0.099538 0.051584 0.846324 -0.531424 -0.036400
0.003810 -0.082966 -0.024449 0.838336 -0.119317 -0.531936
0.031616 -0.001861 0.001180 0.838336 -0.119317 -0.531936
0.016558 -0.085132 -0.003873 0.838336 -0.119317 -0.531936
0.003495 -0.102716 -0.008029 0.713391 -0.685355 -0.146159
0.016956 -0.091603 0.005563 0.713391 -0.685355 -0.146159
0.017033 -0.096802 0.030322 0.713391 -0.685355 -0.146159
0.031616 -0.001861 0.001180 0.752915 -0.050779 -0.656156
0.003810 -0.082966 -0.024449 0.752915 -0.050779 -0.656156
0.028015 0.042042 -0.006350 0.752915 -0.050779 -0.656156
0.018556 0.094602 0.056617 0.962439 0.234446 0.136915
0.020671 0.093692 0.043308 0.962439 0.234446 0.136915
0.019269 0.098494 0.044942 0.962439 0.234446 0.136915
0.020671 0.093692 0.043308 0.986730 0.054053 0.153111
0.018556 0.094602 0.056617 0.986730 0.054053 0.153111
0.031590 -0.000559 0.006214 0.986730 0.054053 0.153111
0.020671 0.093692 0.043308 0.984464 0.162240 0.067148
0.025448 0.081181 0.003501 0.984464 0.162240 0.067148
0.023869 0.090401 0.004368 0.984464 0.162240 0.067148
0.020671 0.093692 0.043308 0.963684 0.258201 0.068152
0.022708 0.093736 0.014340 0.963684 0.258201 0.068152
0.019269 0.098494 0.044942 0.963684 0.258201 0.068152
0.022708 0.093736 0.014340 0.988283 0.135791 0.069697
0.020671 0.093692 0.043308 0.988283 0.135791 0.069697
0.023869 0.090401 0.004368 0.988283 0.135791 0.069697
0.031616 -0.001861 0.001180 0.992401 0.063295 -0.105521
0.028015 0.042042 -0.006350 0.992401 0.063295 -0.105521
0.026034 0.075298 -0.005031 0.992401 0.063295 -0.105521
0.031616 -0.001861 0.001180 0.997131 0.073564 0.017806
0.026034 0.075298 -0.005031 0.997131 0.073564 0.017806
0.025448 0.081181 0.003501 0.997131 0.073564 0.017806
0.031616 -0.001861 0.001180 0.997124 0.074455 -0.014112
0.025448 0.081181 0.003501 0.997124 0.074455 -0.014112
0.031590 -0.000559 0.006214 0.997124 0.074455 -0.014112
0.024817 0.074378 -0.007156 0.525671 0.030802 -0.850130
0.028015 0.042042 -0.006350 0.525671 0.030802 -0.850130
0.001917 -0.045520 -0.025659 0.525671 0.030802 -0.850130
-0.001500 -0.045870 -0.025925 0.011243 0.145846 -0.989243
-0.000834 0.080260 -0.007322 0.011243 0.145846 -0.989243
0.022959 0.077901 -0.007399 0.011243 0.145846 -0.989243
-0.000834 0.080260 -0.007322 -0.019162 0.145985 -0.989101
-0.001500 -0.045870 -0.025925 -0.019162 0.145985 -0.989101
-0.022761 0.080174 -0.006910 -0.019162 0.145985 -0.989101
0.022959 0.077901 -0.007399 0.295803 0.090268 -0.950975
0.024817 0.074378 -0.007156 0.295803 0.090268 -0.950975
0.001917 -0.045520 -0.025659 0.295803 0.090268 -0.950975
-0.003637 -0.083586 -0.024606 -0.753521 -0.051298 -0.655419
-0.031598 -0.001987 0.001153 -0.753521 -0.051298 -0.655419
-0.028011 0.041784 -0.006396 -0.753521 -0.051298 -0.655419
0.000032 -0.099451 -0.017161 -0.557064 -0.525003 -0.643469
-0.003617 -0.101158 -0.012610 -0.557064 -0.525003 -0.643469
-0.003215 -0.087766 -0.023884 -0.557064 -0.525003 -0.643469
-0.016533 -0.082236 -0.005118 -0.826525 -0.175737 -0.534765
-0.003637 -0.083586 -0.024606 -0.826525 -0.175737 -0.534765
-0.003215 -0.087766 -0.023884 -0.826525 -0.175737 -0.534765
-0.016812 -0.087533 -0.001206 -0.815256 -0.315571 -0.485564
-0.016533 -0.082236 -0.005118 -0.815256 -0.315571 -0.485564
-0.003215 -0.087766 -0.023884 -0.815256 -0.315571 -0.485564
-0.016812 -0.087533 -0.001206 -0.947514 -0.156066 -0.279037
-0.031598 -0.001987 0.001153 -0.947514 -0.156066 -0.279037
-0.016533 -0.082236 -0.005118 -0.947514 -0.156066 -0.279037
-0.016632 -0.098554 0.054734 -0.933840 -0.292645 0.205677
-0.017255 -0.090700 0.063082 -0.933840 -0.292645 0.205677
-0.017510 -0.097908 0.051666 -0.933840 -0.292645 0.205677
0.000032 -0.099451 -0.017161 0.168928 -0.868066 -0.466824
0.003602 -0.101195 -0.012628 0.168928 -0.868066 -0.466824
-0.000017 -0.103743 -0.009199 0.168928 -0.868066 -0.466824
-0.016013 -0.099629 0.049301 -0.713160 -0.698684 0.056951
-0.016632 -0.098554 0.054734 -0.713160 -0.698684 0.056951
-0.017510 -0.097908 0.051666 -0.713160 -0.698684 0.056951
-0.000041 -0.103990 0.005691 -0.304509 -0.952370 -0.016286
-0.016013 -0.099629 0.049301 -0.304509 -0.952370 -0.016286
-0.000017 -0.103743 -0.009199 -0.304509 -0.952370 -0.016286
-0.001617 0.097471 0.062307 0.021942 0.621147 0.783387
-0.000113 0.092808 0.065962 0.021942 0.621147 0.783387
0.013540 0.092672 0.065688 0.021942 0.621147 0.783387
-0.000113 0.092808 0.065962 -0.005511 0.615810 0.787876
-0.001617 0.097471 0.062307 -0.005511 0.615810 0.787876
-0.012567 0.093712 0.065168 -0.005511 0.615810 0.787876
0.016735 0.090129 0.064432 0.366117 0.000413 0.930569
0.013540 0.092672 0.065688 0.366117 0.000413 0.930569
0.015718 -0.091780 0.064913 0.366117 0.000413 0.930569
0.013425 -0.091927 0.065731 0.336206 0.000013 0.941789
0.015718 -0.091780 0.064913 0.336206 0.000013 0.941789
0.013540 0.092672 0.065688 0.336206 0.000013 0.941789
-0.017255 -0.090700 0.063082 -0.969753 -0.000073 0.244089
-0.018449 0.092016 0.058393 -0.969753 -0.000073 0.244089
-0.031636 -0.000579 0.005973 -0.969753 -0.000073 0.244089
-0.018449 0.092016 0.058393 -0.962126 0.000708 0.272605
-0.017255 -0.090700 0.063082 -0.962126 0.000708 0.272605
-0.016767 0.090252 0.064332 -0.962126 0.000708 0.272605
-0.018449 0.092016 0.058393 -0.988229 0.061423 0.140110
-0.019229 0.097261 0.050588 -0.988229 0.061423 0.140110
-0.031636 -0.000579 0.005973 -0.988229 0.061423 0.140110
-0.000627 -0.087975 -0.024962 -0.360462 -0.538401 -0.761703
0.000032 -0.099451 -0.017161 -0.360462 -0.538401 -0.761703
-0.003215 -0.087766 -0.023884 -0.360462 -0.538401 -0.761703
0.003076 -0.087973 -0.023979 0.829278 -0.171621 -0.531831
0.003810 -0.082966 -0.024449 0.829278 -0.171621 -0.531831
0.016558 -0.085132 -0.003873 0.829278 -0.171621 -0.531831
0.015718 -0.091780 0.064913 0.677569 -0.001843 0.735457
0.017134 -0.089271 0.063614 0.677569 -0.001843 0.735457
0.016735 0.090129 0.064432 0.677569 -0.001843 0.735457
0.016218 0.100285 0.045870 0.496349 0.867083 -0.042484
0.019269 0.098494 0.044942 0.496349 0.867083 -0.042484
0.019802 0.097011 0.020914 0.496349 0.867083 -0.042484
0.009942 0.100035 0.058341 0.075533 0.722596 0.687132
-0.001617 0.097471 0.062307 0.075533 0.722596 0.687132
0.013540 0.092672 0.065688 0.075533 0.722596 0.687132
0.019269 0.098494 0.044942 0.904977 0.383975 0.183247
0.017129 0.099067 0.054305 0.904977 0.383975 0.183247
0.018556 0.094602 0.056617 0.904977 0.383975 0.183247
-0.000314 0.094615 0.007575 0.012706 0.980664 -0.195286
-0.000016 0.098496 0.027082 0.012706 0.980664 -0.195286
0.019802 0.097011 0.020914 0.012706 0.980664 -0.195286
0.026034 0.075298 -0.005031 0.851811 0.071316 -0.518973
0.028015 0.042042 -0.006350 0.851811 0.071316 -0.518973
0.024817 0.074378 -0.007156 0.851811 0.071316 -0.518973
-0.000337 0.086562 -0.004163 0.035196 0.591655 -0.805423
0.022314 0.088250 -0.001933 0.035196 0.591655 -0.805423
0.022377 0.083355 -0.005526 0.035196 0.591655 -0.805423
-0.021325 0.090927 0.000980 -0.538897 0.643215 -0.543934
-0.022733 0.085434 -0.004120 -0.538897 0.643215 -0.543934
-0.024495 0.085892 -0.001833 -0.538897 0.643215 -0.543934
0.001843 -0.084002 -0.025525 0.077784 -0.003636 -0.996964
-0.001500 -0.045870 -0.025925 0.077784 -0.003636 -0.996964
0.001917 -0.045520 -0.025659 0.077784 -0.003636 -0.996964
-0.001500 -0.045870 -0.025925 -0.198729 0.113340 -0.973479
-0.024650 0.076668 -0.006932 -0.198729 0.113340 -0.973479
-0.022761 0.080174 -0.006910 -0.198729 0.113340 -0.973479
-0.017054 -0.095525 0.022121 -0.793117 -0.605993 -0.061134
-0.016013 -0.099629 0.049301 -0.793117 -0.605993 -0.061134
-0.017510 -0.097908 0.051666 -0.793117 -0.605993 -0.061134
0.003495 -0.102716 -0.008029 0.283571 -0.958905 -0.009459
0.016230 -0.099538 0.051584 0.283571 -0.958905 -0.009459
-0.000017 -0.103743 -0.009199 0.283571 -0.958905 -0.009459
0.000032 -0.099451 -0.017161 -0.178475 -0.865689 -0.467685
-0.000017 -0.103743 -0.009199 -0.178475 -0.865689 -0.467685
-0.003617 -0.101158 -0.012610 -0.178475 -0.865689 -0.467685
-0.025981 0.075770 -0.005082 -0.987868 0.153186 -0.025523
-0.025270 0.082065 0.005197 -0.987868 0.153186 -0.025523
-0.024495 0.085892 -0.001833 -0.987868 0.153186 -0.025523
-0.014422 0.091276 0.065690 -0.206643 -0.001494 0.978415
-0.015472 -0.090706 0.065190 -0.206643 -0.001494 0.978415
-0.012988 -0.092496 0.065712 -0.206643 -0.001494 0.978415
-0.016767 0.090252 0.064332 -0.501132 0.000515 0.865371
-0.015472 -0.090706 0.065190 -0.501132 0.000515 0.865371
-0.014422 0.091276 0.065690 -0.501132 0.000515 0.865371
-0.000506 -0.092945 0.065953 0.046775 -0.445098 0.894259
0.013139 -0.094063 0.064683 0.046775 -0.445098 0.894259
0.013425 -0.091927 0.065731 0.046775 -0.445098 0.894259
-0.014017 -0.100091 0.056027 -0.015250 -0.997215 0.073002
-0.000041 -0.103990 0.005691 -0.015250 -0.997215 0.073002
-0.009324 -0.099983 0.058489 -0.015250 -0.997215 0.073002
-0.019067 0.097697 0.024627 -0.016024 0.980701 -0.194854
-0.000016 0.098496 0.027082 -0.016024 0.980701 -0.194854
-0.000314 0.094615 0.007575 -0.016024 0.980701 -0.194854
-0.001617 0.097471 0.062307 -0.104719 0.777308 0.620344
-0.004494 0.100426 0.058119 -0.104719 0.777308 0.620344
-0.012567 0.093712 0.065168 -0.104719 0.777308 0.620344
0.016218 0.100285 0.045870 -0.016248 0.999109 -0.038948
-0.014623 0.100168 0.055735 -0.016248 0.999109 -0.038948
-0.004494 0.100426 0.058119 -0.016248 0.999109 -0.038948
0.016558 -0.085132 -0.003873 0.812943 -0.463730 -0.352248
0.016956 -0.091603 0.005563 0.812943 -0.463730 -0.352248
0.003602 -0.101195 -0.012628 0.812943 -0.463730 -0.352248
0.003602 -0.101195 -0.012628 0.734943 -0.648754 -0.197427
0.016956 -0.091603 0.005563 0.734943 -0.648754 -0.197427
0.003495 -0.102716 -0.008029 0.734943 -0.648754 -0.197427
0.003602 -0.101195 -0.012628 0.355505 -0.889834 -0.286027
0.003495 -0.102716 -0.008029 0.355505 -0.889834 -0.286027
-0.000017 -0.103743 -0.009199 0.355505 -0.889834 -0.286027
0.015718 -0.091780 0.064913 0.779750 -0.493229 0.385637
0.015805 -0.099416 0.054970 0.779750 -0.493229 0.385637
0.017607 -0.093848 0.058448 0.779750 -0.493229 0.385637
0.015805 -0.099416 0.054970 0.264343 -0.962053 0.067644
0.012506 -0.100188 0.056894 0.264343 -0.962053 0.067644
0.016230 -0.099538 0.051584 0.264343 -0.962053 0.067644
0.013139 -0.094063 0.064683 0.542076 -0.664142 0.514848
0.015805 -0.099416 0.054970 0.542076 -0.664142 0.514848
0.015718 -0.091780 0.064913 0.542076 -0.664142 0.514848
0.015805 -0.099416 0.054970 0.470493 -0.711825 0.521479
0.013139 -0.094063 0.064683 0.470493 -0.711825 0.521479
0.012506 -0.100188 0.056894 0.470493 -0.711825 0.521479
0.017033 -0.096802 0.030322 0.584351 -0.807368 -0.081794
0.016230 -0.099538 0.051584 0.584351 -0.807368 -0.081794
0.003495 -0.102716 -0.008029 0.584351 -0.807368 -0.081794
0.015805 -0.099416 0.054970 0.826667 -0.548979 0.123463
0.016230 -0.099538 0.051584 0.826667 -0.548979 0.123463
0.017585 -0.097407 0.051985 0.826667 -0.548979 0.123463
0.017585 -0.097407 0.051985 0.873315 -0.427986 0.232701
0.017607 -0.093848 0.058448 0.873315 -0.427986 0.232701
0.015805 -0.099416 0.054970 0.873315 -0.427986 0.232701
-0.004494 0.100426 0.058119 0.013498 0.821385 0.570215
-0.001617 0.097471 0.062307 0.013498 0.821385 0.570215
0.009942 0.100035 0.058341 0.013498 0.821385 0.570215
0.001917 -0.045520 -0.025659 0.481279 -0.003998 -0.876559
0.003810 -0.082966 -0.024449 0.481279 -0.003998 -0.876559
0.001843 -0.084002 -0.025525 0.481279 -0.003998 -0.876559
-0.000314 0.094615 0.007575 0.026296 0.976262 -0.214990
0.019802 0.097011 0.020914 0.026296 0.976262 -0.214990
0.021343 0.094333 0.008942 0.026296 0.976262 -0.214990
-0.000016 0.098496 0.027082 0.035393 0.991525 -0.125004
0.016218 0.100285 0.045870 0.035393 0.991525 -0.125004
0.019802 0.097011 0.020914 0.035393 0.991525 -0.125004
-0.022761 0.080174 -0.006910 -0.025269 0.468427 -0.883141
-0.022733 0.085434 -0.004120 -0.025269 0.468427 -0.883141
-0.000337 0.086562 -0.004163 -0.025269 0.468427 -0.883141
0.022314 0.088250 -0.001933 0.029533 0.795427 -0.605330
-0.000173 0.090995 0.000577 0.029533 0.795427 -0.605330
0.021483 0.091795 0.002684 0.029533 0.795427 -0.605330
-0.000337 0.086562 -0.004163 0.009510 0.447458 -0.894254
0.022377 0.083355 -0.005526 0.009510 0.447458 -0.894254
-0.000834 0.080260 -0.007322 0.009510 0.447458 -0.894254
-0.000834 0.080260 -0.007322 0.029392 0.327461 -0.944407
0.022377 0.083355 -0.005526 0.029392 0.327461 -0.944407
0.022959 0.077901 -0.007399 0.029392 0.327461 -0.944407
0.001917 -0.045520 -0.025659 0.062896 0.135567 -0.988770
-0.001500 -0.045870 -0.025925 0.062896 0.135567 -0.988770
0.022959 0.077901 -0.007399 0.062896 0.135567 -0.988770
-0.028011 0.041784 -0.006396 -0.512379 0.036185 -0.857997
-0.024650 0.076668 -0.006932 -0.512379 0.036185 -0.857997
-0.001500 -0.045870 -0.025925 -0.512379 0.036185 -0.857997
-0.028011 0.041784 -0.006396 -0.825750 0.070958 -0.559555
-0.025981 0.075770 -0.005082 -0.825750 0.070958 -0.559555
-0.024650 0.076668 -0.006932 -0.825750 0.070958 -0.559555
0.024515 0.081703 -0.005051 0.671123 0.490385 -0.555983
0.022314 0.088250 -0.001933 0.671123 0.490385 -0.555983
0.024729 0.085740 -0.001232 0.671123 0.490385 -0.555983
-0.003637 -0.083586 -0.024606 -0.583103 0.004633 -0.812385
-0.028011 0.041784 -0.006396 -0.583103 0.004633 -0.812385
-0.001500 -0.045870 -0.025925 -0.583103 0.004633 -0.812385
-0.020658 0.094668 0.009538 -0.016299 0.980639 -0.195146
-0.019067 0.097697 0.024627 -0.016299 0.980639 -0.195146
-0.000314 0.094615 0.007575 -0.016299 0.980639 -0.195146
-0.014623 0.100168 0.055735 -0.157040 0.798731 0.580833
-0.012567 0.093712 0.065168 -0.157040 0.798731 0.580833
-0.004494 0.100426 0.058119 -0.157040 0.798731 0.580833
0.016956 -0.091603 0.005563 0.973711 -0.166650 -0.155286
0.016558 -0.085132 -0.003873 0.973711 -0.166650 -0.155286
0.031616 -0.001861 0.001180 0.973711 -0.166650 -0.155286
0.001191 -0.100301 0.058623 0.075791 -0.765650 0.638777
0.013139 -0.094063 0.064683 0.075791 -0.765650 0.638777
0.000470 -0.096656 0.063078 0.075791 -0.765650 0.638777
0.015551 0.100200 0.054673 -0.024274 0.999674 0.007861
0.016218 0.100285 0.045870 -0.024274 0.999674 0.007861
0.009942 0.100035 0.058341 -0.024274 0.999674 0.007861
0.009942 0.100035 0.058341 0.026557 0.999088 0.033433
0.016218 0.100285 0.045870 0.026557 0.999088 0.033433
-0.004494 0.100426 0.058119 0.026557 0.999088 0.033433
0.023869 0.090401 0.004368 0.763663 0.633795 -0.122975
0.021343 0.094333 0.008942 0.763663 0.633795 -0.122975
0.022708 0.093736 0.014340 0.763663 0.633795 -0.122975
0.017129 0.099067 0.054305 0.594010 0.799770 0.086723
0.019269 0.098494 0.044942 0.594010 0.799770 0.086723
0.015551 0.100200 0.054673 0.594010 0.799770 0.086723
0.013540 0.092672 0.065688 0.277531 0.743172 0.608828
0.015397 0.092906 0.064556 0.277531 0.743172 0.608828
0.009942 0.100035 0.058341 0.277531 0.743172 0.608828
0.015397 0.092906 0.064556 0.344644 0.752739 0.560896
0.015551 0.100200 0.054673 0.344644 0.752739 0.560896
0.009942 0.100035 0.058341 0.344644 0.752739 0.560896
0.015397 0.092906 0.064556 0.784743 0.463668 0.411327
0.018556 0.094602 0.056617 0.784743 0.463668 0.411327
0.017129 0.099067 0.054305 0.784743 0.463668 0.411327
-0.022733 0.085434 -0.004120 -0.035868 0.684936 -0.727720
-0.021325 0.090927 0.000980 -0.035868 0.684936 -0.727720
-0.000337 0.086562 -0.004163 -0.035868 0.684936 -0.727720
0.024729 0.085740 -0.001232 0.932801 0.220325 -0.285201
0.026034 0.075298 -0.005031 0.932801 0.220325 -0.285201
0.024515 0.081703 -0.005051 0.932801 0.220325 -0.285201
0.021343 0.094333 0.008942 0.624228 0.728724 -0.281603
0.023869 0.090401 0.004368 0.624228 0.728724 -0.281603
0.021483 0.091795 0.002684 0.624228 0.728724 -0.281603
-0.021325 0.090927 0.000980 -0.011619 0.888025 -0.459648
-0.000314 0.094615 0.007575 -0.011619 0.888025 -0.459648
-0.000173 0.090995 0.000577 -0.011619 0.888025 -0.459648
-0.000173 0.090995 0.000577 0.011894 0.888215 -0.459274
-0.000314 0.094615 0.007575 0.011894 0.888215 -0.459274
0.021483 0.091795 0.002684 0.011894 0.888215 -0.459274
-0.000868 -0.082548 -0.025870 0.126740 0.000708 -0.991936
-0.001500 -0.045870 -0.025925 0.126740 0.000708 -0.991936
0.001843 -0.084002 -0.025525 0.126740 0.000708 -0.991936
-0.003637 -0.083586 -0.024606 -0.412606 -0.008469 -0.910870
-0.001500 -0.045870 -0.025925 -0.412606 -0.008469 -0.910870
-0.000868 -0.082548 -0.025870 -0.412606 -0.008469 -0.910870
-0.016812 -0.087533 -0.001206 -0.798626 -0.520306 -0.302451
-0.003617 -0.101158 -0.012610 -0.798626 -0.520306 -0.302451
-0.016804 -0.091906 0.006295 -0.798626 -0.520306 -0.302451
-0.016013 -0.099629 0.049301 -0.541515 -0.834316 0.103339
-0.014017 -0.100091 0.056027 -0.541515 -0.834316 0.103339
-0.016632 -0.098554 0.054734 -0.541515 -0.834316 0.103339
-0.003430 -0.102598 -0.008964 -0.319295 -0.947430 -0.020677
-0.000017 -0.103743 -0.009199 -0.319295 -0.947430 -0.020677
-0.016013 -0.099629 0.049301 -0.319295 -0.947430 -0.020677
-0.003430 -0.102598 -0.008964 -0.723656 -0.670230 -0.164661
-0.017054 -0.095525 0.022121 -0.723656 -0.670230 -0.164661
-0.016804 -0.091906 0.006295 -0.723656 -0.670230 -0.164661
-0.000506 -0.092945 0.065953 0.024012 -0.608318 0.793330
0.000470 -0.096656 0.063078 0.024012 -0.608318 0.793330
0.013139 -0.094063 0.064683 0.024012 -0.608318 0.793330
0.001191 -0.100301 0.058623 -0.031556 -0.776034 0.629902
0.000470 -0.096656 0.063078 -0.031556 -0.776034 0.629902
-0.009324 -0.099983 0.058489 -0.031556 -0.776034 0.629902
-0.000041 -0.103990 0.005691 0.020592 -0.997403 0.069018
0.012506 -0.100188 0.056894 0.020592 -0.997403 0.069018
0.001191 -0.100301 0.058623 0.020592 -0.997403 0.069018
0.001191 -0.100301 0.058623 -0.031129 -0.997047 0.070197
-0.009324 -0.099983 0.058489 -0.031129 -0.997047 0.070197
-0.000041 -0.103990 0.005691 -0.031129 -0.997047 0.070197
-0.023556 0.091166 0.004608 -0.982775 0.184638 -0.007839
-0.024495 0.085892 -0.001833 -0.982775 0.184638 -0.007839
-0.025270 0.082065 0.005197 -0.982775 0.184638 -0.007839
0.003076 -0.087973 -0.023979 0.216123 -0.540324 -0.813229
0.000032 -0.099451 -0.017161 0.216123 -0.540324 -0.813229
-0.000627 -0.087975 -0.024962 0.216123 -0.540324 -0.813229
-0.000627 -0.087975 -0.024962 0.246084 -0.284390 -0.926588
0.001843 -0.084002 -0.025525 0.246084 -0.284390 -0.926588
0.003076 -0.087973 -0.023979 0.246084 -0.284390 -0.926588
0.000032 -0.099451 -0.017161 0.556313 -0.528433 -0.641306
0.003076 -0.087973 -0.023979 0.556313 -0.528433 -0.641306
0.003602 -0.101195 -0.012628 0.556313 -0.528433 -0.641306
0.016558 -0.085132 -0.003873 0.792539 -0.378771 -0.477927
0.003602 -0.101195 -0.012628 0.792539 -0.378771 -0.477927
0.003076 -0.087973 -0.023979 0.792539 -0.378771 -0.477927
0.017134 -0.089271 0.063614 0.880372 -0.312128 0.357100
0.015718 -0.091780 0.064913 0.880372 -0.312128 0.357100
0.017607 -0.093848 0.058448 0.880372 -0.312128 0.357100
0.013139 -0.094063 0.064683 0.325609 -0.451322 0.830836
0.015718 -0.091780 0.064913 0.325609 -0.451322 0.830836
0.013425 -0.091927 0.065731 0.325609 -0.451322 0.830836
0.013139 -0.094063 0.064683 0.101105 -0.786037 0.609855
0.001191 -0.100301 0.058623 0.101105 -0.786037 0.609855
0.012506 -0.100188 0.056894 0.101105 -0.786037 0.609855
0.001843 -0.084002 -0.025525 0.535960 -0.156588 -0.829594
0.003810 -0.082966 -0.024449 0.535960 -0.156588 -0.829594
0.003076 -0.087973 -0.023979 0.535960 -0.156588 -0.829594
0.015397 0.092906 0.064556 0.580735 0.650676 0.489252
0.017129 0.099067 0.054305 0.580735 0.650676 0.489252
0.015551 0.100200 0.054673 0.580735 0.650676 0.489252
0.015397 0.092906 0.064556 0.491560 0.198884 0.847829
0.013540 0.092672 0.065688 0.491560 0.198884 0.847829
0.016735 0.090129 0.064432 0.491560 0.198884 0.847829
0.018556 0.094602 0.056617 0.828341 0.380745 0.410956
0.015397 0.092906 0.064556 0.828341 0.380745 0.410956
0.016735 0.090129 0.064432 0.828341 0.380745 0.410956
-0.000314 0.094615 0.007575 0.035746 0.926350 -0.374963
0.021343 0.094333 0.008942 0.035746 0.926350 -0.374963
0.021483 0.091795 0.002684 0.035746 0.926350 -0.374963
0.019802 0.097011 0.020914 0.656776 0.749489 -0.083135
0.022708 0.093736 0.014340 0.656776 0.749489 -0.083135
0.021343 0.094333 0.008942 0.656776 0.749489 -0.083135
0.022708 0.093736 0.014340 0.720531 0.692906 -0.026762
0.019802 0.097011 0.020914 0.720531 0.692906 -0.026762
0.019269 0.098494 0.044942 0.720531 0.692906 -0.026762
0.022959 0.077901 -0.007399 0.572813 0.248018 -0.781263
0.024515 0.081703 -0.005051 0.572813 0.248018 -0.781263
0.024817 0.074378 -0.007156 0.572813 0.248018 -0.781263
0.026034 0.075298 -0.005031 0.990951 0.132224 -0.023068
0.024729 0.085740 -0.001232 0.990951 0.132224 -0.023068
0.025448 0.081181 0.003501 0.990951 0.132224 -0.023068
0.024729 0.085740 -0.001232 0.985772 0.167666 0.011866
0.023869 0.090401 0.004368 0.985772 0.167666 0.011866
0.025448 0.081181 0.003501 0.985772 0.167666 0.011866
-0.021325 0.090927 0.000980 -0.015362 0.730515 -0.682724
-0.000173 0.090995 0.000577 -0.015362 0.730515 -0.682724
-0.000337 0.086562 -0.004163 -0.015362 0.730515 -0.682724
-0.000337 0.086562 -0.004163 0.012854 0.730054 -0.683269
-0.000173 0.090995 0.000577 0.012854 0.730054 -0.683269
0.022314 0.088250 -0.001933 0.012854 0.730054 -0.683269
-0.000834 0.080260 -0.007322 -0.018544 0.449168 -0.893255
-0.022761 0.080174 -0.006910 -0.018544 0.449168 -0.893255
-0.000337 0.086562 -0.004163 -0.018544 0.449168 -0.893255
-0.016013 -0.099629 0.049301 -0.619205 -0.779582 -0.094002
-0.017054 -0.095525 0.022121 -0.619205 -0.779582 -0.094002
-0.003430 -0.102598 -0.008964 -0.619205 -0.779582 -0.094002
-0.003430 -0.102598 -0.008964 -0.320427 -0.886551 -0.333698
-0.003617 -0.101158 -0.012610 -0.320427 -0.886551 -0.333698
-0.000017 -0.103743 -0.009199 -0.320427 -0.886551 -0.333698
-0.014617 -0.093442 0.064500 -0.098943 -0.715547 0.691522
-0.009324 -0.099983 0.058489 -0.098943 -0.715547 0.691522
-0.012988 -0.092496 0.065712 -0.098943 -0.715547 0.691522
-0.009324 -0.099983 0.058489 -0.084110 -0.712852 0.696253
0.000470 -0.096656 0.063078 -0.084110 -0.712852 0.696253
-0.012988 -0.092496 0.065712 -0.084110 -0.712852 0.696253
-0.014017 -0.100091 0.056027 -0.608029 -0.644895 0.463044
-0.014617 -0.093442 0.064500 -0.608029 -0.644895 0.463044
-0.016632 -0.098554 0.054734 -0.608029 -0.644895 0.463044
-0.015472 -0.090706 0.065190 -0.423756 -0.343805 0.837991
-0.014617 -0.093442 0.064500 -0.423756 -0.343805 0.837991
-0.012988 -0.092496 0.065712 -0.423756 -0.343805 0.837991
-0.023026 0.092897 0.009877 -0.605208 0.788758 -0.107633
-0.021822 0.095442 0.021756 -0.605208 0.788758 -0.107633
-0.020658 0.094668 0.009538 -0.605208 0.788758 -0.107633
-0.018193 0.099518 0.043814 -0.017454 0.996656 -0.079828
0.016218 0.100285 0.045870 -0.017454 0.996656 -0.079828
-0.000016 0.098496 0.027082 -0.017454 0.996656 -0.079828
-0.014623 0.100168 0.055735 -0.019359 0.998627 -0.048678
0.016218 0.100285 0.045870 -0.019359 0.998627 -0.048678
-0.018193 0.099518 0.043814 -0.019359 0.998627 -0.048678
-0.023556 0.091166 0.004608 -0.634294 0.640925 -0.432304
-0.021325 0.090927 0.000980 -0.634294 0.640925 -0.432304
-0.024495 0.085892 -0.001833 -0.634294 0.640925 -0.432304
-0.000868 -0.082548 -0.025870 0.037950 -0.163387 -0.985832
0.001843 -0.084002 -0.025525 0.037950 -0.163387 -0.985832
-0.000627 -0.087975 -0.024962 0.037950 -0.163387 -0.985832
0.022314 0.088250 -0.001933 0.538783 0.502972 -0.675819
0.024515 0.081703 -0.005051 0.538783 0.502972 -0.675819
0.022377 0.083355 -0.005526 0.538783 0.502972 -0.675819
0.026034 0.075298 -0.005031 0.813644 0.191216 -0.549018
0.024817 0.074378 -0.007156 0.813644 0.191216 -0.549018
0.024515 0.081703 -0.005051 0.813644 0.191216 -0.549018
0.022314 0.088250 -0.001933 0.652479 0.653286 -0.384043
0.021483 0.091795 0.002684 0.652479 0.653286 -0.384043
0.023869 0.090401 0.004368 0.652479 0.653286 -0.384043
0.024729 0.085740 -0.001232 0.717816 0.585350 -0.376970
0.022314 0.088250 -0.001933 0.717816 0.585350 -0.376970
0.023869 0.090401 0.004368 0.717816 0.585350 -0.376970
-0.014017 -0.100091 0.056027 -0.286086 -0.763533 0.578941
-0.009324 -0.099983 0.058489 -0.286086 -0.763533 0.578941
-0.014617 -0.093442 0.064500 -0.286086 -0.763533 0.578941
-0.012988 -0.092496 0.065712 -0.037433 -0.618146 0.785171
0.000470 -0.096656 0.063078 -0.037433 -0.618146 0.785171
-0.000506 -0.092945 0.065953 -0.037433 -0.618146 0.785171
-0.017255 -0.090700 0.063082 -0.709082 -0.372579 0.598655
-0.014617 -0.093442 0.064500 -0.709082 -0.372579 0.598655
-0.015472 -0.090706 0.065190 -0.709082 -0.372579 0.598655
-0.016046 0.093209 0.063617 -0.878489 0.351218 0.323887
-0.019229 0.097261 0.050588 -0.878489 0.351218 0.323887
-0.018449 0.092016 0.058393 -0.878489 0.351218 0.323887
-0.018449 0.092016 0.058393 -0.890816 0.299973 0.341268
-0.016767 0.090252 0.064332 -0.890816 0.299973 0.341268
-0.016046 0.093209 0.063617 -0.890816 0.299973 0.341268
-0.016995 0.099363 0.054115 -0.868132 0.372525 0.327981
-0.019229 0.097261 0.050588 -0.868132 0.372525 0.327981
-0.016046 0.093209 0.063617 -0.868132 0.372525 0.327981
-0.023556 0.091166 0.004608 -0.605162 0.772391 -0.192849
-0.023026 0.092897 0.009877 -0.605162 0.772391 -0.192849
-0.020658 0.094668 0.009538 -0.605162 0.772391 -0.192849
-0.019229 0.097261 0.050588 -0.984555 0.156403 0.078676
-0.021822 0.095442 0.021756 -0.984555 0.156403 0.078676
-0.025270 0.082065 0.005197 -0.984555 0.156403 0.078676
-0.021822 0.095442 0.021756 -0.982298 0.176886 0.061660
-0.023026 0.092897 0.009877 -0.982298 0.176886 0.061660
-0.025270 0.082065 0.005197 -0.982298 0.176886 0.061660
-0.023026 0.092897 0.009877 -0.981595 0.187328 0.037155
-0.023556 0.091166 0.004608 -0.981595 0.187328 0.037155
-0.025270 0.082065 0.005197 -0.981595 0.187328 0.037155
-0.023556 0.091166 0.004608 -0.445890 0.832394 -0.329094
-0.020658 0.094668 0.009538 -0.445890 0.832394 -0.329094
-0.021325 0.090927 0.000980 -0.445890 0.832394 -0.329094
-0.014623 0.100168 0.055735 -0.363723 0.729883 0.578772
-0.016046 0.093209 0.063617 -0.363723 0.729883 0.578772
-0.012567 0.093712 0.065168 -0.363723 0.729883 0.578772
-0.016767 0.090252 0.064332 -0.575720 0.322293 0.751448
-0.014422 0.091276 0.065690 -0.575720 0.322293 0.751448
-0.016046 0.093209 0.063617 -0.575720 0.322293 0.751448
0.024515 0.081703 -0.005051 0.442357 0.333164 -0.832660
0.022959 0.077901 -0.007399 0.442357 0.333164 -0.832660
0.022377 0.083355 -0.005526 0.442357 0.333164 -0.832660
-0.024495 0.085892 -0.001833 -0.706250 0.351573 -0.614497
-0.022733 0.085434 -0.004120 -0.706250 0.351573 -0.614497
-0.024650 0.076668 -0.006932 -0.706250 0.351573 -0.614497
-0.024650 0.076668 -0.006932 -0.654528 0.356932 -0.666478
-0.022733 0.085434 -0.004120 -0.654528 0.356932 -0.666478
-0.022761 0.080174 -0.006910 -0.654528 0.356932 -0.666478
-0.024650 0.076668 -0.006932 -0.838843 0.274102 -0.470330
-0.025981 0.075770 -0.005082 -0.838843 0.274102 -0.470330
-0.024495 0.085892 -0.001833 -0.838843 0.274102 -0.470330
-0.016995 0.099363 0.054115 -0.354701 0.933343 0.055298
-0.014623 0.100168 0.055735 -0.354701 0.933343 0.055298
-0.018193 0.099518 0.043814 -0.354701 0.933343 0.055298
-0.020658 0.094668 0.009538 -0.561742 0.820557 -0.105504
-0.021822 0.095442 0.021756 -0.561742 0.820557 -0.105504
-0.019067 0.097697 0.024627 -0.561742 0.820557 -0.105504
-0.019229 0.097261 0.050588 -0.851742 0.522140 0.043660
-0.018193 0.099518 0.043814 -0.851742 0.522140 0.043660
-0.021822 0.095442 0.021756 -0.851742 0.522140 0.043660
-0.018193 0.099518 0.043814 -0.759618 0.642942 0.098011
-0.019229 0.097261 0.050588 -0.759618 0.642942 0.098011
-0.016995 0.099363 0.054115 -0.759618 0.642942 0.098011
-0.021325 0.090927 0.000980 -0.036033 0.916716 -0.397911
-0.020658 0.094668 0.009538 -0.036033 0.916716 -0.397911
-0.000314 0.094615 0.007575 -0.036033 0.916716 -0.397911
-0.014623 0.100168 0.055735 -0.560810 0.668259 0.488797
-0.016995 0.099363 0.054115 -0.560810 0.668259 0.488797
-0.016046 0.093209 0.063617 -0.560810 0.668259 0.488797
-0.014422 0.091276 0.065690 -0.414232 0.480836 0.772793
-0.012567 0.093712 0.065168 -0.414232 0.480836 0.772793
-0.016046 0.093209 0.063617 -0.414232 0.480836 0.772793
-0.003215 -0.087766 -0.023884 -0.390322 -0.168870 -0.905059
-0.000868 -0.082548 -0.025870 -0.390322 -0.168870 -0.905059
-0.000627 -0.087975 -0.024962 -0.390322 -0.168870 -0.905059
-0.017255 -0.090700 0.063082 -0.752648 -0.506644 0.420514
-0.016632 -0.098554 0.054734 -0.752648 -0.506644 0.420514
-0.014617 -0.093442 0.064500 -0.752648 -0.506644 0.420514
-0.019067 0.097697 0.024627 -0.029743 0.995213 -0.093090
-0.018193 0.099518 0.043814 -0.029743 0.995213 -0.093090
-0.000016 0.098496 0.027082 -0.029743 0.995213 -0.093090
-0.003215 -0.087766 -0.023884 -0.346495 -0.193469 -0.917884
-0.003637 -0.083586 -0.024606 -0.346495 -0.193469 -0.917884
-0.000868 -0.082548 -0.025870 -0.346495 -0.193469 -0.917884
-0.018193 0.099518 0.043814 -0.602129 0.796943 -0.048196
-0.019067 0.097697 0.024627 -0.602129 0.796943 -0.048196
-0.021822 0.095442 0.021756 -0.602129 0.796943 -0.048196
3 0 1 2
3 3 4 5
3 6 7 8
3 9 10 11
3 12 13 14
3 15 16 17
3 18 19 20
3 21 22 23
3 24 25 26
3 27 28 29
3 30 31 32
3 33 34 35
3 36 37 38
3 39 40 41
3 42 43 44
3 45 46 47
3 48 49 50
3 51 52 53
3 54 55 56
3 57 58 59
3 60 61 62
3 63 64 65
3 66 67 68
3 69 70 71
3 72 73 74
3 75 76 77
3 78 79 80
3 81 82 83
3 84 85 86
3 87 88 89
3 90 91 92
3 93 94 95
3 96 97 98
3 99 100 101
3 102 103 104
3 105 106 107
3 108 109 110
3 111 112 113
3 114 115 116
3 117 118 119
3 120 121 122
3 123 124 125
3 126 127 128
3 129 130 131
3 132 133 134
3 135 136 137
3 138 139 140
3 141 142 143
3 144 145 146
3 147 148 149
3 150 151 152
3 153 154 155
3 156 157 158
3 159 160 161
3 162 163 164
3 165 166 167
3 168 169 170
3 171 172 173
3 174 175 176
3 177 178 179
3 180 181 182
3 183 184 185
3 186 187 188
3 189 190 191
3 192 193 194
3 195 196 197
3 198 199 200
3 201 202 203
3 204 205 206
3 207 208 209
3 210 211 212
3 213 214 215
3 216 217 218
3 219 220 221
3 222 223 224
3 225 226 227
3 228 229 230
3 231 232 233
3 234 235 236
3 237 238 239
3 240 241 242
3 243 244 245
3 246 247 248
3 249 250 251
3 252 253 254
3 255 256 257
3 258 259 260
3 261 262 263
3 264 265 266
3 267 268 269
3 270 271 272
3 273 274 275
3 276 277 278
3 279 280 281
3 282 283 284
3 285 286 287
3 288 289 290
3 291 292 293
3 294 295 296
3 297 298 299
3 300 301 302
3 303 304 305
3 306 307 308
3 309 310 311
3 312 313 314
3 315 316 317
3 318 319 320
3 321 322 323
3 324 325 326
3 327 328 329
3 330 331 332
3 333 334 335
3 336 337 338
3 339 340 341
3 342 343 344
3 345 346 347
3 348 349 350
3 351 352 353
3 354 355 356
3 357 358 359
3 360 361 362
3 363 364 365
3 366 367 368
3 369 370 371
3 372 373 374
3 375 376 377
3 378 379 380
3 381 382 383
3 384 385 386
3 387 388 389
3 390 391 392
3 393 394 395
3 396 397 398
3 399 400 401
3 402 403 404
3 405 406 407
3 408 409 410
3 411 412 413
3 414 415 416
3 417 418 419
3 420 421 422
3 423 424 425
3 426 427 428
3 429 430 431
3 432 433 434
3 435 436 437
3 438 439 440
3 441 442 443
3 444 445 446
3 447 448 449
3 450 451 452
3 453 454 455
3 456 457 458
3 459 460 461
3 462 463 464
3 465 466 467
3 468 469 470
3 471 472 473
3 474 475 476
3 477 478 479
3 480 481 482
3 483 484 485
3 486 487 488
3 489 490 491
3 492 493 494
3 495 496 497
3 498 499 500
3 501 502 503
3 504 505 506
3 507 508 509
3 510 511 512
3 513 514 515
3 516 517 518
3 519 520 521
3 522 523 524
3 525 526 527
3 528 529 530
3 531 532 533
3 534 535 536
3 537 538 539
3 540 541 542
3 543 544 545
3 546 547 548
3 549 550 551
3 552 553 554
3 555 556 557
3 558 559 560
3 561 562 563
3 564 565 566
3 567 568 569
3 570 571 572
3 573 574 575
3 576 577 578
3 579 580 581
3 582 583 584
3 585 586 587
3 588 589 590
3 591 592 593
3 594 595 596
3 597 598 599
