ply
format ascii 1.0
comment Created by Blender 2.79 (sub 0) - www.blender.org, source file: ''
element vertex 600
property float x
property float y
property float z
property float nx
property float ny
property float nz
element face 200
property list uchar uint vertex_indices
end_header
-0.044623 -0.016425 0.028378 -0.971000 -0.239065 0.002634
-0.048005 -0.003164 -0.014747 -0.971000 -0.239065 0.002634
-0.043919 -0.019759 -0.014745 -0.971000 -0.239065 0.002634
0.082446 -0.051388 -0.043985 -0.254002 -0.664782 -0.702530
-0.010917 -0.047107 -0.014281 -0.254002 -0.664782 -0.702530
-0.024988 -0.041242 -0.014744 -0.254002 -0.664782 -0.702530
-0.046709 0.007900 0.028003 -0.996983 0.076930 0.010323
-0.046934 0.010732 -0.014834 -0.996983 0.076930 0.010323
-0.048005 -0.003164 -0.014747 -0.996983 0.076930 0.010323
-0.048005 -0.003164 -0.014747 -0.239035 -0.058987 -0.969218
0.082446 -0.051388 -0.043985 -0.239035 -0.058987 -0.969218
-0.043919 -0.019759 -0.014745 -0.239035 -0.058987 -0.969218
-0.046934 0.010732 -0.014834 -0.215004 0.010467 -0.976557
0.082446 -0.051388 -0.043985 -0.215004 0.010467 -0.976557
-0.048005 -0.003164 -0.014747 -0.215004 0.010467 -0.976557
0.083335 0.020392 -0.043403 -0.214955 0.010575 -0.976567
0.082446 -0.051388 -0.043985 -0.214955 0.010575 -0.976567
-0.046934 0.010732 -0.014834 -0.214955 0.010575 -0.976567
-0.014513 -0.042906 0.031953 -0.115893 -0.949280 0.292295
0.052828 -0.051189 0.031754 -0.115893 -0.949280 0.292295
0.084025 -0.051216 0.044034 -0.115893 -0.949280 0.292295
-0.046951 -0.001408 0.029664 -0.987376 -0.155605 0.029581
-0.048005 -0.003164 -0.014747 -0.987376 -0.155605 0.029581
-0.044623 -0.016425 0.028378 -0.987376 -0.155605 0.029581
0.082446 -0.051388 -0.043985 -0.276602 -0.353943 -0.893429
-0.024988 -0.041242 -0.014744 -0.276602 -0.353943 -0.893429
-0.035119 -0.033151 -0.014812 -0.276602 -0.353943 -0.893429
0.082446 -0.051388 -0.043985 -0.261809 -0.167263 -0.950515
-0.035119 -0.033151 -0.014812 -0.261809 -0.167263 -0.950515
-0.043919 -0.019759 -0.014745 -0.261809 -0.167263 -0.950515
0.040446 0.018833 0.055529 0.163961 0.201028 0.965766
0.099598 0.048589 0.039292 0.163961 0.201028 0.965766
0.090083 0.071522 0.036134 0.163961 0.201028 0.965766
0.096210 -0.051223 0.043315 0.087516 -0.206166 0.974595
0.043446 -0.017819 0.055119 0.087516 -0.206166 0.974595
0.015562 -0.024034 0.056309 0.087516 -0.206166 0.974595
0.113921 0.019367 0.035382 0.485790 0.010520 0.874012
0.103877 0.012659 0.041045 0.485790 0.010520 0.874012
0.112193 -0.051199 0.037192 0.485790 0.010520 0.874012
-0.010917 -0.047107 -0.014281 -0.384844 -0.922972 0.004132
-0.020125 -0.043108 0.021211 -0.384844 -0.922972 0.004132
-0.024988 -0.041242 -0.014744 -0.384844 -0.922972 0.004132
-0.035119 -0.033151 -0.014812 -0.623935 -0.781140 0.022920
-0.024988 -0.041242 -0.014744 -0.623935 -0.781140 0.022920
-0.029993 -0.035958 0.029048 -0.623935 -0.781140 0.022920
-0.046934 0.010732 -0.014834 -0.921655 0.388009 -0.001318
-0.043011 0.020195 0.027855 -0.921655 0.388009 -0.001318
-0.040367 0.026331 -0.014752 -0.921655 0.388009 -0.001318
-0.046709 0.007900 0.028003 -0.999294 0.030056 0.022524
-0.048005 -0.003164 -0.014747 -0.999294 0.030056 0.022524
-0.046951 -0.001408 0.029664 -0.999294 0.030056 0.022524
0.082446 -0.051388 -0.043985 0.057240 -0.001132 -0.998360
0.096678 0.014294 -0.043244 0.057240 -0.001132 -0.998360
0.097130 -0.051200 -0.043143 0.057240 -0.001132 -0.998360
-0.009168 -0.046587 0.021677 -0.076953 -0.996869 0.018156
-0.010917 -0.047107 -0.014281 -0.076953 -0.996869 0.018156
0.052828 -0.051189 0.031754 -0.076953 -0.996869 0.018156
-0.035119 -0.033151 -0.014812 -0.835611 -0.549167 0.013000
-0.037619 -0.028323 0.028484 -0.835611 -0.549167 0.013000
-0.043919 -0.019759 -0.014745 -0.835611 -0.549167 0.013000
0.123994 -0.051197 0.025458 0.705059 -0.006895 0.709115
0.121453 0.018448 0.028662 0.705059 -0.006895 0.709115
0.112193 -0.051199 0.037192 0.705059 -0.006895 0.709115
0.108684 0.074084 -0.011412 0.192102 0.981265 0.014659
0.078251 0.079509 0.024287 0.192102 0.981265 0.014659
0.100013 0.075251 0.024123 0.192102 0.981265 0.014659
0.118023 0.068405 0.008846 0.783003 0.621418 0.027308
0.126265 0.058419 -0.000245 0.783003 0.621418 0.027308
0.120245 0.066297 -0.006879 0.783003 0.621418 0.027308
0.059885 0.080214 -0.015544 -0.109567 0.990679 -0.080935
0.057760 0.081278 0.000354 -0.109567 0.990679 -0.080935
0.067158 0.081681 -0.007441 -0.109567 0.990679 -0.080935
0.108684 0.074084 -0.011412 0.173930 0.984757 -0.001364
0.077314 0.079608 -0.023509 0.173930 0.984757 -0.001364
0.078251 0.079509 0.024287 0.173930 0.984757 -0.001364
0.084025 -0.051216 0.044034 0.056179 -0.289941 0.955394
0.096210 -0.051223 0.043315 0.056179 -0.289941 0.955394
0.015562 -0.024034 0.056309 0.056179 -0.289941 0.955394
0.096210 -0.051223 0.043315 -0.000859 -0.999981 -0.006132
0.084025 -0.051216 0.044034 -0.000859 -0.999981 -0.006132
0.112193 -0.051199 0.037192 -0.000859 -0.999981 -0.006132
0.123994 -0.051197 0.025458 0.000800 -0.999999 0.000699
0.112193 -0.051199 0.037192 0.000800 -0.999999 0.000699
0.084025 -0.051216 0.044034 0.000800 -0.999999 0.000699
0.123994 -0.051197 0.025458 0.000582 -1.000000 0.000229
0.084025 -0.051216 0.044034 0.000582 -1.000000 0.000229
0.129336 -0.051197 0.015630 0.000582 -1.000000 0.000229
-0.031455 0.029034 0.035793 -0.471032 0.504144 0.723856
-0.015126 0.020082 0.052653 -0.471032 0.504144 0.723856
-0.018070 0.034711 0.040549 -0.471032 0.504144 0.723856
-0.014513 -0.042906 0.031953 -0.116350 -0.952721 0.280686
-0.009168 -0.046587 0.021677 -0.116350 -0.952721 0.280686
0.052828 -0.051189 0.031754 -0.116350 -0.952721 0.280686
0.096210 -0.051223 0.043315 0.357730 -0.009761 0.933774
0.112193 -0.051199 0.037192 0.357730 -0.009761 0.933774
0.103877 0.012659 0.041045 0.357730 -0.009761 0.933774
0.127329 0.017965 0.019311 0.878598 0.000078 0.477561
0.123994 -0.051197 0.025458 0.878598 0.000078 0.477561
0.129336 -0.051197 0.015630 0.878598 0.000078 0.477561
-0.005128 0.024063 0.054418 -0.093706 -0.001177 0.995599
-0.007400 -0.023724 0.054148 -0.093706 -0.001177 0.995599
0.015562 -0.024034 0.056309 -0.093706 -0.001177 0.995599
-0.009168 -0.046587 0.021677 -0.303569 -0.952382 0.028532
-0.020125 -0.043108 0.021211 -0.303569 -0.952382 0.028532
-0.010917 -0.047107 -0.014281 -0.303569 -0.952382 0.028532
-0.020125 -0.043108 0.021211 -0.304645 -0.935927 0.176727
-0.009168 -0.046587 0.021677 -0.304645 -0.935927 0.176727
-0.014513 -0.042906 0.031953 -0.304645 -0.935927 0.176727
0.053597 -0.051187 -0.031059 -0.063330 -0.997992 -0.000808
0.052828 -0.051189 0.031754 -0.063330 -0.997992 -0.000808
-0.010917 -0.047107 -0.014281 -0.063330 -0.997992 -0.000808
0.053597 -0.051187 -0.031059 -0.133920 -0.949406 -0.284067
-0.010917 -0.047107 -0.014281 -0.133920 -0.949406 -0.284067
0.082446 -0.051388 -0.043985 -0.133920 -0.949406 -0.284067
0.086062 0.049497 -0.040907 -0.219691 0.103774 -0.970034
0.083335 0.020392 -0.043403 -0.219691 0.103774 -0.970034
-0.040367 0.026331 -0.014752 -0.219691 0.103774 -0.970034
-0.046934 0.010732 -0.014834 -0.220103 0.097752 -0.970566
-0.040367 0.026331 -0.014752 -0.220103 0.097752 -0.970566
0.083335 0.020392 -0.043403 -0.220103 0.097752 -0.970566
0.082371 0.072672 -0.036209 -0.253282 0.236521 -0.938033
-0.040367 0.026331 -0.014752 -0.253282 0.236521 -0.938033
-0.028926 0.038945 -0.014661 -0.253282 0.236521 -0.938033
0.109158 -0.051199 -0.038847 0.639837 -0.007107 -0.768478
0.117111 0.020645 -0.032890 0.639837 -0.007107 -0.768478
0.122347 -0.051200 -0.027866 0.639837 -0.007107 -0.768478
0.082446 -0.051388 -0.043985 0.015591 0.007910 -0.999847
0.083335 0.020392 -0.043403 0.015591 0.007910 -0.999847
0.096678 0.014294 -0.043244 0.015591 0.007910 -0.999847
0.100013 0.075251 0.024123 0.276054 0.960474 0.035827
0.111398 0.072297 0.015605 0.276054 0.960474 0.035827
0.108684 0.074084 -0.011412 0.276054 0.960474 0.035827
0.057760 0.081278 0.000354 -0.030810 0.999420 0.014479
0.065655 0.081334 0.013335 -0.030810 0.999420 0.014479
0.067158 0.081681 -0.007441 -0.030810 0.999420 0.014479
0.113856 0.070434 -0.016021 0.475453 0.813414 -0.335116
0.109980 0.068092 -0.027204 0.475453 0.813414 -0.335116
0.100100 0.075228 -0.023901 0.475453 0.813414 -0.335116
0.086062 0.049497 -0.040907 0.077875 0.209999 -0.974595
0.082371 0.072672 -0.036209 0.077875 0.209999 -0.974595
0.095384 0.070337 -0.035672 0.077875 0.209999 -0.974595
0.077314 0.079608 -0.023509 0.197193 0.980363 -0.001829
0.067158 0.081681 -0.007441 0.197193 0.980363 -0.001829
0.078251 0.079509 0.024287 0.197193 0.980363 -0.001829
0.078251 0.079509 0.024287 0.121654 0.992248 0.025394
0.067158 0.081681 -0.007441 0.121654 0.992248 0.025394
0.065655 0.081334 0.013335 0.121654 0.992248 0.025394
0.015562 -0.024034 0.056309 0.027160 0.002421 0.999628
0.040446 0.018833 0.055529 0.027160 0.002421 0.999628
0.015051 0.024085 0.056206 0.027160 0.002421 0.999628
0.043446 -0.017819 0.055119 0.044284 -0.007531 0.998991
0.040446 0.018833 0.055529 0.044284 -0.007531 0.998991
0.015562 -0.024034 0.056309 0.044284 -0.007531 0.998991
0.099598 0.048589 0.039292 0.242267 0.230308 0.942478
0.102437 0.068088 0.033798 0.242267 0.230308 0.942478
0.090083 0.071522 0.036134 0.242267 0.230308 0.942478
0.074318 0.074768 0.033919 -0.036211 0.437458 0.898509
0.015051 0.024085 0.056206 -0.036211 0.437458 0.898509
0.090083 0.071522 0.036134 -0.036211 0.437458 0.898509
0.109158 -0.051199 -0.038847 0.000197 -1.000000 -0.000201
0.129874 -0.051199 -0.014322 0.000197 -1.000000 -0.000201
0.097130 -0.051200 -0.043143 0.000197 -1.000000 -0.000201
0.129336 -0.051197 0.015630 -0.000574 -1.000000 0.000084
0.129874 -0.051199 -0.014322 -0.000574 -1.000000 0.000084
0.132208 -0.051199 0.001350 -0.000574 -1.000000 0.000084
0.084025 -0.051216 0.044034 0.000503 -1.000000 0.000103
0.129874 -0.051199 -0.014322 0.000503 -1.000000 0.000103
0.129336 -0.051197 0.015630 0.000503 -1.000000 0.000103
0.129874 -0.051199 -0.014322 0.013719 -0.999785 -0.015563
0.082446 -0.051388 -0.043985 0.013719 -0.999785 -0.015563
0.097130 -0.051200 -0.043143 0.013719 -0.999785 -0.015563
0.062339 0.077814 0.024078 -0.105294 0.954190 0.280063
0.078251 0.079509 0.024287 -0.105294 0.954190 0.280063
0.065655 0.081334 0.013335 -0.105294 0.954190 0.280063
-0.039733 -0.010686 0.037406 -0.741851 -0.017770 0.670330
-0.035869 0.005669 0.042117 -0.741851 -0.017770 0.670330
-0.046951 -0.001408 0.029664 -0.741851 -0.017770 0.670330
-0.040368 0.014930 0.035457 -0.615444 0.240743 0.750515
-0.035869 0.005669 0.042117 -0.615444 0.240743 0.750515
-0.027616 0.021411 0.043835 -0.615444 0.240743 0.750515
0.103877 0.012659 0.041045 0.223053 0.007861 0.974775
0.043446 -0.017819 0.055119 0.223053 0.007861 0.974775
0.096210 -0.051223 0.043315 0.223053 0.007861 0.974775
0.121453 0.018448 0.028662 0.665948 0.002823 0.745993
0.113921 0.019367 0.035382 0.665948 0.002823 0.745993
0.112193 -0.051199 0.037192 0.665948 0.002823 0.745993
-0.007400 -0.023724 0.054148 -0.203612 -0.002511 0.979048
-0.015126 0.020082 0.052653 -0.203612 -0.002511 0.979048
-0.022397 -0.011884 0.051059 -0.203612 -0.002511 0.979048
-0.005128 0.024063 0.054418 -0.088257 0.001187 0.996097
0.015562 -0.024034 0.056309 -0.088257 0.001187 0.996097
0.015051 0.024085 0.056206 -0.088257 0.001187 0.996097
0.074318 0.074768 0.033919 -0.078116 0.476444 0.875728
-0.005128 0.024063 0.054418 -0.078116 0.476444 0.875728
0.015051 0.024085 0.056206 -0.078116 0.476444 0.875728
0.084025 -0.051216 0.044034 -0.084144 -0.578348 0.811439
0.015562 -0.024034 0.056309 -0.084144 -0.578348 0.811439
-0.007400 -0.023724 0.054148 -0.084144 -0.578348 0.811439
-0.031783 -0.025374 0.038750 -0.622681 -0.583312 0.521552
-0.037619 -0.028323 0.028484 -0.622681 -0.583312 0.521552
-0.029993 -0.035958 0.029048 -0.622681 -0.583312 0.521552
-0.020125 -0.043108 0.021211 -0.568419 -0.822028 0.034199
-0.029993 -0.035958 0.029048 -0.568419 -0.822028 0.034199
-0.024988 -0.041242 -0.014744 -0.568419 -0.822028 0.034199
0.086062 0.049497 -0.040907 -0.227793 0.158507 -0.960721
-0.040367 0.026331 -0.014752 -0.227793 0.158507 -0.960721
0.082371 0.072672 -0.036209 -0.227793 0.158507 -0.960721
-0.031455 0.029034 0.035793 -0.635476 0.385632 0.668923
-0.040368 0.014930 0.035457 -0.635476 0.385632 0.668923
-0.027616 0.021411 0.043835 -0.635476 0.385632 0.668923
-0.025173 0.040277 0.022046 -0.440533 0.897650 0.012472
0.057760 0.081278 0.000354 -0.440533 0.897650 0.012472
-0.028926 0.038945 -0.014661 -0.440533 0.897650 0.012472
0.122347 -0.051200 -0.027866 -0.000231 -1.000000 0.000161
0.129874 -0.051199 -0.014322 -0.000231 -1.000000 0.000161
0.109158 -0.051199 -0.038847 -0.000231 -1.000000 0.000161
0.117111 0.020645 -0.032890 0.773008 0.011982 -0.634283
0.125861 0.020175 -0.022236 0.773008 0.011982 -0.634283
0.122347 -0.051200 -0.027866 0.773008 0.011982 -0.634283
0.096678 0.014294 -0.043244 0.336363 0.000882 -0.941732
0.109158 -0.051199 -0.038847 0.336363 0.000882 -0.941732
0.097130 -0.051200 -0.043143 0.336363 0.000882 -0.941732
0.096678 0.014294 -0.043244 0.161237 0.113679 -0.980347
0.086062 0.049497 -0.040907 0.161237 0.113679 -0.980347
0.103422 0.042110 -0.038909 0.161237 0.113679 -0.980347
-0.037619 -0.028323 0.028484 -0.861574 -0.507010 0.025136
-0.044623 -0.016425 0.028378 -0.861574 -0.507010 0.025136
-0.043919 -0.019759 -0.014745 -0.861574 -0.507010 0.025136
-0.039733 -0.010686 0.037406 -0.722330 -0.335697 0.604604
-0.044623 -0.016425 0.028378 -0.722330 -0.335697 0.604604
-0.031783 -0.025374 0.038750 -0.722330 -0.335697 0.604604
0.123994 -0.051197 0.025458 0.846825 0.006434 0.531832
0.127329 0.017965 0.019311 0.846825 0.006434 0.531832
0.121453 0.018448 0.028662 0.846825 0.006434 0.531832
0.124764 0.043403 0.019519 0.873228 0.242556 0.422658
0.121380 0.063099 0.015205 0.873228 0.242556 0.422658
0.118857 0.052366 0.026578 0.873228 0.242556 0.422658
0.113856 0.070434 -0.016021 0.564143 0.825417 -0.020716
0.108684 0.074084 -0.011412 0.564143 0.825417 -0.020716
0.120245 0.066297 -0.006879 0.564143 0.825417 -0.020716
0.108684 0.074084 -0.011412 0.566589 0.823442 -0.030344
0.118023 0.068405 0.008846 0.566589 0.823442 -0.030344
0.120245 0.066297 -0.006879 0.566589 0.823442 -0.030344
0.111398 0.072297 0.015605 0.510696 0.859743 0.005599
0.118023 0.068405 0.008846 0.510696 0.859743 0.005599
0.108684 0.074084 -0.011412 0.510696 0.859743 0.005599
0.108684 0.074084 -0.011412 0.187978 0.981385 -0.039337
0.100100 0.075228 -0.023901 0.187978 0.981385 -0.039337
0.077314 0.079608 -0.023509 0.187978 0.981385 -0.039337
0.086831 0.076754 -0.029051 0.182491 0.965819 -0.184094
0.077314 0.079608 -0.023509 0.182491 0.965819 -0.184094
0.100100 0.075228 -0.023901 0.182491 0.965819 -0.184094
0.040446 0.018833 0.055529 0.082417 0.274959 0.957917
0.090083 0.071522 0.036134 0.082417 0.274959 0.957917
0.015051 0.024085 0.056206 0.082417 0.274959 0.957917
0.129874 -0.051199 -0.014322 -0.002409 -0.999945 0.010224
0.053597 -0.051187 -0.031059 -0.002409 -0.999945 0.010224
0.082446 -0.051388 -0.043985 -0.002409 -0.999945 0.010224
0.062339 0.077814 0.024078 -0.363940 0.872323 0.326498
0.055642 0.079453 0.012235 -0.363940 0.872323 0.326498
-0.023225 0.039427 0.031264 -0.363940 0.872323 0.326498
-0.015126 0.020082 0.052653 -0.450516 0.530559 0.718013
-0.031455 0.029034 0.035793 -0.450516 0.530559 0.718013
-0.027616 0.021411 0.043835 -0.450516 0.530559 0.718013
0.078251 0.079509 0.024287 0.189921 0.963409 0.189139
0.088525 0.076758 0.027981 0.189921 0.963409 0.189139
0.100013 0.075251 0.024123 0.189921 0.963409 0.189139
0.043446 -0.017819 0.055119 0.223280 0.007390 0.974726
0.103877 0.012659 0.041045 0.223280 0.007390 0.974726
0.040446 0.018833 0.055529 0.223280 0.007390 0.974726
0.103877 0.012659 0.041045 0.228878 0.074616 0.970591
0.099598 0.048589 0.039292 0.228878 0.074616 0.970591
0.040446 0.018833 0.055529 0.228878 0.074616 0.970591
0.132208 -0.051199 0.001350 0.980373 -0.002664 0.197135
0.131421 0.021853 0.006249 0.980373 -0.002664 0.197135
0.129336 -0.051197 0.015630 0.980373 -0.002664 0.197135
-0.007400 -0.023724 0.054148 -0.472110 -0.392009 0.789583
-0.022397 -0.011884 0.051059 -0.472110 -0.392009 0.789583
-0.031783 -0.025374 0.038750 -0.472110 -0.392009 0.789583
-0.015126 0.020082 0.052653 -0.174879 0.002745 0.984586
-0.007400 -0.023724 0.054148 -0.174879 0.002745 0.984586
-0.005128 0.024063 0.054418 -0.174879 0.002745 0.984586
0.084025 -0.051216 0.044034 -0.132068 -0.698090 0.703725
-0.007400 -0.023724 0.054148 -0.132068 -0.698090 0.703725
-0.017132 -0.035457 0.040683 -0.132068 -0.698090 0.703725
-0.037619 -0.028323 0.028484 -0.708469 -0.704735 0.037689
-0.035119 -0.033151 -0.014812 -0.708469 -0.704735 0.037689
-0.029993 -0.035958 0.029048 -0.708469 -0.704735 0.037689
-0.046934 0.010732 -0.014834 -0.957270 0.288193 0.024082
-0.046709 0.007900 0.028003 -0.957270 0.288193 0.024082
-0.043011 0.020195 0.027855 -0.957270 0.288193 0.024082
-0.040367 0.026331 -0.014752 -0.740701 0.671705 0.013151
-0.034979 0.031425 0.028510 -0.740701 0.671705 0.013151
-0.028926 0.038945 -0.014661 -0.740701 0.671705 0.013151
0.120110 0.042625 -0.027355 0.772847 0.053799 -0.632308
0.125861 0.020175 -0.022236 0.772847 0.053799 -0.632308
0.117111 0.020645 -0.032890 0.772847 0.053799 -0.632308
0.109980 0.068092 -0.027204 0.476990 0.566457 -0.672017
0.103585 0.065560 -0.033878 0.476990 0.566457 -0.672017
0.095384 0.070337 -0.035672 0.476990 0.566457 -0.672017
0.086062 0.049497 -0.040907 0.048850 0.080796 -0.995533
0.096678 0.014294 -0.043244 0.048850 0.080796 -0.995533
0.083335 0.020392 -0.043403 0.048850 0.080796 -0.995533
-0.035869 0.005669 0.042117 -0.767604 0.084039 0.635391
-0.040368 0.014930 0.035457 -0.767604 0.084039 0.635391
-0.046951 -0.001408 0.029664 -0.767604 0.084039 0.635391
-0.023699 0.007574 0.050651 -0.571813 -0.021051 0.820114
-0.035869 0.005669 0.042117 -0.571813 -0.021051 0.820114
-0.022397 -0.011884 0.051059 -0.571813 -0.021051 0.820114
-0.044623 -0.016425 0.028378 -0.729289 -0.424562 0.536549
-0.037619 -0.028323 0.028484 -0.729289 -0.424562 0.536549
-0.031783 -0.025374 0.038750 -0.729289 -0.424562 0.536549
0.131348 0.009396 -0.007998 0.989052 -0.008691 -0.147310
0.132208 -0.051199 0.001350 0.989052 -0.008691 -0.147310
0.129874 -0.051199 -0.014322 0.989052 -0.008691 -0.147310
0.131421 0.021853 0.006249 0.995924 0.065304 -0.062215
0.131348 0.009396 -0.007998 0.995924 0.065304 -0.062215
0.129079 0.045296 -0.006632 0.995924 0.065304 -0.062215
0.124368 0.048727 -0.018195 0.931451 0.098274 -0.350343
0.129079 0.045296 -0.006632 0.931451 0.098274 -0.350343
0.125861 0.020175 -0.022236 0.931451 0.098274 -0.350343
0.102437 0.068088 0.033798 0.425085 0.775150 0.467382
0.110567 0.067759 0.026951 0.425085 0.775150 0.467382
0.100013 0.075251 0.024123 0.425085 0.775150 0.467382
0.121380 0.063099 0.015205 0.912532 0.230708 0.337726
0.124764 0.043403 0.019519 0.912532 0.230708 0.337726
0.128215 0.049971 0.005706 0.912532 0.230708 0.337726
0.121380 0.063099 0.015205 0.749247 0.390584 0.534858
0.110567 0.067759 0.026951 0.749247 0.390584 0.534858
0.118857 0.052366 0.026578 0.749247 0.390584 0.534858
0.120245 0.066297 -0.006879 0.694655 0.699202 -0.169029
0.121277 0.063276 -0.015132 0.694655 0.699202 -0.169029
0.113856 0.070434 -0.016021 0.694655 0.699202 -0.169029
0.121277 0.063276 -0.015132 0.668159 0.647144 -0.367108
0.109980 0.068092 -0.027204 0.668159 0.647144 -0.367108
0.113856 0.070434 -0.016021 0.668159 0.647144 -0.367108
0.100100 0.075228 -0.023901 0.275876 0.843432 -0.460994
0.095384 0.070337 -0.035672 0.275876 0.843432 -0.460994
0.086831 0.076754 -0.029051 0.275876 0.843432 -0.460994
0.077314 0.079608 -0.023509 0.016595 0.900197 -0.435167
0.086831 0.076754 -0.029051 0.016595 0.900197 -0.435167
0.070077 0.076146 -0.030948 0.016595 0.900197 -0.435167
0.082371 0.072672 -0.036209 0.026194 0.861270 -0.507473
0.070077 0.076146 -0.030948 0.026194 0.861270 -0.507473
0.086831 0.076754 -0.029051 0.026194 0.861270 -0.507473
-0.028926 0.038945 -0.014661 -0.377555 0.802609 -0.461812
0.059885 0.080214 -0.015544 -0.377555 0.802609 -0.461812
0.070077 0.076146 -0.030948 -0.377555 0.802609 -0.461812
0.065655 0.081334 0.013335 -0.195523 0.973960 0.114769
0.057760 0.081278 0.000354 -0.195523 0.973960 0.114769
0.055642 0.079453 0.012235 -0.195523 0.973960 0.114769
-0.023225 0.039427 0.031264 -0.296042 0.775173 0.558091
-0.018070 0.034711 0.040549 -0.296042 0.775173 0.558091
0.074318 0.074768 0.033919 -0.296042 0.775173 0.558091
-0.022397 -0.011884 0.051059 -0.620141 -0.078286 0.780575
-0.035869 0.005669 0.042117 -0.620141 -0.078286 0.780575
-0.039733 -0.010686 0.037406 -0.620141 -0.078286 0.780575
0.078251 0.079509 0.024287 0.069904 0.883390 0.463396
0.074318 0.074768 0.033919 0.069904 0.883390 0.463396
0.088525 0.076758 0.027981 0.069904 0.883390 0.463396
0.088525 0.076758 0.027981 0.100483 0.845794 0.523961
0.074318 0.074768 0.033919 0.100483 0.845794 0.523961
0.090083 0.071522 0.036134 0.100483 0.845794 0.523961
0.129336 -0.051197 0.015630 0.953220 0.011584 0.302054
0.131421 0.021853 0.006249 0.953220 0.011584 0.302054
0.127329 0.017965 0.019311 0.953220 0.011584 0.302054
0.124764 0.043403 0.019519 0.949763 0.113927 0.291499
0.131421 0.021853 0.006249 0.949763 0.113927 0.291499
0.128215 0.049971 0.005706 0.949763 0.113927 0.291499
0.131421 0.021853 0.006249 0.942017 0.092385 0.322597
0.124764 0.043403 0.019519 0.942017 0.092385 0.322597
0.127329 0.017965 0.019311 0.942017 0.092385 0.322597
-0.039733 -0.010686 0.037406 -0.608361 -0.260736 0.749609
-0.031783 -0.025374 0.038750 -0.608361 -0.260736 0.749609
-0.022397 -0.011884 0.051059 -0.608361 -0.260736 0.749609
-0.017132 -0.035457 0.040683 -0.140985 -0.773586 0.617809
-0.014513 -0.042906 0.031953 -0.140985 -0.773586 0.617809
0.084025 -0.051216 0.044034 -0.140985 -0.773586 0.617809
-0.015126 0.020082 0.052653 -0.353384 0.553125 0.754435
-0.005128 0.024063 0.054418 -0.353384 0.553125 0.754435
-0.018070 0.034711 0.040549 -0.353384 0.553125 0.754435
0.082371 0.072672 -0.036209 -0.280584 0.356576 -0.891138
-0.028926 0.038945 -0.014661 -0.280584 0.356576 -0.891138
0.070077 0.076146 -0.030948 -0.280584 0.356576 -0.891138
-0.028926 0.038945 -0.014661 -0.655024 0.754569 0.039598
-0.034979 0.031425 0.028510 -0.655024 0.754569 0.039598
-0.025173 0.040277 0.022046 -0.655024 0.754569 0.039598
-0.025173 0.040277 0.022046 -0.429284 0.901046 0.061898
0.055642 0.079453 0.012235 -0.429284 0.901046 0.061898
0.057760 0.081278 0.000354 -0.429284 0.901046 0.061898
0.125861 0.020175 -0.022236 0.874091 -0.004713 -0.485740
0.129874 -0.051199 -0.014322 0.874091 -0.004713 -0.485740
0.122347 -0.051200 -0.027866 0.874091 -0.004713 -0.485740
0.103422 0.042110 -0.038909 0.365504 0.056169 -0.929114
0.109491 0.010677 -0.038422 0.365504 0.056169 -0.929114
0.096678 0.014294 -0.043244 0.365504 0.056169 -0.929114
0.109158 -0.051199 -0.038847 0.585365 0.002429 -0.810766
0.109491 0.010677 -0.038422 0.585365 0.002429 -0.810766
0.117111 0.020645 -0.032890 0.585365 0.002429 -0.810766
-0.040368 0.014930 0.035457 -0.810231 0.123341 0.572986
-0.046709 0.007900 0.028003 -0.810231 0.123341 0.572986
-0.046951 -0.001408 0.029664 -0.810231 0.123341 0.572986
-0.046951 -0.001408 0.029664 -0.815482 -0.173718 0.552097
-0.044623 -0.016425 0.028378 -0.815482 -0.173718 0.552097
-0.039733 -0.010686 0.037406 -0.815482 -0.173718 0.552097
-0.020125 -0.043108 0.021211 -0.434816 -0.866990 0.243441
-0.014513 -0.042906 0.031953 -0.434816 -0.866990 0.243441
-0.029993 -0.035958 0.029048 -0.434816 -0.866990 0.243441
-0.017132 -0.035457 0.040683 -0.430260 -0.746333 0.507802
-0.029993 -0.035958 0.029048 -0.430260 -0.746333 0.507802
-0.014513 -0.042906 0.031953 -0.430260 -0.746333 0.507802
-0.031783 -0.025374 0.038750 -0.509164 -0.626742 0.589869
-0.029993 -0.035958 0.029048 -0.509164 -0.626742 0.589869
-0.017132 -0.035457 0.040683 -0.509164 -0.626742 0.589869
0.131348 0.009396 -0.007998 0.999811 0.011802 -0.015456
0.131421 0.021853 0.006249 0.999811 0.011802 -0.015456
0.132208 -0.051199 0.001350 0.999811 0.011802 -0.015456
0.118857 0.052366 0.026578 0.669185 0.096489 0.736805
0.113921 0.019367 0.035382 0.669185 0.096489 0.736805
0.121453 0.018448 0.028662 0.669185 0.096489 0.736805
0.125861 0.020175 -0.022236 0.936472 0.013792 -0.350472
0.131348 0.009396 -0.007998 0.936472 0.013792 -0.350472
0.129874 -0.051199 -0.014322 0.936472 0.013792 -0.350472
0.124368 0.048727 -0.018195 0.919072 0.257990 -0.297906
0.121277 0.063276 -0.015132 0.919072 0.257990 -0.297906
0.129079 0.045296 -0.006632 0.919072 0.257990 -0.297906
0.126265 0.058419 -0.000245 0.976331 0.215866 -0.013399
0.128215 0.049971 0.005706 0.976331 0.215866 -0.013399
0.129079 0.045296 -0.006632 0.976331 0.215866 -0.013399
0.121380 0.063099 0.015205 0.648205 0.689451 0.323245
0.111398 0.072297 0.015605 0.648205 0.689451 0.323245
0.110567 0.067759 0.026951 0.648205 0.689451 0.323245
0.102437 0.068088 0.033798 0.618701 0.315808 0.719357
0.118857 0.052366 0.026578 0.618701 0.315808 0.719357
0.110567 0.067759 0.026951 0.618701 0.315808 0.719357
0.109808 0.046044 0.035077 0.414806 0.190332 0.889780
0.102437 0.068088 0.033798 0.414806 0.190332 0.889780
0.099598 0.048589 0.039292 0.414806 0.190332 0.889780
0.120245 0.066297 -0.006879 0.828796 0.550905 -0.097984
0.126265 0.058419 -0.000245 0.828796 0.550905 -0.097984
0.121277 0.063276 -0.015132 0.828796 0.550905 -0.097984
0.126265 0.058419 -0.000245 0.920229 0.343929 0.186795
0.121380 0.063099 0.015205 0.920229 0.343929 0.186795
0.128215 0.049971 0.005706 0.920229 0.343929 0.186795
0.118023 0.068405 0.008846 0.662761 0.708802 0.241552
0.111398 0.072297 0.015605 0.662761 0.708802 0.241552
0.121380 0.063099 0.015205 0.662761 0.708802 0.241552
0.103585 0.065560 -0.033878 0.317581 0.196802 -0.927584
0.103422 0.042110 -0.038909 0.317581 0.196802 -0.927584
0.095384 0.070337 -0.035672 0.317581 0.196802 -0.927584
-0.028926 0.038945 -0.014661 -0.419505 0.900270 -0.116316
0.057760 0.081278 0.000354 -0.419505 0.900270 -0.116316
0.059885 0.080214 -0.015544 -0.419505 0.900270 -0.116316
0.078251 0.079509 0.024287 -0.102067 0.908388 0.405479
0.062339 0.077814 0.024078 -0.102067 0.908388 0.405479
0.074318 0.074768 0.033919 -0.102067 0.908388 0.405479
0.086831 0.076754 -0.029051 0.168203 0.807549 -0.565307
0.095384 0.070337 -0.035672 0.168203 0.807549 -0.565307
0.082371 0.072672 -0.036209 0.168203 0.807549 -0.565307
0.077314 0.079608 -0.023509 -0.115639 0.938794 -0.324489
0.070077 0.076146 -0.030948 -0.115639 0.938794 -0.324489
0.059885 0.080214 -0.015544 -0.115639 0.938794 -0.324489
0.059885 0.080214 -0.015544 -0.033586 0.988310 -0.148713
0.067158 0.081681 -0.007441 -0.033586 0.988310 -0.148713
0.077314 0.079608 -0.023509 -0.033586 0.988310 -0.148713
-0.005128 0.024063 0.054418 -0.232229 0.654686 0.719344
0.074318 0.074768 0.033919 -0.232229 0.654686 0.719344
-0.018070 0.034711 0.040549 -0.232229 0.654686 0.719344
-0.017132 -0.035457 0.040683 -0.439684 -0.495220 0.749290
-0.007400 -0.023724 0.054148 -0.439684 -0.495220 0.749290
-0.031783 -0.025374 0.038750 -0.439684 -0.495220 0.749290
-0.015126 0.020082 0.052653 -0.234029 0.004748 0.972218
-0.023699 0.007574 0.050651 -0.234029 0.004748 0.972218
-0.022397 -0.011884 0.051059 -0.234029 0.004748 0.972218
-0.043011 0.020195 0.027855 -0.813842 0.580146 0.033040
-0.034979 0.031425 0.028510 -0.813842 0.580146 0.033040
-0.040367 0.026331 -0.014752 -0.813842 0.580146 0.033040
-0.043011 0.020195 0.027855 -0.842459 0.259056 0.472390
-0.046709 0.007900 0.028003 -0.842459 0.259056 0.472390
-0.040368 0.014930 0.035457 -0.842459 0.259056 0.472390
-0.031455 0.029034 0.035793 -0.715798 0.482539 0.504767
-0.034979 0.031425 0.028510 -0.715798 0.482539 0.504767
-0.043011 0.020195 0.027855 -0.715798 0.482539 0.504767
-0.023225 0.039427 0.031264 -0.483675 0.642171 0.594706
-0.031455 0.029034 0.035793 -0.483675 0.642171 0.594706
-0.018070 0.034711 0.040549 -0.483675 0.642171 0.594706
-0.031455 0.029034 0.035793 -0.711850 0.436729 0.550033
-0.043011 0.020195 0.027855 -0.711850 0.436729 0.550033
-0.040368 0.014930 0.035457 -0.711850 0.436729 0.550033
0.096678 0.014294 -0.043244 0.353328 0.004533 -0.935489
0.109491 0.010677 -0.038422 0.353328 0.004533 -0.935489
0.109158 -0.051199 -0.038847 0.353328 0.004533 -0.935489
0.103422 0.042110 -0.038909 0.495133 0.073011 -0.865744
0.112939 0.045550 -0.033175 0.495133 0.073011 -0.865744
0.117111 0.020645 -0.032890 0.495133 0.073011 -0.865744
0.117625 0.059065 -0.024898 0.612892 0.336450 -0.714958
0.103585 0.065560 -0.033878 0.612892 0.336450 -0.714958
0.109980 0.068092 -0.027204 0.612892 0.336450 -0.714958
0.103422 0.042110 -0.038909 0.509936 0.085189 -0.855984
0.117111 0.020645 -0.032890 0.509936 0.085189 -0.855984
0.109491 0.010677 -0.038422 0.509936 0.085189 -0.855984
0.121453 0.018448 0.028662 0.820697 0.097406 0.562999
0.124764 0.043403 0.019519 0.820697 0.097406 0.562999
0.118857 0.052366 0.026578 0.820697 0.097406 0.562999
0.124764 0.043403 0.019519 0.845790 0.081008 0.527329
0.121453 0.018448 0.028662 0.845790 0.081008 0.527329
0.127329 0.017965 0.019311 0.845790 0.081008 0.527329
0.117625 0.059065 -0.024898 0.856018 0.274138 -0.438271
0.121277 0.063276 -0.015132 0.856018 0.274138 -0.438271
0.124368 0.048727 -0.018195 0.856018 0.274138 -0.438271
0.129079 0.045296 -0.006632 0.947716 0.071721 -0.310951
0.131348 0.009396 -0.007998 0.947716 0.071721 -0.310951
0.125861 0.020175 -0.022236 0.947716 0.071721 -0.310951
0.111398 0.072297 0.015605 0.475453 0.804265 0.356513
0.100013 0.075251 0.024123 0.475453 0.804265 0.356513
0.110567 0.067759 0.026951 0.475453 0.804265 0.356513
0.129079 0.045296 -0.006632 0.929085 0.302673 -0.212581
0.121277 0.063276 -0.015132 0.929085 0.302673 -0.212581
0.126265 0.058419 -0.000245 0.929085 0.302673 -0.212581
0.118023 0.068405 0.008846 0.800848 0.594377 0.073192
0.121380 0.063099 0.015205 0.800848 0.594377 0.073192
0.126265 0.058419 -0.000245 0.800848 0.594377 0.073192
0.108684 0.074084 -0.011412 0.428619 0.877717 -0.214242
0.113856 0.070434 -0.016021 0.428619 0.877717 -0.214242
0.100100 0.075228 -0.023901 0.428619 0.877717 -0.214242
0.109980 0.068092 -0.027204 0.400357 0.778246 -0.483785
0.095384 0.070337 -0.035672 0.400357 0.778246 -0.483785
0.100100 0.075228 -0.023901 0.400357 0.778246 -0.483785
0.121277 0.063276 -0.015132 0.725199 0.490881 -0.482827
0.117625 0.059065 -0.024898 0.725199 0.490881 -0.482827
0.109980 0.068092 -0.027204 0.725199 0.490881 -0.482827
0.095384 0.070337 -0.035672 0.180917 0.162741 -0.969941
0.103422 0.042110 -0.038909 0.180917 0.162741 -0.969941
0.086062 0.049497 -0.040907 0.180917 0.162741 -0.969941
0.103585 0.065560 -0.033878 0.457744 0.183463 -0.869950
0.112939 0.045550 -0.033175 0.457744 0.183463 -0.869950
0.103422 0.042110 -0.038909 0.457744 0.183463 -0.869950
0.074318 0.074768 0.033919 -0.289873 0.755981 0.586913
0.062339 0.077814 0.024078 -0.289873 0.755981 0.586913
-0.023225 0.039427 0.031264 -0.289873 0.755981 0.586913
0.055642 0.079453 0.012235 -0.204996 0.947093 0.246963
0.062339 0.077814 0.024078 -0.204996 0.947093 0.246963
0.065655 0.081334 0.013335 -0.204996 0.947093 0.246963
0.090083 0.071522 0.036134 0.318566 0.798254 0.511181
0.102437 0.068088 0.033798 0.318566 0.798254 0.511181
0.100013 0.075251 0.024123 0.318566 0.798254 0.511181
0.099598 0.048589 0.039292 0.399522 0.092086 0.912087
0.103877 0.012659 0.041045 0.399522 0.092086 0.912087
0.109808 0.046044 0.035077 0.399522 0.092086 0.912087
0.109808 0.046044 0.035077 0.448853 0.079387 0.890072
0.103877 0.012659 0.041045 0.448853 0.079387 0.890072
0.113921 0.019367 0.035382 0.448853 0.079387 0.890072
0.118857 0.052366 0.026578 0.639772 0.107352 0.761030
0.109808 0.046044 0.035077 0.639772 0.107352 0.761030
0.113921 0.019367 0.035382 0.639772 0.107352 0.761030
-0.035869 0.005669 0.042117 -0.582933 0.220254 0.782098
-0.023699 0.007574 0.050651 -0.582933 0.220254 0.782098
-0.027616 0.021411 0.043835 -0.582933 0.220254 0.782098
0.055642 0.079453 0.012235 -0.413118 0.894713 0.169773
-0.025173 0.040277 0.022046 -0.413118 0.894713 0.169773
-0.023225 0.039427 0.031264 -0.413118 0.894713 0.169773
-0.023225 0.039427 0.031264 -0.565910 0.662179 0.491186
-0.034979 0.031425 0.028510 -0.565910 0.662179 0.491186
-0.031455 0.029034 0.035793 -0.565910 0.662179 0.491186
-0.025173 0.040277 0.022046 -0.582808 0.788657 0.195844
-0.034979 0.031425 0.028510 -0.582808 0.788657 0.195844
-0.023225 0.039427 0.031264 -0.582808 0.788657 0.195844
0.117111 0.020645 -0.032890 0.651464 0.100500 -0.751994
0.112939 0.045550 -0.033175 0.651464 0.100500 -0.751994
0.120110 0.042625 -0.027355 0.651464 0.100500 -0.751994
0.125861 0.020175 -0.022236 0.869922 0.113403 -0.479975
0.120110 0.042625 -0.027355 0.869922 0.113403 -0.479975
0.124368 0.048727 -0.018195 0.869922 0.113403 -0.479975
0.117625 0.059065 -0.024898 0.829164 0.203120 -0.520796
0.124368 0.048727 -0.018195 0.829164 0.203120 -0.520796
0.120110 0.042625 -0.027355 0.829164 0.203120 -0.520796
0.128215 0.049971 0.005706 0.993156 0.113757 0.026472
0.131421 0.021853 0.006249 0.993156 0.113757 0.026472
0.129079 0.045296 -0.006632 0.993156 0.113757 0.026472
0.118857 0.052366 0.026578 0.572070 0.236847 0.785264
0.102437 0.068088 0.033798 0.572070 0.236847 0.785264
0.109808 0.046044 0.035077 0.572070 0.236847 0.785264
0.088525 0.076758 0.027981 0.271376 0.832604 0.482832
0.090083 0.071522 0.036134 0.271376 0.832604 0.482832
0.100013 0.075251 0.024123 0.271376 0.832604 0.482832
-0.023699 0.007574 0.050651 -0.542157 0.242799 0.804434
-0.015126 0.020082 0.052653 -0.542157 0.242799 0.804434
-0.027616 0.021411 0.043835 -0.542157 0.242799 0.804434
0.103585 0.065560 -0.033878 0.601909 0.254831 -0.756814
0.117625 0.059065 -0.024898 0.601909 0.254831 -0.756814
0.112939 0.045550 -0.033175 0.601909 0.254831 -0.756814
0.112939 0.045550 -0.033175 0.666199 0.207707 -0.716266
0.117625 0.059065 -0.024898 0.666199 0.207707 -0.716266
0.120110 0.042625 -0.027355 0.666199 0.207707 -0.716266
0.129874 -0.051199 -0.014322 -0.000086 -1.000000 -0.000360
0.084025 -0.051216 0.044034 -0.000086 -1.000000 -0.000360
0.053597 -0.051187 -0.031059 -0.000086 -1.000000 -0.000360
0.084025 -0.051216 0.044034 -0.000870 -1.000000 -0.000043
0.052828 -0.051189 0.031754 -0.000870 -1.000000 -0.000043
0.053597 -0.051187 -0.031059 -0.000870 -1.000000 -0.000043
3 0 1 2
3 3 4 5
3 6 7 8
3 9 10 11
3 12 13 14
3 15 16 17
3 18 19 20
3 21 22 23
3 24 25 26
3 27 28 29
3 30 31 32
3 33 34 35
3 36 37 38
3 39 40 41
3 42 43 44
3 45 46 47
3 48 49 50
3 51 52 53
3 54 55 56
3 57 58 59
3 60 61 62
3 63 64 65
3 66 67 68
3 69 70 71
3 72 73 74
3 75 76 77
3 78 79 80
3 81 82 83
3 84 85 86
3 87 88 89
3 90 91 92
3 93 94 95
3 96 97 98
3 99 100 101
3 102 103 104
3 105 106 107
3 108 109 110
3 111 112 113
3 114 115 116
3 117 118 119
3 120 121 122
3 123 124 125
3 126 127 128
3 129 130 131
3 132 133 134
3 135 136 137
3 138 139 140
3 141 142 143
3 144 145 146
3 147 148 149
3 150 151 152
3 153 154 155
3 156 157 158
3 159 160 161
3 162 163 164
3 165 166 167
3 168 169 170
3 171 172 173
3 174 175 176
3 177 178 179
3 180 181 182
3 183 184 185
3 186 187 188
3 189 190 191
3 192 193 194
3 195 196 197
3 198 199 200
3 201 202 203
3 204 205 206
3 207 208 209
3 210 211 212
3 213 214 215
3 216 217 218
3 219 220 221
3 222 223 224
3 225 226 227
3 228 229 230
3 231 232 233
3 234 235 236
3 237 238 239
3 240 241 242
3 243 244 245
3 246 247 248
3 249 250 251
3 252 253 254
3 255 256 257
3 258 259 260
3 261 262 263
3 264 265 266
3 267 268 269
3 270 271 272
3 273 274 275
3 276 277 278
3 279 280 281
3 282 283 284
3 285 286 287
3 288 289 290
3 291 292 293
3 294 295 296
3 297 298 299
3 300 301 302
3 303 304 305
3 306 307 308
3 309 310 311
3 312 313 314
3 315 316 317
3 318 319 320
3 321 322 323
3 324 325 326
3 327 328 329
3 330 331 332
3 333 334 335
3 336 337 338
3 339 340 341
3 342 343 344
3 345 346 347
3 348 349 350
3 351 352 353
3 354 355 356
3 357 358 359
3 360 361 362
3 363 364 365
3 366 367 368
3 369 370 371
3 372 373 374
3 375 376 377
3 378 379 380
3 381 382 383
3 384 385 386
3 387 388 389
3 390 391 392
3 393 394 395
3 396 397 398
3 399 400 401
3 402 403 404
3 405 406 407
3 408 409 410
3 411 412 413
3 414 415 416
3 417 418 419
3 420 421 422
3 423 424 425
3 426 427 428
3 429 430 431
3 432 433 434
3 435 436 437
3 438 439 440
3 441 442 443
3 444 445 446
3 447 448 449
3 450 451 452
3 453 454 455
3 456 457 458
3 459 460 461
3 462 463 464
3 465 466 467
3 468 469 470
3 471 472 473
3 474 475 476
3 477 478 479
3 480 481 482
3 483 484 485
3 486 487 488
3 489 490 491
3 492 493 494
3 495 496 497
3 498 499 500
3 501 502 503
3 504 505 506
3 507 508 509
3 510 511 512
3 513 514 515
3 516 517 518
3 519 520 521
3 522 523 524
3 525 526 527
3 528 529 530
3 531 532 533
3 534 535 536
3 537 538 539
3 540 541 542
3 543 544 545
3 546 547 548
3 549 550 551
3 552 553 554
3 555 556 557
3 558 559 560
3 561 562 563
3 564 565 566
3 567 568 569
3 570 571 572
3 573 574 575
3 576 577 578
3 579 580 581
3 582 583 584
3 585 586 587
3 588 589 590
3 591 592 593
3 594 595 596
3 597 598 599
