ply
format ascii 1.0
comment Created by Blender 2.79 (sub 0) - www.blender.org, source file: ''
element vertex 600
property float x
property float y
property float z
property float nx
property float ny
property float nz
element face 200
property list uchar uint vertex_indices
end_header
-0.000489 0.030825 0.106800 -0.001299 -0.001290 0.999998
0.031087 -0.001497 0.106799 -0.001299 -0.001290 0.999998
0.022050 0.022362 0.106818 -0.001299 -0.001290 0.999998
-0.001018 -0.044030 0.052071 -0.095018 -0.995475 0.000581
-0.002608 -0.043852 0.096674 -0.095018 -0.995475 0.000581
-0.035310 -0.040737 0.084614 -0.095018 -0.995475 0.000581
-0.014643 0.026963 0.106821 0.003641 -0.007873 0.999962
-0.022532 0.020709 0.106800 0.003641 -0.007873 0.999962
-0.000489 0.030825 0.106800 0.003641 -0.007873 0.999962
0.080879 0.037306 0.090443 0.812677 -0.581120 0.043077
0.079071 0.035077 0.094492 0.812677 -0.581120 0.043077
0.033384 -0.028652 0.096679 0.812677 -0.581120 0.043077
0.080879 0.037306 0.090443 0.812605 -0.581629 0.037153
0.033384 -0.028652 0.096679 0.812605 -0.581629 0.037153
0.080795 0.036670 0.082324 0.812605 -0.581629 0.037153
0.033384 -0.028652 0.096679 0.809711 -0.586816 0.003990
0.034635 -0.027228 0.052124 0.809711 -0.586816 0.003990
0.080795 0.036670 0.082324 0.809711 -0.586816 0.003990
0.027746 -0.034283 0.052052 0.715482 -0.698627 -0.002228
0.034635 -0.027228 0.052124 0.715482 -0.698627 -0.002228
0.033384 -0.028652 0.096679 0.715482 -0.698627 -0.002228
0.043768 -0.003468 0.052000 0.535892 0.042635 -0.843209
0.042535 0.012075 0.052002 0.535892 0.042635 -0.843209
0.079328 0.037021 0.076647 0.535892 0.042635 -0.843209
0.066782 0.054021 0.094387 0.511578 0.526824 0.678782
0.055083 0.067465 0.092770 0.511578 0.526824 0.678782
0.049938 0.069712 0.094904 0.511578 0.526824 0.678782
-0.000489 0.030825 0.106800 -0.000059 0.000190 1.000000
-0.022532 0.020709 0.106800 -0.000059 0.000190 1.000000
-0.030755 -0.003739 0.106804 -0.000059 0.000190 1.000000
-0.030755 -0.003739 0.106804 -0.000001 0.000170 1.000000
-0.022532 0.020709 0.106800 -0.000001 0.000170 1.000000
-0.028507 0.011434 0.106802 -0.000001 0.000170 1.000000
0.077637 0.035709 0.095991 0.510958 -0.342903 0.788251
0.024465 -0.018590 0.106837 0.510958 -0.342903 0.788251
0.033384 -0.028652 0.096679 0.510958 -0.342903 0.788251
0.024465 -0.018590 0.106837 0.390511 -0.444998 0.805902
0.015969 -0.026112 0.106800 0.390511 -0.444998 0.805902
0.027071 -0.034540 0.096768 0.390511 -0.444998 0.805902
0.077637 0.035709 0.095991 0.577951 -0.389727 0.716997
0.033384 -0.028652 0.096679 0.577951 -0.389727 0.716997
0.079071 0.035077 0.094492 0.577951 -0.389727 0.716997
0.078953 0.038309 0.094703 0.633482 0.061537 0.771307
0.077637 0.035709 0.095991 0.633482 0.061537 0.771307
0.079799 0.037061 0.094108 0.633482 0.061537 0.771307
0.022050 0.022362 0.106818 0.135257 0.158408 0.978066
0.062302 0.055877 0.095824 0.135257 0.158408 0.978066
0.035256 0.077529 0.096057 0.135257 0.158408 0.978066
-0.002946 0.043820 0.052000 0.057080 0.525013 -0.849178
0.036947 0.079381 0.076667 0.057080 0.525013 -0.849178
0.013710 0.042013 0.052003 0.057080 0.525013 -0.849178
-0.035310 -0.040737 0.084614 -0.668853 -0.684853 -0.289159
-0.040712 -0.035504 0.084714 -0.668853 -0.684853 -0.289159
-0.029975 -0.032195 0.052039 -0.668853 -0.684853 -0.289159
-0.035310 -0.040737 0.084614 -0.714077 -0.699900 0.015279
-0.036427 -0.039501 0.089079 -0.714077 -0.699900 0.015279
-0.037894 -0.037990 0.089726 -0.714077 -0.699900 0.015279
-0.036427 -0.039501 0.089079 -0.175748 -0.959160 0.221642
-0.035310 -0.040737 0.084614 -0.175748 -0.959160 0.221642
-0.011197 -0.042299 0.096978 -0.175748 -0.959160 0.221642
-0.002608 -0.043852 0.096674 -0.167193 -0.964530 0.204278
-0.011197 -0.042299 0.096978 -0.167193 -0.964530 0.204278
-0.035310 -0.040737 0.084614 -0.167193 -0.964530 0.204278
-0.011782 -0.042409 0.052055 -0.148600 -0.987270 -0.056712
-0.001018 -0.044030 0.052071 -0.148600 -0.987270 -0.056712
-0.035310 -0.040737 0.084614 -0.148600 -0.987270 -0.056712
0.002013 -0.043828 0.096804 0.080175 -0.996780 -0.000931
-0.001018 -0.044030 0.052071 0.080175 -0.996780 -0.000931
0.008517 -0.043263 0.052105 0.080175 -0.996780 -0.000931
0.008517 -0.043263 0.052105 0.306319 -0.951929 -0.000942
0.018262 -0.040127 0.052101 0.306319 -0.951929 -0.000942
0.014976 -0.041228 0.096841 0.306319 -0.951929 -0.000942
0.002013 -0.043828 0.096804 0.005143 -0.999978 0.004168
-0.002608 -0.043852 0.096674 0.005143 -0.999978 0.004168
-0.001018 -0.044030 0.052071 0.005143 -0.999978 0.004168
-0.011197 -0.042299 0.096978 -0.082067 -0.608045 0.789650
-0.002608 -0.043852 0.096674 -0.082067 -0.608045 0.789650
-0.005273 -0.030338 0.106803 -0.082067 -0.608045 0.789650
0.006889 -0.029908 0.106800 0.228307 -0.546064 0.806034
0.014976 -0.041228 0.096841 0.228307 -0.546064 0.806034
0.015969 -0.026112 0.106800 0.228307 -0.546064 0.806034
0.014976 -0.041228 0.096841 0.263143 -0.542785 0.797584
0.021530 -0.038274 0.096689 0.263143 -0.542785 0.797584
0.015969 -0.026112 0.106800 0.263143 -0.542785 0.797584
0.018262 -0.040127 0.052101 0.411089 -0.911562 0.007746
0.021530 -0.038274 0.096689 0.411089 -0.911562 0.007746
0.014976 -0.041228 0.096841 0.411089 -0.911562 0.007746
0.080360 0.039083 0.092514 0.754710 0.589808 0.287296
0.073059 0.050352 0.088556 0.754710 0.589808 0.287296
0.072620 0.048678 0.093146 0.754710 0.589808 0.287296
0.080879 0.037306 0.090443 0.985705 -0.168453 0.003032
0.080795 0.036670 0.082324 0.985705 -0.168453 0.003032
0.081306 0.039723 0.085821 0.985705 -0.168453 0.003032
-0.000489 0.030825 0.106800 0.065272 0.175973 0.982229
0.022050 0.022362 0.106818 0.065272 0.175973 0.982229
0.035256 0.077529 0.096057 0.065272 0.175973 0.982229
0.031087 -0.001497 0.106799 0.175549 0.065704 0.982276
0.077637 0.035709 0.095991 0.175549 0.065704 0.982276
0.022050 0.022362 0.106818 0.175549 0.065704 0.982276
0.015969 -0.026112 0.106800 0.331682 -0.508816 0.794414
0.021530 -0.038274 0.096689 0.331682 -0.508816 0.794414
0.027071 -0.034540 0.096768 0.331682 -0.508816 0.794414
0.031087 -0.001497 0.106799 0.314293 -0.119657 0.941755
0.024465 -0.018590 0.106837 0.314293 -0.119657 0.941755
0.077637 0.035709 0.095991 0.314293 -0.119657 0.941755
0.040587 -0.017237 0.052040 0.678111 -0.158719 -0.717617
0.043768 -0.003468 0.052000 0.678111 -0.158719 -0.717617
0.079328 0.037021 0.076647 0.678111 -0.158719 -0.717617
0.036947 0.079381 0.076667 -0.123878 0.655644 -0.744839
-0.002946 0.043820 0.052000 -0.123878 0.655644 -0.744839
-0.013272 0.041875 0.052005 -0.123878 0.655644 -0.744839
0.036947 0.079381 0.076667 -0.358307 0.798190 -0.484261
-0.013272 0.041875 0.052005 -0.358307 0.798190 -0.484261
-0.023201 0.037467 0.052086 -0.358307 0.798190 -0.484261
-0.027495 0.034204 0.096755 -0.597608 0.801788 0.001115
-0.023201 0.037467 0.052086 -0.597608 0.801788 0.001115
-0.028757 0.033326 0.052110 -0.597608 0.801788 0.001115
0.035179 0.079449 0.093829 -0.265145 0.947805 0.177101
0.038180 0.080477 0.092822 -0.265145 0.947805 0.177101
0.037544 0.080963 0.089269 -0.265145 0.947805 0.177101
0.079328 0.037021 0.076647 0.417545 0.247808 -0.874212
0.042535 0.012075 0.052002 0.417545 0.247808 -0.874212
0.031151 0.031215 0.051991 0.417545 0.247808 -0.874212
0.031151 0.031215 0.051991 0.402894 0.311537 -0.860593
0.072974 0.047059 0.077306 0.402894 0.311537 -0.860593
0.079328 0.037021 0.076647 0.402894 0.311537 -0.860593
-0.028507 0.011434 0.106802 -0.575731 0.085452 0.813161
-0.042960 0.009041 0.096820 -0.575731 0.085452 0.813161
-0.030755 -0.003739 0.106804 -0.575731 0.085452 0.813161
-0.037894 -0.037990 0.089726 -0.702390 -0.711269 0.027296
-0.039666 -0.036274 0.088832 -0.702390 -0.711269 0.027296
-0.035310 -0.040737 0.084614 -0.702390 -0.711269 0.027296
-0.037013 -0.023885 0.052071 -0.894178 -0.380083 -0.236607
-0.040712 -0.035504 0.084714 -0.894178 -0.380083 -0.236607
-0.042725 -0.010443 0.052064 -0.894178 -0.380083 -0.236607
-0.011782 -0.042409 0.052055 -0.373888 -0.900020 -0.223993
-0.035310 -0.040737 0.084614 -0.373888 -0.900020 -0.223993
-0.021465 -0.038373 0.052004 -0.373888 -0.900020 -0.223993
-0.030755 -0.003739 0.106804 0.000152 -0.000072 1.000000
-0.023894 -0.019354 0.106802 0.000152 -0.000072 1.000000
-0.015706 -0.026250 0.106801 0.000152 -0.000072 1.000000
-0.023894 -0.019354 0.106802 -0.498617 -0.351475 0.792367
-0.039005 -0.018734 0.097569 -0.498617 -0.351475 0.792367
-0.037894 -0.037990 0.089726 -0.498617 -0.351475 0.792367
-0.023894 -0.019354 0.106802 -0.514647 -0.226241 0.827015
-0.030755 -0.003739 0.106804 -0.514647 -0.226241 0.827015
-0.039005 -0.018734 0.097569 -0.514647 -0.226241 0.827015
-0.011197 -0.042299 0.096978 -0.278439 -0.721667 0.633773
-0.019961 -0.038751 0.097167 -0.278439 -0.721667 0.633773
-0.036427 -0.039501 0.089079 -0.278439 -0.721667 0.633773
0.080879 0.037306 0.090443 0.959046 -0.045735 0.279533
0.080360 0.039083 0.092514 0.959046 -0.045735 0.279533
0.079799 0.037061 0.094108 0.959046 -0.045735 0.279533
0.035256 0.077529 0.096057 -0.074198 0.277135 0.957962
-0.014643 0.026963 0.106821 -0.074198 0.277135 0.957962
-0.000489 0.030825 0.106800 -0.074198 0.277135 0.957962
0.077096 0.045216 0.082172 0.768814 0.575575 -0.278636
0.080874 0.039108 0.079979 0.768814 0.575575 -0.278636
0.074201 0.047868 0.079664 0.768814 0.575575 -0.278636
0.064352 0.057963 0.078304 0.643183 0.556718 -0.525719
0.074201 0.047868 0.079664 0.643183 0.556718 -0.525719
0.072974 0.047059 0.077306 0.643183 0.556718 -0.525719
0.055083 0.067465 0.092770 0.557614 0.704501 0.439026
0.046695 0.075455 0.090601 0.557614 0.704501 0.439026
0.038972 0.079642 0.093692 0.557614 0.704501 0.439026
0.038972 0.079642 0.093692 0.515733 0.639134 0.570550
0.049938 0.069712 0.094904 0.515733 0.639134 0.570550
0.055083 0.067465 0.092770 0.515733 0.639134 0.570550
0.079799 0.037061 0.094108 0.692803 -0.116420 0.711668
0.077637 0.035709 0.095991 0.692803 -0.116420 0.711668
0.079071 0.035077 0.094492 0.692803 -0.116420 0.711668
0.077637 0.035709 0.095991 0.159543 0.129437 0.978668
0.062302 0.055877 0.095824 0.159543 0.129437 0.978668
0.022050 0.022362 0.106818 0.159543 0.129437 0.978668
0.038152 0.080493 0.078362 0.533285 0.754323 -0.382890
0.039656 0.081087 0.081628 0.533285 0.754323 -0.382890
0.045758 0.075136 0.078404 0.533285 0.754323 -0.382890
0.013710 0.042013 0.052003 0.256958 0.415985 -0.872312
0.036947 0.079381 0.076667 0.256958 0.415985 -0.872312
0.031151 0.031215 0.051991 0.256958 0.415985 -0.872312
0.036947 0.079381 0.076667 0.303519 0.405272 -0.862340
0.049675 0.069796 0.076643 0.303519 0.405272 -0.862340
0.031151 0.031215 0.051991 0.303519 0.405272 -0.862340
0.063813 0.055812 0.076442 0.394863 0.328562 -0.857980
0.072974 0.047059 0.077306 0.394863 0.328562 -0.857980
0.031151 0.031215 0.051991 0.394863 0.328562 -0.857980
0.036935 0.078982 0.095029 -0.120823 0.852063 0.509303
0.038180 0.080477 0.092822 -0.120823 0.852063 0.509303
0.035179 0.079449 0.093829 -0.120823 0.852063 0.509303
0.049938 0.069712 0.094904 0.359639 0.493762 0.791744
0.038972 0.079642 0.093692 0.359639 0.493762 0.791744
0.036935 0.078982 0.095029 0.359639 0.493762 0.791744
0.049938 0.069712 0.094904 0.254739 0.345120 0.903327
0.036935 0.078982 0.095029 0.254739 0.345120 0.903327
0.035256 0.077529 0.096057 0.254739 0.345120 0.903327
0.035256 0.077529 0.096057 -0.241211 0.730916 0.638420
0.036935 0.078982 0.095029 -0.241211 0.730916 0.638420
0.035179 0.079449 0.093829 -0.241211 0.730916 0.638420
-0.027495 0.034204 0.096755 -0.453963 0.667025 0.590758
0.035256 0.077529 0.096057 -0.453963 0.667025 0.590758
0.035179 0.079449 0.093829 -0.453963 0.667025 0.590758
-0.028757 0.033326 0.052110 -0.676639 0.736301 0.004638
-0.031876 0.030179 0.096708 -0.676639 0.736301 0.004638
-0.027495 0.034204 0.096755 -0.676639 0.736301 0.004638
-0.042960 0.009041 0.096820 -0.990016 0.140862 0.005158
-0.043266 0.008526 0.052097 -0.990016 0.140862 0.005158
-0.043904 0.002414 0.096649 -0.990016 0.140862 0.005158
-0.042960 0.009041 0.096820 -0.591262 0.063449 0.803980
-0.043904 0.002414 0.096649 -0.591262 0.063449 0.803980
-0.030755 -0.003739 0.106804 -0.591262 0.063449 0.803980
-0.039666 -0.036274 0.088832 -0.694801 -0.717962 0.042213
-0.040712 -0.035504 0.084714 -0.694801 -0.717962 0.042213
-0.035310 -0.040737 0.084614 -0.694801 -0.717962 0.042213
-0.044035 -0.001620 0.052074 -0.997137 0.075512 -0.003908
-0.043904 0.002414 0.096649 -0.997137 0.075512 -0.003908
-0.043266 0.008526 0.052097 -0.997137 0.075512 -0.003908
-0.040712 -0.035504 0.084714 -0.728100 -0.615551 -0.301607
-0.037013 -0.023885 0.052071 -0.728100 -0.615551 -0.301607
-0.029975 -0.032195 0.052039 -0.728100 -0.615551 -0.301607
-0.044035 -0.001620 0.052074 -0.987855 -0.146564 -0.051587
-0.042725 -0.010443 0.052064 -0.987855 -0.146564 -0.051587
-0.040712 -0.035504 0.084714 -0.987855 -0.146564 -0.051587
-0.029975 -0.032195 0.052039 -0.562230 -0.772679 -0.294727
-0.021465 -0.038373 0.052004 -0.562230 -0.772679 -0.294727
-0.035310 -0.040737 0.084614 -0.562230 -0.772679 -0.294727
-0.005273 -0.030338 0.106803 -0.208195 -0.557235 0.803831
-0.019961 -0.038751 0.097167 -0.208195 -0.557235 0.803831
-0.011197 -0.042299 0.096978 -0.208195 -0.557235 0.803831
-0.015706 -0.026250 0.106801 -0.215358 -0.549028 0.807582
-0.019961 -0.038751 0.097167 -0.215358 -0.549028 0.807582
-0.005273 -0.030338 0.106803 -0.215358 -0.549028 0.807582
-0.039005 -0.018734 0.097569 -0.653794 -0.317457 0.686858
-0.039666 -0.036274 0.088832 -0.653794 -0.317457 0.686858
-0.037894 -0.037990 0.089726 -0.653794 -0.317457 0.686858
0.008517 -0.043263 0.052105 0.279055 -0.960269 0.003374
0.014976 -0.041228 0.096841 0.279055 -0.960269 0.003374
0.008366 -0.043150 0.096608 0.279055 -0.960269 0.003374
0.008517 -0.043263 0.052105 0.106124 -0.994349 0.002875
0.008366 -0.043150 0.096608 0.106124 -0.994349 0.002875
0.002013 -0.043828 0.096804 0.106124 -0.994349 0.002875
0.002013 -0.043828 0.096804 -0.019276 -0.602073 0.798208
-0.005273 -0.030338 0.106803 -0.019276 -0.602073 0.798208
-0.002608 -0.043852 0.096674 -0.019276 -0.602073 0.798208
0.080360 0.039083 0.092514 0.799308 0.576889 0.168243
0.081306 0.039723 0.085821 0.799308 0.576889 0.168243
0.073059 0.050352 0.088556 0.799308 0.576889 0.168243
0.072620 0.048678 0.093146 0.556410 0.445132 0.701616
0.066782 0.054021 0.094387 0.556410 0.445132 0.701616
0.078953 0.038309 0.094703 0.556410 0.445132 0.701616
0.081306 0.039723 0.085821 0.824662 0.552898 -0.119316
0.080874 0.039108 0.079979 0.824662 0.552898 -0.119316
0.077096 0.045216 0.082172 0.824662 0.552898 -0.119316
0.077637 0.035709 0.095991 0.345623 0.270270 0.898610
0.078953 0.038309 0.094703 0.345623 0.270270 0.898610
0.062302 0.055877 0.095824 0.345623 0.270270 0.898610
0.040587 -0.017237 0.052040 0.833852 -0.498727 -0.236563
0.080019 0.036309 0.078146 0.833852 -0.498727 -0.236563
0.034635 -0.027228 0.052124 0.833852 -0.498727 -0.236563
0.080874 0.039108 0.079979 0.968374 -0.188469 -0.163498
0.080795 0.036670 0.082324 0.968374 -0.188469 -0.163498
0.080019 0.036309 0.078146 0.968374 -0.188469 -0.163498
0.081306 0.039723 0.085821 0.993596 -0.093300 -0.063732
0.080795 0.036670 0.082324 0.993596 -0.093300 -0.063732
0.080874 0.039108 0.079979 0.993596 -0.093300 -0.063732
0.079328 0.037021 0.076647 0.789006 -0.327644 -0.519730
0.080019 0.036309 0.078146 0.789006 -0.327644 -0.519730
0.040587 -0.017237 0.052040 0.789006 -0.327644 -0.519730
0.054765 0.067923 0.079098 0.649618 0.655970 -0.384318
0.065141 0.059106 0.081589 0.649618 0.655970 -0.384318
0.064352 0.057963 0.078304 0.649618 0.655970 -0.384318
0.054765 0.067923 0.079098 0.659148 0.693791 -0.290135
0.054797 0.069278 0.082413 0.659148 0.693791 -0.290135
0.065141 0.059106 0.081589 0.659148 0.693791 -0.290135
0.055083 0.067465 0.092770 0.673709 0.688275 0.269062
0.067045 0.056241 0.091529 0.673709 0.688275 0.269062
0.058682 0.065670 0.088348 0.673709 0.688275 0.269062
0.033384 -0.028652 0.096679 0.417316 -0.435414 0.797660
0.024465 -0.018590 0.106837 0.417316 -0.435414 0.797660
0.027071 -0.034540 0.096768 0.417316 -0.435414 0.797660
0.072620 0.048678 0.093146 0.648210 0.484096 0.587771
0.078953 0.038309 0.094703 0.648210 0.484096 0.587771
0.080360 0.039083 0.092514 0.648210 0.484096 0.587771
0.038180 0.080477 0.092822 -0.081115 0.985455 0.149330
0.039355 0.081097 0.089372 -0.081115 0.985455 0.149330
0.037544 0.080963 0.089269 -0.081115 0.985455 0.149330
-0.027495 0.034204 0.096755 -0.587210 0.809430 0.002672
0.035347 0.079851 0.079387 -0.587210 0.809430 0.002672
-0.023201 0.037467 0.052086 -0.587210 0.809430 0.002672
0.035179 0.079449 0.093829 -0.584773 0.811044 0.015733
0.035347 0.079851 0.079387 -0.584773 0.811044 0.015733
-0.027495 0.034204 0.096755 -0.584773 0.811044 0.015733
0.035179 0.079449 0.093829 -0.514321 0.857412 0.017846
0.037544 0.080963 0.089269 -0.514321 0.857412 0.017846
0.035347 0.079851 0.079387 -0.514321 0.857412 0.017846
0.035256 0.077529 0.096057 -0.338801 0.503513 0.794788
-0.027495 0.034204 0.096755 -0.338801 0.503513 0.794788
-0.014643 0.026963 0.106821 -0.338801 0.503513 0.794788
-0.034473 0.027532 0.052108 -0.711877 0.702305 -0.000226
-0.031876 0.030179 0.096708 -0.711877 0.702305 -0.000226
-0.028757 0.033326 0.052110 -0.711877 0.702305 -0.000226
-0.034473 0.027532 0.052108 -0.772705 0.634723 0.007327
-0.036570 0.024466 0.096558 -0.772705 0.634723 0.007327
-0.031876 0.030179 0.096708 -0.772705 0.634723 0.007327
-0.040038 0.018477 0.052095 -0.851941 0.523622 -0.004075
-0.036570 0.024466 0.096558 -0.851941 0.523622 -0.004075
-0.034473 0.027532 0.052108 -0.851941 0.523622 -0.004075
-0.043358 -0.006639 0.096822 -0.789518 -0.249513 0.560718
-0.039666 -0.036274 0.088832 -0.789518 -0.249513 0.560718
-0.039005 -0.018734 0.097569 -0.789518 -0.249513 0.560718
-0.023894 -0.019354 0.106802 -0.380961 -0.452586 0.806248
-0.037894 -0.037990 0.089726 -0.380961 -0.452586 0.806248
-0.015706 -0.026250 0.106801 -0.380961 -0.452586 0.806248
-0.019961 -0.038751 0.097167 -0.323010 -0.619950 0.715071
-0.037894 -0.037990 0.089726 -0.323010 -0.619950 0.715071
-0.036427 -0.039501 0.089079 -0.323010 -0.619950 0.715071
-0.037894 -0.037990 0.089726 -0.351085 -0.493638 0.795651
-0.019961 -0.038751 0.097167 -0.351085 -0.493638 0.795651
-0.015706 -0.026250 0.106801 -0.351085 -0.493638 0.795651
0.006889 -0.029908 0.106800 0.088680 -0.601328 0.794066
0.002013 -0.043828 0.096804 0.088680 -0.601328 0.794066
0.008366 -0.043150 0.096608 0.088680 -0.601328 0.794066
0.024465 -0.018590 0.106837 0.003877 -0.009266 0.999950
0.006889 -0.029908 0.106800 0.003877 -0.009266 0.999950
0.015969 -0.026112 0.106800 0.003877 -0.009266 0.999950
-0.005273 -0.030338 0.106803 0.000198 0.001209 0.999999
0.006889 -0.029908 0.106800 0.000198 0.001209 0.999999
-0.015706 -0.026250 0.106801 0.000198 0.001209 0.999999
0.031087 -0.001497 0.106799 -0.004702 0.004056 0.999981
0.006889 -0.029908 0.106800 -0.004702 0.004056 0.999981
0.024465 -0.018590 0.106837 -0.004702 0.004056 0.999981
-0.015706 -0.026250 0.106801 -0.000029 -0.000193 1.000000
0.006889 -0.029908 0.106800 -0.000029 -0.000193 1.000000
-0.030755 -0.003739 0.106804 -0.000029 -0.000193 1.000000
0.006889 -0.029908 0.106800 0.020958 -0.588023 0.808572
-0.005273 -0.030338 0.106803 0.020958 -0.588023 0.808572
0.002013 -0.043828 0.096804 0.020958 -0.588023 0.808572
0.027746 -0.034283 0.052052 0.524557 -0.851370 -0.003070
0.021530 -0.038274 0.096689 0.524557 -0.851370 -0.003070
0.018262 -0.040127 0.052101 0.524557 -0.851370 -0.003070
0.027071 -0.034540 0.096768 0.558865 -0.829250 0.003686
0.021530 -0.038274 0.096689 0.558865 -0.829250 0.003686
0.027746 -0.034283 0.052052 0.558865 -0.829250 0.003686
0.080879 0.037306 0.090443 0.982328 0.112403 0.149659
0.081306 0.039723 0.085821 0.982328 0.112403 0.149659
0.080360 0.039083 0.092514 0.982328 0.112403 0.149659
0.080879 0.037306 0.090443 0.923112 -0.289895 0.252638
0.079799 0.037061 0.094108 0.923112 -0.289895 0.252638
0.079071 0.035077 0.094492 0.923112 -0.289895 0.252638
0.062302 0.055877 0.095824 0.434440 0.440496 0.785637
0.066782 0.054021 0.094387 0.434440 0.440496 0.785637
0.049938 0.069712 0.094904 0.434440 0.440496 0.785637
0.080019 0.036309 0.078146 0.829220 -0.548678 -0.106520
0.080795 0.036670 0.082324 0.829220 -0.548678 -0.106520
0.034635 -0.027228 0.052124 0.829220 -0.548678 -0.106520
0.065141 0.059106 0.081589 0.687034 0.619066 -0.380449
0.074201 0.047868 0.079664 0.687034 0.619066 -0.380449
0.064352 0.057963 0.078304 0.687034 0.619066 -0.380449
0.074201 0.047868 0.079664 0.747936 0.635711 -0.190953
0.065141 0.059106 0.081589 0.747936 0.635711 -0.190953
0.077096 0.045216 0.082172 0.747936 0.635711 -0.190953
0.067045 0.056241 0.091529 0.738896 0.607202 0.292127
0.072620 0.048678 0.093146 0.738896 0.607202 0.292127
0.073059 0.050352 0.088556 0.738896 0.607202 0.292127
0.049938 0.069712 0.094904 0.205914 0.246998 0.946885
0.035256 0.077529 0.096057 0.205914 0.246998 0.946885
0.062302 0.055877 0.095824 0.205914 0.246998 0.946885
0.063813 0.055812 0.076442 0.484460 0.500093 -0.717778
0.049675 0.069796 0.076643 0.484460 0.500093 -0.717778
0.064352 0.057963 0.078304 0.484460 0.500093 -0.717778
0.064352 0.057963 0.078304 0.518346 0.551087 -0.653927
0.049675 0.069796 0.076643 0.518346 0.551087 -0.653927
0.054765 0.067923 0.079098 0.518346 0.551087 -0.653927
0.054765 0.067923 0.079098 0.516865 0.585152 -0.624859
0.049675 0.069796 0.076643 0.516865 0.585152 -0.624859
0.045758 0.075136 0.078404 0.516865 0.585152 -0.624859
0.054765 0.067923 0.079098 0.609562 0.731665 -0.305123
0.045758 0.075136 0.078404 0.609562 0.731665 -0.305123
0.054797 0.069278 0.082413 0.609562 0.731665 -0.305123
0.039656 0.081087 0.081628 0.602932 0.756137 -0.254419
0.054797 0.069278 0.082413 0.602932 0.756137 -0.254419
0.045758 0.075136 0.078404 0.602932 0.756137 -0.254419
0.055083 0.067465 0.092770 0.641207 0.733923 0.224077
0.058682 0.065670 0.088348 0.641207 0.733923 0.224077
0.046695 0.075455 0.090601 0.641207 0.733923 0.224077
0.039986 0.081187 0.085767 0.635667 0.771285 0.032363
0.046695 0.075455 0.090601 0.635667 0.771285 0.032363
0.058682 0.065670 0.088348 0.635667 0.771285 0.032363
0.039986 0.081187 0.085767 0.633199 0.772046 0.054818
0.058682 0.065670 0.088348 0.633199 0.772046 0.054818
0.054797 0.069278 0.082413 0.633199 0.772046 0.054818
0.054797 0.069278 0.082413 0.615767 0.784981 -0.068085
0.039656 0.081087 0.081628 0.615767 0.784981 -0.068085
0.039986 0.081187 0.085767 0.615767 0.784981 -0.068085
-0.042960 0.009041 0.096820 -0.579013 0.183797 0.794332
-0.028507 0.011434 0.106802 -0.579013 0.183797 0.794332
-0.040085 0.017738 0.096903 -0.579013 0.183797 0.794332
0.078953 0.038309 0.094703 0.773551 0.245855 0.584101
0.079799 0.037061 0.094108 0.773551 0.245855 0.584101
0.080360 0.039083 0.092514 0.773551 0.245855 0.584101
-0.023201 0.037467 0.052086 -0.415528 0.823198 -0.386886
0.035347 0.079851 0.079387 -0.415528 0.823198 -0.386886
0.036947 0.079381 0.076667 -0.415528 0.823198 -0.386886
0.035347 0.079851 0.079387 -0.327309 0.879774 -0.344770
0.038152 0.080493 0.078362 -0.327309 0.879774 -0.344770
0.036947 0.079381 0.076667 -0.327309 0.879774 -0.344770
0.038152 0.080493 0.078362 -0.056028 0.986534 -0.153661
0.037848 0.081131 0.082568 -0.056028 0.986534 -0.153661
0.039656 0.081087 0.081628 -0.056028 0.986534 -0.153661
0.037848 0.081131 0.082568 -0.457031 0.889449 0.001505
0.035347 0.079851 0.079387 -0.457031 0.889449 0.001505
0.037544 0.080963 0.089269 -0.457031 0.889449 0.001505
0.031151 0.031215 0.051991 0.358247 0.374461 -0.855242
0.049675 0.069796 0.076643 0.358247 0.374461 -0.855242
0.063813 0.055812 0.076442 0.358247 0.374461 -0.855242
-0.036570 0.024466 0.096558 -0.886157 0.463336 0.006712
-0.040038 0.018477 0.052095 -0.886157 0.463336 0.006712
-0.040085 0.017738 0.096903 -0.886157 0.463336 0.006712
-0.043358 -0.006639 0.096822 -0.961392 -0.176636 0.211009
-0.040712 -0.035504 0.084714 -0.961392 -0.176636 0.211009
-0.039666 -0.036274 0.088832 -0.961392 -0.176636 0.211009
-0.043358 -0.006639 0.096822 -0.589234 -0.163209 0.791306
-0.039005 -0.018734 0.097569 -0.589234 -0.163209 0.791306
-0.030755 -0.003739 0.106804 -0.589234 -0.163209 0.791306
-0.043904 0.002414 0.096649 -0.617607 -0.022232 0.786172
-0.043358 -0.006639 0.096822 -0.617607 -0.022232 0.786172
-0.030755 -0.003739 0.106804 -0.617607 -0.022232 0.786172
0.072620 0.048678 0.093146 0.637666 0.578810 0.508293
0.067045 0.056241 0.091529 0.637666 0.578810 0.508293
0.066782 0.054021 0.094387 0.637666 0.578810 0.508293
0.055083 0.067465 0.092770 0.612834 0.595741 0.519160
0.066782 0.054021 0.094387 0.612834 0.595741 0.519160
0.067045 0.056241 0.091529 0.612834 0.595741 0.519160
0.078953 0.038309 0.094703 0.410815 0.335300 0.847823
0.066782 0.054021 0.094387 0.410815 0.335300 0.847823
0.062302 0.055877 0.095824 0.410815 0.335300 0.847823
0.054797 0.069278 0.082413 0.699972 0.713756 -0.024309
0.058682 0.065670 0.088348 0.699972 0.713756 -0.024309
0.065141 0.059106 0.081589 0.699972 0.713756 -0.024309
0.077096 0.045216 0.082172 0.791043 0.611709 0.007994
0.073059 0.050352 0.088556 0.791043 0.611709 0.007994
0.081306 0.039723 0.085821 0.791043 0.611709 0.007994
0.073059 0.050352 0.088556 0.723478 0.680619 0.115489
0.058682 0.065670 0.088348 0.723478 0.680619 0.115489
0.067045 0.056241 0.091529 0.723478 0.680619 0.115489
0.065141 0.059106 0.081589 0.758105 0.650635 -0.044155
0.073059 0.050352 0.088556 0.758105 0.650635 -0.044155
0.077096 0.045216 0.082172 0.758105 0.650635 -0.044155
0.036947 0.079381 0.076667 0.420661 0.592045 -0.687406
0.038152 0.080493 0.078362 0.420661 0.592045 -0.687406
0.045758 0.075136 0.078404 0.420661 0.592045 -0.687406
0.046695 0.075455 0.090601 0.591663 0.796665 0.123530
0.039986 0.081187 0.085767 0.591663 0.796665 0.123530
0.039355 0.081097 0.089372 0.591663 0.796665 0.123530
-0.031876 0.030179 0.096708 -0.479539 0.373285 0.794167
-0.036570 0.024466 0.096558 -0.479539 0.373285 0.794167
-0.022532 0.020709 0.106800 -0.479539 0.373285 0.794167
-0.040085 0.017738 0.096903 -0.514687 0.309923 0.799403
-0.028507 0.011434 0.106802 -0.514687 0.309923 0.799403
-0.036570 0.024466 0.096558 -0.514687 0.309923 0.799403
-0.022532 0.020709 0.106800 -0.500147 0.322314 0.803720
-0.036570 0.024466 0.096558 -0.500147 0.322314 0.803720
-0.028507 0.011434 0.106802 -0.500147 0.322314 0.803720
0.037848 0.081131 0.082568 -0.074680 0.996975 0.021533
0.037544 0.080963 0.089269 -0.074680 0.996975 0.021533
0.039355 0.081097 0.089372 -0.074680 0.996975 0.021533
0.049675 0.069796 0.076643 0.405647 0.540574 -0.737042
0.036947 0.079381 0.076667 0.405647 0.540574 -0.737042
0.045758 0.075136 0.078404 0.405647 0.540574 -0.737042
0.080019 0.036309 0.078146 0.907630 -0.002115 -0.419766
0.079328 0.037021 0.076647 0.907630 -0.002115 -0.419766
0.080874 0.039108 0.079979 0.907630 -0.002115 -0.419766
0.079328 0.037021 0.076647 0.905483 0.006763 -0.424329
0.079836 0.038627 0.077757 0.905483 0.006763 -0.424329
0.080874 0.039108 0.079979 0.905483 0.006763 -0.424329
0.072974 0.047059 0.077306 0.510142 0.373774 -0.774628
0.079836 0.038627 0.077757 0.510142 0.373774 -0.774628
0.079328 0.037021 0.076647 0.510142 0.373774 -0.774628
0.036935 0.078982 0.095029 0.148952 0.777548 0.610927
0.038972 0.079642 0.093692 0.148952 0.777548 0.610927
0.038180 0.080477 0.092822 0.148952 0.777548 0.610927
0.046695 0.075455 0.090601 0.540487 0.796159 0.272038
0.038180 0.080477 0.092822 0.540487 0.796159 0.272038
0.038972 0.079642 0.093692 0.540487 0.796159 0.272038
0.039355 0.081097 0.089372 0.541858 0.775535 0.323938
0.038180 0.080477 0.092822 0.541858 0.775535 0.323938
0.046695 0.075455 0.090601 0.541858 0.775535 0.323938
-0.027495 0.034204 0.096755 -0.369556 0.463568 0.805315
-0.022532 0.020709 0.106800 -0.369556 0.463568 0.805315
-0.014643 0.026963 0.106821 -0.369556 0.463568 0.805315
0.014976 -0.041228 0.096841 0.144605 -0.593369 0.791835
0.006889 -0.029908 0.106800 0.144605 -0.593369 0.791835
0.008366 -0.043150 0.096608 0.144605 -0.593369 0.791835
0.039355 0.081097 0.089372 -0.050777 0.998578 0.016246
0.039986 0.081187 0.085767 -0.050777 0.998578 0.016246
0.037848 0.081131 0.082568 -0.050777 0.998578 0.016246
0.037848 0.081131 0.082568 0.011105 0.999623 -0.025116
0.039986 0.081187 0.085767 0.011105 0.999623 -0.025116
0.039656 0.081087 0.081628 0.011105 0.999623 -0.025116
0.038152 0.080493 0.078362 -0.276493 0.946991 -0.163584
0.035347 0.079851 0.079387 -0.276493 0.946991 -0.163584
0.037848 0.081131 0.082568 -0.276493 0.946991 -0.163584
0.072974 0.047059 0.077306 0.523876 0.478741 -0.704529
0.063813 0.055812 0.076442 0.523876 0.478741 -0.704529
0.064352 0.057963 0.078304 0.523876 0.478741 -0.704529
-0.031876 0.030179 0.096708 -0.413677 0.440839 0.796576
-0.022532 0.020709 0.106800 -0.413677 0.440839 0.796576
-0.027495 0.034204 0.096755 -0.413677 0.440839 0.796576
-0.040085 0.017738 0.096903 -0.949470 0.313828 0.004177
-0.040038 0.018477 0.052095 -0.949470 0.313828 0.004177
-0.042960 0.009041 0.096820 -0.949470 0.313828 0.004177
-0.043266 0.008526 0.052097 -0.951190 0.308591 0.002959
-0.042960 0.009041 0.096820 -0.951190 0.308591 0.002959
-0.040038 0.018477 0.052095 -0.951190 0.308591 0.002959
0.065141 0.059106 0.081589 0.728560 0.684250 0.031659
0.058682 0.065670 0.088348 0.728560 0.684250 0.031659
0.073059 0.050352 0.088556 0.728560 0.684250 0.031659
0.033384 -0.028652 0.096679 0.682073 -0.731258 0.006110
0.027071 -0.034540 0.096768 0.682073 -0.731258 0.006110
0.027746 -0.034283 0.052052 0.682073 -0.731258 0.006110
0.072974 0.047059 0.077306 0.672329 0.518930 -0.527907
0.074201 0.047868 0.079664 0.672329 0.518930 -0.527907
0.079836 0.038627 0.077757 0.672329 0.518930 -0.527907
0.080874 0.039108 0.079979 0.718110 0.530786 -0.450094
0.079836 0.038627 0.077757 0.718110 0.530786 -0.450094
0.074201 0.047868 0.079664 0.718110 0.530786 -0.450094
-0.043358 -0.006639 0.096822 -0.998159 -0.060067 0.008365
-0.043904 0.002414 0.096649 -0.998159 -0.060067 0.008365
-0.044035 -0.001620 0.052074 -0.998159 -0.060067 0.008365
-0.040712 -0.035504 0.084714 -0.995637 -0.093194 0.004611
-0.043358 -0.006639 0.096822 -0.995637 -0.093194 0.004611
-0.044035 -0.001620 0.052074 -0.995637 -0.093194 0.004611
-0.002946 0.043820 0.052000 0.000137 -0.000079 -1.000000
0.013710 0.042013 0.052003 0.000137 -0.000079 -1.000000
-0.021465 -0.038373 0.052004 0.000137 -0.000079 -1.000000
0.034635 -0.027228 0.052124 0.000138 0.010022 -0.999950
0.027746 -0.034283 0.052052 0.000138 0.010022 -0.999950
-0.021465 -0.038373 0.052004 0.000138 0.010022 -0.999950
0.031151 0.031215 0.051991 0.000317 -0.000436 -1.000000
0.042535 0.012075 0.052002 0.000317 -0.000436 -1.000000
-0.021465 -0.038373 0.052004 0.000317 -0.000436 -1.000000
0.043768 -0.003468 0.052000 -0.000124 0.000125 -1.000000
-0.021465 -0.038373 0.052004 -0.000124 0.000125 -1.000000
0.042535 0.012075 0.052002 -0.000124 0.000125 -1.000000
0.018262 -0.040127 0.052101 0.002093 -0.007850 -0.999967
0.008517 -0.043263 0.052105 0.002093 -0.007850 -0.999967
-0.021465 -0.038373 0.052004 0.002093 -0.007850 -0.999967
-0.037013 -0.023885 0.052071 -0.007975 -0.003941 -0.999960
-0.042725 -0.010443 0.052064 -0.007975 -0.003941 -0.999960
-0.021465 -0.038373 0.052004 -0.007975 -0.003941 -0.999960
-0.028757 0.033326 0.052110 -0.004979 0.000966 -0.999987
-0.023201 0.037467 0.052086 -0.004979 0.000966 -0.999987
-0.021465 -0.038373 0.052004 -0.004979 0.000966 -0.999987
-0.034473 0.027532 0.052108 -0.001116 0.001358 -0.999998
-0.028757 0.033326 0.052110 -0.001116 0.001358 -0.999998
-0.021465 -0.038373 0.052004 -0.001116 0.001358 -0.999998
-0.044035 -0.001620 0.052074 -0.001602 0.000910 -0.999998
-0.021465 -0.038373 0.052004 -0.001602 0.000910 -0.999998
-0.042725 -0.010443 0.052064 -0.001602 0.000910 -0.999998
-0.001018 -0.044030 0.052071 0.003522 0.000912 -0.999993
-0.021465 -0.038373 0.052004 0.003522 0.000912 -0.999993
0.008517 -0.043263 0.052105 0.003522 0.000912 -0.999993
0.027746 -0.034283 0.052052 0.001930 -0.011537 -0.999932
0.018262 -0.040127 0.052101 0.001930 -0.011537 -0.999932
-0.021465 -0.038373 0.052004 0.001930 -0.011537 -0.999932
-0.002946 0.043820 0.052000 -0.000468 0.000057 -1.000000
-0.021465 -0.038373 0.052004 -0.000468 0.000057 -1.000000
-0.013272 0.041875 0.052005 -0.000468 0.000057 -1.000000
0.031151 0.031215 0.051991 -0.000553 0.000222 -1.000000
-0.021465 -0.038373 0.052004 -0.000553 0.000222 -1.000000
0.013710 0.042013 0.052003 -0.000553 0.000222 -1.000000
-0.043266 0.008526 0.052097 0.000620 0.002274 -0.999997
-0.021465 -0.038373 0.052004 0.000620 0.002274 -0.999997
-0.044035 -0.001620 0.052074 0.000620 0.002274 -0.999997
-0.011782 -0.042409 0.052055 -0.000589 -0.013947 -0.999902
-0.021465 -0.038373 0.052004 -0.000589 -0.013947 -0.999902
-0.001018 -0.044030 0.052071 -0.000589 -0.013947 -0.999902
0.040587 -0.017237 0.052040 0.001695 -0.003274 -0.999993
-0.021465 -0.038373 0.052004 0.001695 -0.003274 -0.999993
0.043768 -0.003468 0.052000 0.001695 -0.003274 -0.999993
-0.013272 0.041875 0.052005 -0.008564 0.000884 -0.999963
-0.021465 -0.038373 0.052004 -0.008564 0.000884 -0.999963
-0.023201 0.037467 0.052086 -0.008564 0.000884 -0.999963
-0.040038 0.018477 0.052095 -0.000126 0.001554 -0.999999
-0.034473 0.027532 0.052108 -0.000126 0.001554 -0.999999
-0.021465 -0.038373 0.052004 -0.000126 0.001554 -0.999999
-0.037013 -0.023885 0.052071 -0.003366 0.001005 -0.999994
-0.021465 -0.038373 0.052004 -0.003366 0.001005 -0.999994
-0.029975 -0.032195 0.052039 -0.003366 0.001005 -0.999994
0.040587 -0.017237 0.052040 0.004299 -0.010920 -0.999931
0.034635 -0.027228 0.052124 0.004299 -0.010920 -0.999931
-0.021465 -0.038373 0.052004 0.004299 -0.010920 -0.999931
-0.043266 0.008526 0.052097 -0.002830 0.000671 -0.999996
-0.040038 0.018477 0.052095 -0.002830 0.000671 -0.999996
-0.021465 -0.038373 0.052004 -0.002830 0.000671 -0.999996
-0.000489 0.030825 0.106800 0.000040 0.000018 1.000000
0.006889 -0.029908 0.106800 0.000040 0.000018 1.000000
0.031087 -0.001497 0.106799 0.000040 0.000018 1.000000
-0.030755 -0.003739 0.106804 0.000125 0.000028 1.000000
0.006889 -0.029908 0.106800 0.000125 0.000028 1.000000
-0.000489 0.030825 0.106800 0.000125 0.000028 1.000000
3 0 1 2
3 3 4 5
3 6 7 8
3 9 10 11
3 12 13 14
3 15 16 17
3 18 19 20
3 21 22 23
3 24 25 26
3 27 28 29
3 30 31 32
3 33 34 35
3 36 37 38
3 39 40 41
3 42 43 44
3 45 46 47
3 48 49 50
3 51 52 53
3 54 55 56
3 57 58 59
3 60 61 62
3 63 64 65
3 66 67 68
3 69 70 71
3 72 73 74
3 75 76 77
3 78 79 80
3 81 82 83
3 84 85 86
3 87 88 89
3 90 91 92
3 93 94 95
3 96 97 98
3 99 100 101
3 102 103 104
3 105 106 107
3 108 109 110
3 111 112 113
3 114 115 116
3 117 118 119
3 120 121 122
3 123 124 125
3 126 127 128
3 129 130 131
3 132 133 134
3 135 136 137
3 138 139 140
3 141 142 143
3 144 145 146
3 147 148 149
3 150 151 152
3 153 154 155
3 156 157 158
3 159 160 161
3 162 163 164
3 165 166 167
3 168 169 170
3 171 172 173
3 174 175 176
3 177 178 179
3 180 181 182
3 183 184 185
3 186 187 188
3 189 190 191
3 192 193 194
3 195 196 197
3 198 199 200
3 201 202 203
3 204 205 206
3 207 208 209
3 210 211 212
3 213 214 215
3 216 217 218
3 219 220 221
3 222 223 224
3 225 226 227
3 228 229 230
3 231 232 233
3 234 235 236
3 237 238 239
3 240 241 242
3 243 244 245
3 246 247 248
3 249 250 251
3 252 253 254
3 255 256 257
3 258 259 260
3 261 262 263
3 264 265 266
3 267 268 269
3 270 271 272
3 273 274 275
3 276 277 278
3 279 280 281
3 282 283 284
3 285 286 287
3 288 289 290
3 291 292 293
3 294 295 296
3 297 298 299
3 300 301 302
3 303 304 305
3 306 307 308
3 309 310 311
3 312 313 314
3 315 316 317
3 318 319 320
3 321 322 323
3 324 325 326
3 327 328 329
3 330 331 332
3 333 334 335
3 336 337 338
3 339 340 341
3 342 343 344
3 345 346 347
3 348 349 350
3 351 352 353
3 354 355 356
3 357 358 359
3 360 361 362
3 363 364 365
3 366 367 368
3 369 370 371
3 372 373 374
3 375 376 377
3 378 379 380
3 381 382 383
3 384 385 386
3 387 388 389
3 390 391 392
3 393 394 395
3 396 397 398
3 399 400 401
3 402 403 404
3 405 406 407
3 408 409 410
3 411 412 413
3 414 415 416
3 417 418 419
3 420 421 422
3 423 424 425
3 426 427 428
3 429 430 431
3 432 433 434
3 435 436 437
3 438 439 440
3 441 442 443
3 444 445 446
3 447 448 449
3 450 451 452
3 453 454 455
3 456 457 458
3 459 460 461
3 462 463 464
3 465 466 467
3 468 469 470
3 471 472 473
3 474 475 476
3 477 478 479
3 480 481 482
3 483 484 485
3 486 487 488
3 489 490 491
3 492 493 494
3 495 496 497
3 498 499 500
3 501 502 503
3 504 505 506
3 507 508 509
3 510 511 512
3 513 514 515
3 516 517 518
3 519 520 521
3 522 523 524
3 525 526 527
3 528 529 530
3 531 532 533
3 534 535 536
3 537 538 539
3 540 541 542
3 543 544 545
3 546 547 548
3 549 550 551
3 552 553 554
3 555 556 557
3 558 559 560
3 561 562 563
3 564 565 566
3 567 568 569
3 570 571 572
3 573 574 575
3 576 577 578
3 579 580 581
3 582 583 584
3 585 586 587
3 588 589 590
3 591 592 593
3 594 595 596
3 597 598 599
