ply
format ascii 1.0
comment Created by Blender 2.79 (sub 0) - www.blender.org, source file: ''
element vertex 598
property float x
property float y
property float z
property float nx
property float ny
property float nz
element face 200
property list uchar uint vertex_indices
end_header
-0.001227 -0.094614 -0.000032 0.019010 -0.000023 -0.999819
0.071081 0.008446 0.001340 0.019010 -0.000023 -0.999819
0.071567 -0.001274 0.001349 0.019010 -0.000023 -0.999819
-0.000517 0.094670 -0.000006 0.018882 0.000067 -0.999822
0.071081 0.008446 0.001340 0.018882 0.000067 -0.999822
-0.001227 -0.094614 -0.000032 0.018882 0.000067 -0.999822
0.071567 -0.001274 0.001349 0.019134 -0.000120 -0.999817
0.070665 -0.011563 0.001333 0.019134 -0.000120 -0.999817
-0.001227 -0.094614 -0.000032 0.019134 -0.000120 -0.999817
-0.135131 -0.065871 0.007520 -0.518480 -0.850404 0.089395
-0.136305 -0.065946 0.000000 -0.518480 -0.850404 0.089395
-0.131625 -0.068799 -0.000001 -0.518480 -0.850404 0.089395
0.054335 -0.046949 0.001048 0.022284 -0.003315 -0.999746
-0.001227 -0.094614 -0.000032 0.022284 -0.003315 -0.999746
0.061945 -0.035979 0.001181 0.022284 -0.003315 -0.999746
-0.001227 -0.094614 -0.000032 0.020505 -0.001397 -0.999789
0.067359 -0.024527 0.001276 0.020505 -0.001397 -0.999789
0.061945 -0.035979 0.001181 0.020505 -0.001397 -0.999789
0.052652 -0.016356 0.140000 0.000001 -0.000006 1.000000
0.054855 0.004472 0.140000 0.000001 -0.000006 1.000000
-0.054967 0.003457 0.140000 0.000001 -0.000006 1.000000
0.039102 0.038749 0.140000 0.000001 -0.000006 1.000000
0.071081 0.008446 0.001340 0.991829 0.049719 0.117490
0.054855 0.004472 0.140000 0.991829 0.049719 0.117490
0.071567 -0.001274 0.001349 0.991829 0.049719 0.117490
0.007778 -0.091072 0.008462 0.692904 -0.711464 0.117060
0.054335 -0.046949 0.001048 0.692904 -0.711464 0.117060
0.039566 -0.038470 0.140003 0.692904 -0.711464 0.117060
-0.054967 0.003457 0.140000 0.000043 0.000036 1.000000
-0.029337 -0.046645 0.140001 0.000043 0.000036 1.000000
0.000349 -0.055082 0.140000 0.000043 0.000036 1.000000
0.068619 0.020818 0.001298 0.019328 0.000438 -0.999813
0.071081 0.008446 0.001340 0.019328 0.000438 -0.999813
-0.000517 0.094670 -0.000006 0.019328 0.000438 -0.999813
0.063587 0.032993 0.001210 0.019968 0.001037 -0.999800
0.068619 0.020818 0.001298 0.019968 0.001037 -0.999800
-0.000517 0.094670 -0.000006 0.019968 0.001037 -0.999800
0.052578 0.048771 0.001018 0.023284 0.004632 -0.999718
0.058590 0.041241 0.001123 0.023284 0.004632 -0.999718
-0.000517 0.094670 -0.000006 0.023284 0.004632 -0.999718
0.058590 0.041241 0.001123 0.021096 0.002211 -0.999775
0.063587 0.032993 0.001210 0.021096 0.002211 -0.999775
-0.000517 0.094670 -0.000006 0.021096 0.002211 -0.999775
-0.001227 -0.094614 -0.000032 0.019707 -0.000617 -0.999806
0.070665 -0.011563 0.001333 0.019707 -0.000617 -0.999806
0.067359 -0.024527 0.001276 0.019707 -0.000617 -0.999806
0.054855 0.004472 0.140000 0.000061 0.000022 1.000000
0.050948 0.020789 0.140000 0.000061 0.000022 1.000000
0.039102 0.038749 0.140000 0.000061 0.000022 1.000000
0.068619 0.020818 0.001298 0.917550 0.380023 0.116978
0.063587 0.032993 0.001210 0.917550 0.380023 0.116978
0.050948 0.020789 0.140000 0.917550 0.380023 0.116978
-0.021853 0.050685 0.140000 0.000038 -0.000019 1.000000
-0.031706 0.045010 0.140000 0.000038 -0.000019 1.000000
-0.054967 0.003457 0.140000 0.000038 -0.000019 1.000000
0.039102 0.038749 0.140000 -0.000007 0.000015 1.000000
0.031716 0.045051 0.140000 -0.000007 0.000015 1.000000
-0.054967 0.003457 0.140000 -0.000007 0.000015 1.000000
-0.054967 0.003457 0.140000 0.000007 0.000003 1.000000
0.004858 0.054958 0.140000 0.000007 0.000003 1.000000
-0.021853 0.050685 0.140000 0.000007 0.000003 1.000000
-0.008865 0.054359 0.140002 0.000250 -0.001511 0.999999
-0.021853 0.050685 0.140000 0.000250 -0.001511 0.999999
0.004858 0.054958 0.140000 0.000250 -0.001511 0.999999
0.027681 -0.047680 0.140000 -0.000100 -0.000161 1.000000
0.039566 -0.038470 0.140003 -0.000100 -0.000161 1.000000
-0.054967 0.003457 0.140000 -0.000100 -0.000161 1.000000
-0.054766 -0.005466 0.140000 0.000415 0.000023 1.000000
-0.052884 -0.015585 0.140000 0.000415 0.000023 1.000000
-0.054967 0.003457 0.140000 0.000415 0.000023 1.000000
-0.122615 0.005636 0.061149 -0.759018 -0.004367 0.651056
-0.122711 -0.006144 0.060957 -0.759018 -0.004367 0.651056
-0.054967 0.003457 0.140000 -0.759018 -0.004367 0.651056
-0.054967 0.003457 0.140000 -0.758153 -0.017040 0.651854
-0.122711 -0.006144 0.060957 -0.758153 -0.017040 0.651854
-0.054766 -0.005466 0.140000 -0.758153 -0.017040 0.651854
0.014370 -0.053249 0.139999 -0.000041 -0.000065 1.000000
0.027681 -0.047680 0.140000 -0.000041 -0.000065 1.000000
-0.054967 0.003457 0.140000 -0.000041 -0.000065 1.000000
0.000349 -0.055082 0.140000 0.000037 0.000030 1.000000
0.014370 -0.053249 0.139999 0.000037 0.000030 1.000000
-0.054967 0.003457 0.140000 0.000037 0.000030 1.000000
-0.071675 -0.075621 0.057520 -0.488489 -0.714003 0.501575
-0.029337 -0.046645 0.140001 -0.488489 -0.714003 0.501575
-0.111235 -0.047477 0.059055 -0.488489 -0.714003 0.501575
-0.136305 -0.065946 0.000000 -0.779928 -0.612675 0.127832
-0.135131 -0.065871 0.007520 -0.779928 -0.612675 0.127832
-0.137824 -0.062436 0.007553 -0.779928 -0.612675 0.127832
-0.133699 0.066932 0.007415 -0.656300 0.743770 0.126791
-0.135830 0.066315 0.000001 -0.656300 0.743770 0.126791
-0.136293 0.064617 0.007566 -0.656300 0.743770 0.126791
-0.131612 0.068847 0.000001 -0.513191 0.854867 0.076402
-0.135830 0.066315 0.000001 -0.513191 0.854867 0.076402
-0.133699 0.066932 0.007415 -0.513191 0.854867 0.076402
-0.000517 0.094670 -0.000006 0.143998 0.985550 0.089200
0.003172 0.093350 0.008631 0.143998 0.985550 0.089200
0.004086 0.093982 0.000171 0.143998 0.985550 0.089200
0.039566 -0.038470 0.140003 0.000066 0.000215 1.000000
0.047476 -0.027926 0.140000 0.000066 0.000215 1.000000
-0.054967 0.003457 0.140000 0.000066 0.000215 1.000000
0.054335 -0.046949 0.001048 0.794096 -0.595678 0.120749
0.047476 -0.027926 0.140000 0.794096 -0.595678 0.120749
0.039566 -0.038470 0.140003 0.794096 -0.595678 0.120749
0.061945 -0.035979 0.001181 0.815277 -0.566949 0.117862
0.047476 -0.027926 0.140000 0.815277 -0.566949 0.117862
0.054335 -0.046949 0.001048 0.815277 -0.566949 0.117862
-0.054967 0.003457 0.140000 0.000004 0.000011 1.000000
0.047476 -0.027926 0.140000 0.000004 0.000011 1.000000
0.052652 -0.016356 0.140000 0.000004 0.000011 1.000000
0.067359 -0.024527 0.001276 0.897326 -0.425249 0.118194
0.047476 -0.027926 0.140000 0.897326 -0.425249 0.118194
0.061945 -0.035979 0.001181 0.897326 -0.425249 0.118194
0.052652 -0.016356 0.140000 0.906239 -0.405390 0.119958
0.047476 -0.027926 0.140000 0.906239 -0.405390 0.119958
0.067359 -0.024527 0.001276 0.906239 -0.405390 0.119958
0.063587 0.032993 0.001210 0.848854 0.515506 0.117047
0.058590 0.041241 0.001123 0.848854 0.515506 0.117047
0.046247 0.030033 0.140000 0.848854 0.515506 0.117047
0.054855 0.004472 0.140000 0.992823 0.002423 0.119570
0.054877 -0.004566 0.140000 0.992823 0.002423 0.119570
0.071567 -0.001274 0.001349 0.992823 0.002423 0.119570
0.052652 -0.016356 0.140000 0.000115 -0.000018 1.000000
0.054877 -0.004566 0.140000 0.000115 -0.000018 1.000000
0.054855 0.004472 0.140000 0.000115 -0.000018 1.000000
-0.021853 0.050685 0.140000 -0.256878 0.907911 0.331228
-0.008865 0.054359 0.140002 -0.256878 0.907911 0.331228
-0.129159 0.068684 0.007445 -0.256878 0.907911 0.331228
-0.054967 0.003457 0.140000 -0.000041 0.000021 1.000000
-0.047704 0.027596 0.140000 -0.000041 0.000021 1.000000
-0.052861 0.015711 0.140000 -0.000041 0.000021 1.000000
0.020020 0.051446 0.139999 0.000016 -0.000007 1.000000
0.004858 0.054958 0.140000 0.000016 -0.000007 1.000000
-0.054967 0.003457 0.140000 0.000016 -0.000007 1.000000
0.031716 0.045051 0.140000 -0.000033 0.000069 1.000000
0.020020 0.051446 0.139999 -0.000033 0.000069 1.000000
-0.054967 0.003457 0.140000 -0.000033 0.000069 1.000000
0.006489 0.073519 0.081080 -0.041594 0.953296 0.299160
-0.008865 0.054359 0.140002 -0.041594 0.953296 0.299160
0.004858 0.054958 0.140000 -0.041594 0.953296 0.299160
0.054335 -0.046949 0.001048 0.033957 -0.016933 -0.999280
0.008268 -0.091825 0.000243 0.033957 -0.016933 -0.999280
-0.001227 -0.094614 -0.000032 0.033957 -0.016933 -0.999280
-0.052884 -0.015585 0.140000 -0.000088 -0.000032 1.000000
-0.046437 -0.029904 0.140000 -0.000088 -0.000032 1.000000
-0.054967 0.003457 0.140000 -0.000088 -0.000032 1.000000
-0.140043 0.060723 -0.000000 -0.795775 0.599473 0.085874
-0.136293 0.064617 0.007566 -0.795775 0.599473 0.085874
-0.135830 0.066315 0.000001 -0.795775 0.599473 0.085874
0.007694 0.092272 0.000234 0.423964 0.898605 0.112978
0.004086 0.093982 0.000171 0.423964 0.898605 0.112978
0.003172 0.093350 0.008631 0.423964 0.898605 0.112978
-0.000517 0.094670 -0.000006 0.047939 0.064076 -0.996793
0.004086 0.093982 0.000171 0.047939 0.064076 -0.996793
0.007694 0.092272 0.000234 0.047939 0.064076 -0.996793
-0.001599 0.093632 0.008492 0.054899 0.990258 0.127970
0.003172 0.093350 0.008631 0.054899 0.990258 0.127970
-0.000517 0.094670 -0.000006 0.054899 0.990258 0.127970
0.006489 0.073519 0.081080 0.049429 0.963916 0.261577
0.003172 0.093350 0.008631 0.049429 0.963916 0.261577
-0.001599 0.093632 0.008492 0.049429 0.963916 0.261577
0.007694 0.092272 0.000234 0.034407 0.017509 -0.999254
0.052578 0.048771 0.001018 0.034407 0.017509 -0.999254
-0.000517 0.094670 -0.000006 0.034407 0.017509 -0.999254
0.007694 0.092272 0.000234 0.691329 0.715168 0.102958
0.007344 0.091447 0.008318 0.691329 0.715168 0.102958
0.052578 0.048771 0.001018 0.691329 0.715168 0.102958
0.007344 0.091447 0.008318 0.691451 0.712649 0.118438
0.039102 0.038749 0.140000 0.691451 0.712649 0.118438
0.052578 0.048771 0.001018 0.691451 0.712649 0.118438
-0.148808 -0.042055 -0.000000 -0.973898 -0.213050 0.078315
-0.149244 -0.037186 0.007817 -0.973898 -0.213050 0.078315
-0.152578 -0.024818 0.000000 -0.973898 -0.213050 0.078315
0.050948 0.020789 0.140000 0.000078 0.000033 1.000000
0.046247 0.030033 0.140000 0.000078 0.000033 1.000000
0.039102 0.038749 0.140000 0.000078 0.000033 1.000000
0.050948 0.020789 0.140000 0.884938 0.449942 0.120157
0.063587 0.032993 0.001210 0.884938 0.449942 0.120157
0.046247 0.030033 0.140000 0.884938 0.449942 0.120157
0.054877 -0.004566 0.140000 0.989315 -0.086948 0.117026
0.070665 -0.011563 0.001333 0.989315 -0.086948 0.117026
0.071567 -0.001274 0.001349 0.989315 -0.086948 0.117026
0.070665 -0.011563 0.001333 0.962280 -0.245853 0.116503
0.052652 -0.016356 0.140000 0.962280 -0.245853 0.116503
0.067359 -0.024527 0.001276 0.962280 -0.245853 0.116503
-0.129159 0.068684 0.007445 -0.192564 0.977601 0.084945
-0.000517 0.094670 -0.000006 -0.192564 0.977601 0.084945
-0.131612 0.068847 0.000001 -0.192564 0.977601 0.084945
-0.000517 0.094670 -0.000006 -0.191831 0.976828 0.094911
-0.129159 0.068684 0.007445 -0.191831 0.976828 0.094911
-0.001599 0.093632 0.008492 -0.191831 0.976828 0.094911
-0.008865 0.054359 0.140002 -0.123193 0.952732 0.277713
0.006489 0.073519 0.081080 -0.123193 0.952732 0.277713
-0.001599 0.093632 0.008492 -0.123193 0.952732 0.277713
-0.133699 0.066932 0.007415 -0.441485 0.766549 0.466362
-0.031706 0.045010 0.140000 -0.441485 0.766549 0.466362
-0.021853 0.050685 0.140000 -0.441485 0.766549 0.466362
0.020020 0.051446 0.139999 0.467327 0.854670 0.226150
0.031716 0.045051 0.140000 0.467327 0.854670 0.226150
0.009076 0.073715 0.078455 0.467327 0.854670 0.226150
0.054335 -0.046949 0.001048 0.692847 -0.713157 0.106627
0.007778 -0.091072 0.008462 0.692847 -0.713157 0.106627
0.008268 -0.091825 0.000243 0.692847 -0.713157 0.106627
-0.122711 -0.006144 0.060957 -0.756883 -0.056535 0.651101
-0.121673 -0.014737 0.061418 -0.756883 -0.056535 0.651101
-0.054766 -0.005466 0.140000 -0.756883 -0.056535 0.651101
0.014370 -0.053249 0.139999 0.123333 -0.943265 0.308285
0.000349 -0.055082 0.140000 0.123333 -0.943265 0.308285
0.006782 -0.073532 0.080976 0.123333 -0.943265 0.308285
-0.111235 -0.047477 0.059055 -0.493923 -0.720807 0.486290
-0.135131 -0.065871 0.007520 -0.493923 -0.720807 0.486290
-0.071675 -0.075621 0.057520 -0.493923 -0.720807 0.486290
-0.131625 -0.068799 -0.000001 -0.477017 -0.871100 0.116787
-0.130951 -0.068140 0.007668 -0.477017 -0.871100 0.116787
-0.135131 -0.065871 0.007520 -0.477017 -0.871100 0.116787
-0.135131 -0.065871 0.007520 -0.446111 -0.794944 0.411156
-0.130951 -0.068140 0.007668 -0.446111 -0.794944 0.411156
-0.071675 -0.075621 0.057520 -0.446111 -0.794944 0.411156
-0.029337 -0.046645 0.140001 -0.000061 -0.000332 1.000000
-0.018917 -0.051755 0.140000 -0.000061 -0.000332 1.000000
0.000349 -0.055082 0.140000 -0.000061 -0.000332 1.000000
-0.009084 -0.054297 0.140000 -0.000018 -0.000080 1.000000
0.000349 -0.055082 0.140000 -0.000018 -0.000080 1.000000
-0.018917 -0.051755 0.140000 -0.000018 -0.000080 1.000000
-0.018917 -0.051755 0.140000 -0.228986 -0.885719 0.403817
-0.065898 -0.076548 0.058979 -0.228986 -0.885719 0.403817
-0.009084 -0.054297 0.140000 -0.228986 -0.885719 0.403817
-0.111235 -0.047477 0.059055 -0.608389 -0.519659 0.599848
-0.037696 -0.040138 0.140000 -0.608389 -0.519659 0.599848
-0.046437 -0.029904 0.140000 -0.608389 -0.519659 0.599848
-0.143472 -0.054862 -0.000000 -0.920451 -0.383494 0.075513
-0.145452 -0.048596 0.007682 -0.920451 -0.383494 0.075513
-0.148808 -0.042055 -0.000000 -0.920451 -0.383494 0.075513
-0.120300 -0.023545 0.061510 -0.736949 -0.180808 0.651318
-0.118609 -0.031050 0.061340 -0.736949 -0.180808 0.651318
-0.052884 -0.015585 0.140000 -0.736949 -0.180808 0.651318
-0.046437 -0.029904 0.140000 -0.611741 -0.514008 0.601305
-0.114761 -0.041966 0.060178 -0.611741 -0.514008 0.601305
-0.111235 -0.047477 0.059055 -0.611741 -0.514008 0.601305
0.007694 0.092272 0.000234 0.419302 0.901141 0.110141
0.003172 0.093350 0.008631 0.419302 0.901141 0.110141
0.007344 0.091447 0.008318 0.419302 0.901141 0.110141
-0.154079 -0.005542 -0.000000 -0.991437 -0.038792 0.124694
-0.152725 -0.013799 0.008191 -0.991437 -0.038792 0.124694
-0.153166 -0.002036 0.008351 -0.991437 -0.038792 0.124694
-0.152578 -0.024818 0.000000 -0.993276 -0.077310 0.086171
-0.152725 -0.013799 0.008191 -0.993276 -0.077310 0.086171
-0.154079 -0.005542 -0.000000 -0.993276 -0.077310 0.086171
-0.142117 0.055547 0.007628 -0.833084 0.535889 0.137092
-0.136293 0.064617 0.007566 -0.833084 0.535889 0.137092
-0.140043 0.060723 -0.000000 -0.833084 0.535889 0.137092
0.053554 0.012818 0.140000 0.000062 0.000022 1.000000
0.050948 0.020789 0.140000 0.000062 0.000022 1.000000
0.054855 0.004472 0.140000 0.000062 0.000022 1.000000
0.050948 0.020789 0.140000 0.943552 0.308615 0.120276
0.053554 0.012818 0.140000 0.943552 0.308615 0.120276
0.068619 0.020818 0.001298 0.943552 0.308615 0.120276
0.071081 0.008446 0.001340 0.981039 0.152834 0.119183
0.053554 0.012818 0.140000 0.981039 0.152834 0.119183
0.054855 0.004472 0.140000 0.981039 0.152834 0.119183
0.068619 0.020818 0.001298 0.973954 0.194242 0.116982
0.053554 0.012818 0.140000 0.973954 0.194242 0.116982
0.071081 0.008446 0.001340 0.973954 0.194242 0.116982
0.039102 0.038749 0.140000 0.767761 0.629431 0.119836
0.046247 0.030033 0.140000 0.767761 0.629431 0.119836
0.052578 0.048771 0.001018 0.767761 0.629431 0.119836
0.052578 0.048771 0.001018 0.775121 0.620511 0.118969
0.046247 0.030033 0.140000 0.775121 0.620511 0.118969
0.058590 0.041241 0.001123 0.775121 0.620511 0.118969
0.054877 -0.004566 0.140000 0.975511 -0.184098 0.120356
0.052652 -0.016356 0.140000 0.975511 -0.184098 0.120356
0.070665 -0.011563 0.001333 0.975511 -0.184098 0.120356
-0.021853 0.050685 0.140000 -0.334119 0.859343 0.387161
-0.129159 0.068684 0.007445 -0.334119 0.859343 0.387161
-0.133699 0.066932 0.007415 -0.334119 0.859343 0.387161
-0.001599 0.093632 0.008492 -0.186878 0.944088 0.271613
-0.129159 0.068684 0.007445 -0.186878 0.944088 0.271613
-0.008865 0.054359 0.140002 -0.186878 0.944088 0.271613
-0.133699 0.066932 0.007415 -0.461627 0.746885 0.478605
-0.109983 0.048611 0.058880 -0.461627 0.746885 0.478605
-0.031706 0.045010 0.140000 -0.461627 0.746885 0.478605
0.007344 0.091447 0.008318 0.418676 0.882839 0.212850
0.003172 0.093350 0.008631 0.418676 0.882839 0.212850
0.009076 0.073715 0.078455 0.418676 0.882839 0.212850
0.007344 0.091447 0.008318 0.516842 0.832916 0.197804
0.009076 0.073715 0.078455 0.516842 0.832916 0.197804
0.031716 0.045051 0.140000 0.516842 0.832916 0.197804
0.003669 -0.093249 0.008476 0.465813 -0.878241 0.108221
0.008268 -0.091825 0.000243 0.465813 -0.878241 0.108221
0.007778 -0.091072 0.008462 0.465813 -0.878241 0.108221
0.003669 -0.093249 0.008476 0.444917 -0.890581 0.094414
0.003496 -0.094216 0.000178 0.444917 -0.890581 0.094414
0.008268 -0.091825 0.000243 0.444917 -0.890581 0.094414
0.008268 -0.091825 0.000243 0.050557 -0.073767 -0.995993
0.003496 -0.094216 0.000178 0.050557 -0.073767 -0.995993
-0.001227 -0.094614 -0.000032 0.050557 -0.073767 -0.995993
0.007778 -0.091072 0.008462 0.458814 -0.864421 0.205587
0.009066 -0.073708 0.078596 0.458814 -0.864421 0.205587
0.003669 -0.093249 0.008476 0.458814 -0.864421 0.205587
0.027681 -0.047680 0.140000 0.516064 -0.833610 0.196908
0.009066 -0.073708 0.078596 0.516064 -0.833610 0.196908
0.007778 -0.091072 0.008462 0.516064 -0.833610 0.196908
-0.071675 -0.075621 0.057520 -0.387155 -0.789577 0.476109
-0.018917 -0.051755 0.140000 -0.387155 -0.789577 0.476109
-0.029337 -0.046645 0.140001 -0.387155 -0.789577 0.476109
-0.065898 -0.076548 0.058979 -0.244694 -0.878338 0.410667
-0.018917 -0.051755 0.140000 -0.244694 -0.878338 0.410667
-0.071675 -0.075621 0.057520 -0.244694 -0.878338 0.410667
-0.131625 -0.068799 -0.000001 -0.208468 -0.972705 0.101918
-0.071675 -0.075621 0.057520 -0.208468 -0.972705 0.101918
-0.130951 -0.068140 0.007668 -0.208468 -0.972705 0.101918
-0.001227 -0.094614 -0.000032 -0.193464 -0.977355 0.085729
-0.071675 -0.075621 0.057520 -0.193464 -0.977355 0.085729
-0.131625 -0.068799 -0.000001 -0.193464 -0.977355 0.085729
-0.065898 -0.076548 0.058979 -0.182203 -0.978184 0.099786
-0.071675 -0.075621 0.057520 -0.182203 -0.978184 0.099786
-0.001227 -0.094614 -0.000032 -0.182203 -0.978184 0.099786
-0.111235 -0.047477 0.059055 -0.519873 -0.667682 0.532853
-0.029337 -0.046645 0.140001 -0.519873 -0.667682 0.532853
-0.037696 -0.040138 0.140000 -0.519873 -0.667682 0.532853
-0.037696 -0.040138 0.140000 -0.000151 -0.000063 1.000000
-0.029337 -0.046645 0.140001 -0.000151 -0.000063 1.000000
-0.054967 0.003457 0.140000 -0.000151 -0.000063 1.000000
-0.046437 -0.029904 0.140000 -0.000046 -0.000021 1.000000
-0.037696 -0.040138 0.140000 -0.000046 -0.000021 1.000000
-0.054967 0.003457 0.140000 -0.000046 -0.000021 1.000000
-0.145452 -0.048596 0.007682 -0.773655 -0.387568 0.501248
-0.114761 -0.041966 0.060178 -0.773655 -0.387568 0.501248
-0.117004 -0.036638 0.060836 -0.773655 -0.387568 0.501248
-0.136305 -0.065946 0.000000 -0.836841 -0.541098 0.083126
-0.137824 -0.062436 0.007553 -0.836841 -0.541098 0.083126
-0.143472 -0.054862 -0.000000 -0.836841 -0.541098 0.083126
-0.148808 -0.042055 -0.000000 -0.938712 -0.313667 0.142944
-0.145452 -0.048596 0.007682 -0.938712 -0.313667 0.142944
-0.149244 -0.037186 0.007817 -0.938712 -0.313667 0.142944
0.007344 0.091447 0.008318 0.642112 0.752523 0.146294
0.031716 0.045051 0.140000 0.642112 0.752523 0.146294
0.039102 0.038749 0.140000 0.642112 0.752523 0.146294
-0.152578 -0.024818 0.000000 -0.975003 -0.187197 0.119691
-0.149244 -0.037186 0.007817 -0.975003 -0.187197 0.119691
-0.151587 -0.024833 0.008048 -0.975003 -0.187197 0.119691
-0.151587 -0.024833 0.008048 -0.987210 -0.103387 0.121358
-0.152725 -0.013799 0.008191 -0.987210 -0.103387 0.121358
-0.152578 -0.024818 0.000000 -0.987210 -0.103387 0.121358
-0.152410 0.025827 -0.000000 -0.991212 0.093020 0.094053
-0.153841 0.010576 0.000000 -0.991212 0.093020 0.094053
-0.152020 0.021780 0.008110 -0.991212 0.093020 0.094053
-0.052861 0.015711 0.140000 -0.745994 0.128206 0.653495
-0.121149 0.018138 0.061570 -0.745994 0.128206 0.653495
-0.054967 0.003457 0.140000 -0.745994 0.128206 0.653495
-0.133699 0.066932 0.007415 -0.357322 0.923722 0.138051
-0.129159 0.068684 0.007445 -0.357322 0.923722 0.138051
-0.131612 0.068847 0.000001 -0.357322 0.923722 0.138051
-0.054967 0.003457 0.140000 -0.000028 0.000018 1.000000
-0.031706 0.045010 0.140000 -0.000028 0.000018 1.000000
-0.040085 0.037834 0.140000 -0.000028 0.000018 1.000000
-0.133699 0.066932 0.007415 -0.562280 0.662477 0.494939
-0.136293 0.064617 0.007566 -0.562280 0.662477 0.494939
-0.109983 0.048611 0.058880 -0.562280 0.662477 0.494939
-0.136293 0.064617 0.007566 -0.609088 0.612822 0.503449
-0.113238 0.044715 0.059685 -0.609088 0.612822 0.503449
-0.109983 0.048611 0.058880 -0.609088 0.612822 0.503449
0.006489 0.073519 0.081080 0.183428 0.950263 0.251704
0.009076 0.073715 0.078455 0.183428 0.950263 0.251704
0.003172 0.093350 0.008631 0.183428 0.950263 0.251704
0.020020 0.051446 0.139999 0.215341 0.929691 0.298837
0.006489 0.073519 0.081080 0.215341 0.929691 0.298837
0.004858 0.054958 0.140000 0.215341 0.929691 0.298837
0.009076 0.073715 0.078455 0.229004 0.927667 0.294941
0.006489 0.073519 0.081080 0.229004 0.927667 0.294941
0.020020 0.051446 0.139999 0.229004 0.927667 0.294941
0.027681 -0.047680 0.140000 0.604018 -0.779541 0.165763
0.007778 -0.091072 0.008462 0.604018 -0.779541 0.165763
0.039566 -0.038470 0.140003 0.604018 -0.779541 0.165763
0.006782 -0.073532 0.080976 0.230025 -0.929069 0.289689
0.009066 -0.073708 0.078596 0.230025 -0.929069 0.289689
0.014370 -0.053249 0.139999 0.230025 -0.929069 0.289689
0.027681 -0.047680 0.140000 0.372231 -0.889715 0.264293
0.014370 -0.053249 0.139999 0.372231 -0.889715 0.264293
0.009066 -0.073708 0.078596 0.372231 -0.889715 0.264293
-0.065898 -0.076548 0.058979 -0.171199 -0.978844 0.112048
-0.001227 -0.094614 -0.000032 -0.171199 -0.978844 0.112048
-0.000867 -0.093737 0.008178 -0.171199 -0.978844 0.112048
0.003496 -0.094216 0.000178 0.079021 -0.991596 0.102434
-0.000867 -0.093737 0.008178 0.079021 -0.991596 0.102434
-0.001227 -0.094614 -0.000032 0.079021 -0.991596 0.102434
-0.114761 -0.041966 0.060178 -0.774997 -0.384380 0.501629
-0.145452 -0.048596 0.007682 -0.774997 -0.384380 0.501629
-0.141842 -0.055959 0.007617 -0.774997 -0.384380 0.501629
-0.141842 -0.055959 0.007617 -0.890149 -0.437505 0.127373
-0.145452 -0.048596 0.007682 -0.890149 -0.437505 0.127373
-0.143472 -0.054862 -0.000000 -0.890149 -0.437505 0.127373
-0.135131 -0.065871 0.007520 -0.676609 -0.535887 0.505000
-0.111235 -0.047477 0.059055 -0.676609 -0.535887 0.505000
-0.114761 -0.041966 0.060178 -0.676609 -0.535887 0.505000
-0.137824 -0.062436 0.007553 -0.844574 -0.525040 0.105012
-0.141842 -0.055959 0.007617 -0.844574 -0.525040 0.105012
-0.143472 -0.054862 -0.000000 -0.844574 -0.525040 0.105012
-0.117004 -0.036638 0.060836 -0.695542 -0.313148 0.646653
-0.046437 -0.029904 0.140000 -0.695542 -0.313148 0.646653
-0.052884 -0.015585 0.140000 -0.695542 -0.313148 0.646653
-0.118609 -0.031050 0.061340 -0.714123 -0.263551 0.648513
-0.117004 -0.036638 0.060836 -0.714123 -0.263551 0.648513
-0.052884 -0.015585 0.140000 -0.714123 -0.263551 0.648513
-0.152410 0.025827 -0.000000 -0.974069 0.210719 0.082385
-0.149634 0.035582 0.007869 -0.974069 0.210719 0.082385
-0.149290 0.040250 0.000000 -0.974069 0.210719 0.082385
-0.122615 0.005636 0.061149 -0.866667 0.020888 0.498449
-0.152949 0.010069 0.008220 -0.866667 0.020888 0.498449
-0.153166 -0.002036 0.008351 -0.866667 0.020888 0.498449
-0.154079 -0.005542 -0.000000 -0.993956 0.014631 0.108802
-0.152949 0.010069 0.008220 -0.993956 0.014631 0.108802
-0.153841 0.010576 0.000000 -0.993956 0.014631 0.108802
-0.153166 -0.002036 0.008351 -0.994723 0.018877 0.100843
-0.152949 0.010069 0.008220 -0.994723 0.018877 0.100843
-0.154079 -0.005542 -0.000000 -0.994723 0.018877 0.100843
-0.153841 0.010576 0.000000 -0.990466 0.079600 0.112429
-0.152949 0.010069 0.008220 -0.990466 0.079600 0.112429
-0.152020 0.021780 0.008110 -0.990466 0.079600 0.112429
-0.145377 0.050892 -0.000000 -0.875826 0.475208 0.084301
-0.142117 0.055547 0.007628 -0.875826 0.475208 0.084301
-0.140043 0.060723 -0.000000 -0.875826 0.475208 0.084301
-0.040085 0.037834 0.140000 -0.000015 0.000012 1.000000
-0.047704 0.027596 0.140000 -0.000015 0.000012 1.000000
-0.054967 0.003457 0.140000 -0.000015 0.000012 1.000000
-0.047704 0.027596 0.140000 -0.648593 0.437887 0.622561
-0.113238 0.044715 0.059685 -0.648593 0.437887 0.622561
-0.115710 0.039594 0.060711 -0.648593 0.437887 0.622561
-0.040085 0.037834 0.140000 -0.631999 0.470322 0.615934
-0.113238 0.044715 0.059685 -0.631999 0.470322 0.615934
-0.047704 0.027596 0.140000 -0.631999 0.470322 0.615934
-0.031706 0.045010 0.140000 -0.542548 0.633495 0.551657
-0.109983 0.048611 0.058880 -0.542548 0.633495 0.551657
-0.040085 0.037834 0.140000 -0.542548 0.633495 0.551657
-0.113238 0.044715 0.059685 -0.569253 0.593160 0.569309
-0.040085 0.037834 0.140000 -0.569253 0.593160 0.569309
-0.109983 0.048611 0.058880 -0.569253 0.593160 0.569309
-0.120300 -0.023545 0.061510 -0.854630 -0.127941 0.503228
-0.121673 -0.014737 0.061418 -0.854630 -0.127941 0.503228
-0.151587 -0.024833 0.008048 -0.854630 -0.127941 0.503228
0.006782 -0.073532 0.080976 0.187375 -0.949866 0.250289
0.003669 -0.093249 0.008476 0.187375 -0.949866 0.250289
0.009066 -0.073708 0.078596 0.187375 -0.949866 0.250289
-0.000867 -0.093737 0.008178 -0.029975 -0.962324 0.270247
0.006782 -0.073532 0.080976 -0.029975 -0.962324 0.270247
-0.023111 -0.075972 0.068968 -0.029975 -0.962324 0.270247
-0.141842 -0.055959 0.007617 -0.733475 -0.460039 0.500378
-0.137824 -0.062436 0.007553 -0.733475 -0.460039 0.500378
-0.114761 -0.041966 0.060178 -0.733475 -0.460039 0.500378
-0.145452 -0.048596 0.007682 -0.819412 -0.278245 0.501142
-0.117004 -0.036638 0.060836 -0.819412 -0.278245 0.501142
-0.149244 -0.037186 0.007817 -0.819412 -0.278245 0.501142
-0.149244 -0.037186 0.007817 -0.818885 -0.280328 0.500842
-0.117004 -0.036638 0.060836 -0.818885 -0.280328 0.500842
-0.118609 -0.031050 0.061340 -0.818885 -0.280328 0.500842
-0.149244 -0.037186 0.007817 -0.840130 -0.200723 0.503876
-0.118609 -0.031050 0.061340 -0.840130 -0.200723 0.503876
-0.120300 -0.023545 0.061510 -0.840130 -0.200723 0.503876
-0.122615 0.005636 0.061149 -0.865477 -0.001050 0.500948
-0.153166 -0.002036 0.008351 -0.865477 -0.001050 0.500948
-0.122711 -0.006144 0.060957 -0.865477 -0.001050 0.500948
-0.122711 -0.006144 0.060957 -0.861767 -0.077236 0.501391
-0.152725 -0.013799 0.008191 -0.861767 -0.077236 0.501391
-0.121673 -0.014737 0.061418 -0.861767 -0.077236 0.501391
-0.115710 0.039594 0.060711 -0.734891 0.455476 0.502470
-0.113238 0.044715 0.059685 -0.734891 0.455476 0.502470
-0.142117 0.055547 0.007628 -0.734891 0.455476 0.502470
-0.142117 0.055547 0.007628 -0.789188 0.356847 0.499842
-0.117233 0.035881 0.060957 -0.789188 0.356847 0.499842
-0.115710 0.039594 0.060711 -0.789188 0.356847 0.499842
-0.145377 0.050892 -0.000000 -0.899887 0.416093 0.130651
-0.146172 0.046753 0.007704 -0.899887 0.416093 0.130651
-0.142117 0.055547 0.007628 -0.899887 0.416093 0.130651
-0.149290 0.040250 0.000000 -0.934904 0.343773 0.088180
-0.146172 0.046753 0.007704 -0.934904 0.343773 0.088180
-0.145377 0.050892 -0.000000 -0.934904 0.343773 0.088180
-0.121673 -0.014737 0.061418 -0.750320 -0.110129 0.651837
-0.120300 -0.023545 0.061510 -0.750320 -0.110129 0.651837
-0.054766 -0.005466 0.140000 -0.750320 -0.110129 0.651837
-0.120300 -0.023545 0.061510 -0.744296 -0.138475 0.653336
-0.052884 -0.015585 0.140000 -0.744296 -0.138475 0.653336
-0.054766 -0.005466 0.140000 -0.744296 -0.138475 0.653336
-0.065898 -0.076548 0.058979 -0.048619 -0.963370 0.263731
-0.000867 -0.093737 0.008178 -0.048619 -0.963370 0.263731
-0.023111 -0.075972 0.068968 -0.048619 -0.963370 0.263731
0.000349 -0.055082 0.140000 -0.056991 -0.952558 0.298973
-0.065898 -0.076548 0.058979 -0.056991 -0.952558 0.298973
-0.023111 -0.075972 0.068968 -0.056991 -0.952558 0.298973
-0.009084 -0.054297 0.140000 -0.078693 -0.945844 0.314939
-0.065898 -0.076548 0.058979 -0.078693 -0.945844 0.314939
0.000349 -0.055082 0.140000 -0.078693 -0.945844 0.314939
-0.000867 -0.093737 0.008178 0.086539 -0.962264 0.257989
0.003669 -0.093249 0.008476 0.086539 -0.962264 0.257989
0.006782 -0.073532 0.080976 0.086539 -0.962264 0.257989
-0.000867 -0.093737 0.008178 0.098877 -0.988653 0.113085
0.003496 -0.094216 0.000178 0.098877 -0.988653 0.113085
0.003669 -0.093249 0.008476 0.098877 -0.988653 0.113085
-0.023111 -0.075972 0.068968 -0.040165 -0.954927 0.294112
0.006782 -0.073532 0.080976 -0.040165 -0.954927 0.294112
0.000349 -0.055082 0.140000 -0.040165 -0.954927 0.294112
-0.117004 -0.036638 0.060836 -0.679455 -0.364640 0.636693
-0.114761 -0.041966 0.060178 -0.679455 -0.364640 0.636693
-0.046437 -0.029904 0.140000 -0.679455 -0.364640 0.636693
-0.137824 -0.062436 0.007553 -0.676924 -0.535528 0.504959
-0.135131 -0.065871 0.007520 -0.676924 -0.535528 0.504959
-0.114761 -0.041966 0.060178 -0.676924 -0.535528 0.504959
-0.121673 -0.014737 0.061418 -0.860556 -0.095262 0.500368
-0.152725 -0.013799 0.008191 -0.860556 -0.095262 0.500368
-0.151587 -0.024833 0.008048 -0.860556 -0.095262 0.500368
-0.152725 -0.013799 0.008191 -0.866101 -0.039162 0.498333
-0.122711 -0.006144 0.060957 -0.866101 -0.039162 0.498333
-0.153166 -0.002036 0.008351 -0.866101 -0.039162 0.498333
-0.151587 -0.024833 0.008048 -0.848661 -0.170344 0.500757
-0.149244 -0.037186 0.007817 -0.848661 -0.170344 0.500757
-0.120300 -0.023545 0.061510 -0.848661 -0.170344 0.500757
-0.152410 0.025827 -0.000000 -0.976331 0.171095 0.132301
-0.152020 0.021780 0.008110 -0.976331 0.171095 0.132301
-0.149634 0.035582 0.007869 -0.976331 0.171095 0.132301
-0.142117 0.055547 0.007628 -0.784296 0.365989 0.500930
-0.146172 0.046753 0.007704 -0.784296 0.365989 0.500930
-0.117233 0.035881 0.060957 -0.784296 0.365989 0.500930
-0.119414 0.028790 0.061140 -0.743675 0.147478 0.652072
-0.121149 0.018138 0.061570 -0.743675 0.147478 0.652072
-0.052861 0.015711 0.140000 -0.743675 0.147478 0.652072
-0.122615 0.005636 0.061149 -0.756360 0.066760 0.650741
-0.054967 0.003457 0.140000 -0.756360 0.066760 0.650741
-0.121149 0.018138 0.061570 -0.756360 0.066760 0.650741
-0.113238 0.044715 0.059685 -0.726694 0.470060 0.500958
-0.136293 0.064617 0.007566 -0.726694 0.470060 0.500958
-0.142117 0.055547 0.007628 -0.726694 0.470060 0.500958
-0.149290 0.040250 0.000000 -0.946042 0.295168 0.133715
-0.149634 0.035582 0.007869 -0.946042 0.295168 0.133715
-0.146172 0.046753 0.007704 -0.946042 0.295168 0.133715
-0.047704 0.027596 0.140000 -0.699993 0.303725 0.646344
-0.115710 0.039594 0.060711 -0.699993 0.303725 0.646344
-0.052861 0.015711 0.140000 -0.699993 0.303725 0.646344
-0.117233 0.035881 0.060957 -0.690575 0.326043 0.645602
-0.052861 0.015711 0.140000 -0.690575 0.326043 0.645602
-0.115710 0.039594 0.060711 -0.690575 0.326043 0.645602
-0.119414 0.028790 0.061140 -0.722222 0.238828 0.649120
-0.052861 0.015711 0.140000 -0.722222 0.238828 0.649120
-0.117233 0.035881 0.060957 -0.722222 0.238828 0.649120
-0.152020 0.021780 0.008110 -0.862636 0.073119 0.500513
-0.152949 0.010069 0.008220 -0.862636 0.073119 0.500513
-0.122615 0.005636 0.061149 -0.862636 0.073119 0.500513
-0.122615 0.005636 0.061149 -0.860436 0.083960 0.502594
-0.121149 0.018138 0.061570 -0.860436 0.083960 0.502594
-0.152020 0.021780 0.008110 -0.860436 0.083960 0.502594
-0.146172 0.046753 0.007704 -0.823144 0.266063 0.501641
-0.119414 0.028790 0.061140 -0.823144 0.266063 0.501641
-0.117233 0.035881 0.060957 -0.823144 0.266063 0.501641
-0.149634 0.035582 0.007869 -0.850507 0.155798 0.502358
-0.152020 0.021780 0.008110 -0.850507 0.155798 0.502358
-0.119414 0.028790 0.061140 -0.850507 0.155798 0.502358
-0.121149 0.018138 0.061570 -0.850275 0.158766 0.501823
-0.119414 0.028790 0.061140 -0.850275 0.158766 0.501823
-0.152020 0.021780 0.008110 -0.850275 0.158766 0.501823
-0.146172 0.046753 0.007704 -0.824425 0.262885 0.501214
-0.149634 0.035582 0.007869 -0.824425 0.262885 0.501214
-0.119414 0.028790 0.061140 -0.824425 0.262885 0.501214
-0.000517 0.094670 -0.000006 -0.000105 0.000138 -1.000000
-0.001227 -0.094614 -0.000032 -0.000105 0.000138 -1.000000
-0.152410 0.025827 -0.000000 -0.000105 0.000138 -1.000000
-0.000517 0.094670 -0.000006 -0.000064 0.000049 -1.000000
-0.152410 0.025827 -0.000000 -0.000064 0.000049 -1.000000
-0.131612 0.068847 0.000001 -0.000064 0.000049 -1.000000
-0.001227 -0.094614 -0.000032 -0.000255 -0.000051 -1.000000
-0.131625 -0.068799 -0.000001 -0.000255 -0.000051 -1.000000
-0.152410 0.025827 -0.000000 -0.000255 -0.000051 -1.000000
-0.148808 -0.042055 -0.000000 0.000009 0.000001 -1.000000
-0.152410 0.025827 -0.000000 0.000009 0.000001 -1.000000
-0.143472 -0.054862 -0.000000 0.000009 0.000001 -1.000000
-0.154079 -0.005542 -0.000000 0.000304 -0.000005 -1.000000
-0.152410 0.025827 -0.000000 0.000304 -0.000005 -1.000000
-0.152578 -0.024818 0.000000 0.000304 -0.000005 -1.000000
-0.140043 0.060723 -0.000000 0.000003 -0.000006 -1.000000
-0.152410 0.025827 -0.000000 0.000003 -0.000006 -1.000000
-0.145377 0.050892 -0.000000 0.000003 -0.000006 -1.000000
-0.140043 0.060723 -0.000000 0.000459 -0.000167 -1.000000
-0.135830 0.066315 0.000001 0.000459 -0.000167 -1.000000
-0.152410 0.025827 -0.000000 0.000459 -0.000167 -1.000000
-0.131612 0.068847 0.000001 -0.000043 0.000038 -1.000000
-0.152410 0.025827 -0.000000 -0.000043 0.000038 -1.000000
-0.135830 0.066315 0.000001 -0.000043 0.000038 -1.000000
-0.131625 -0.068799 -0.000001 -0.000207 -0.000040 -1.000000
-0.136305 -0.065946 0.000000 -0.000207 -0.000040 -1.000000
-0.152410 0.025827 -0.000000 -0.000207 -0.000040 -1.000000
-0.152578 -0.024818 0.000000 -0.000079 -0.000003 -1.000000
-0.152410 0.025827 -0.000000 -0.000079 -0.000003 -1.000000
-0.148808 -0.042055 -0.000000 -0.000079 -0.000003 -1.000000
-0.145377 0.050892 -0.000000 -0.000410 0.000110 -1.000000
-0.152410 0.025827 -0.000000 -0.000410 0.000110 -1.000000
-0.149290 0.040250 0.000000 -0.000410 0.000110 -1.000000
-0.143472 -0.054862 -0.000000 0.000063 0.000007 -1.000000
-0.152410 0.025827 -0.000000 0.000063 0.000007 -1.000000
-0.136305 -0.065946 0.000000 0.000063 0.000007 -1.000000
-0.153841 0.010576 0.000000 -0.000304 0.000028 -1.000000
-0.152410 0.025827 -0.000000 -0.000304 0.000028 -1.000000
-0.154079 -0.005542 -0.000000 -0.000304 0.000028 -1.000000
3 0 1 2
3 3 4 5
3 6 7 8
3 9 10 11
3 12 13 14
3 15 16 17
3 18 19 20
3 19 21 20
3 22 23 24
3 25 26 27
3 28 29 30
3 31 32 33
3 34 35 36
3 37 38 39
3 40 41 42
3 43 44 45
3 46 47 48
3 49 50 51
3 52 53 54
3 55 56 57
3 58 59 60
3 61 62 63
3 64 65 66
3 67 68 69
3 70 71 72
3 73 74 75
3 76 77 78
3 79 80 81
3 82 83 84
3 85 86 87
3 88 89 90
3 91 92 93
3 94 95 96
3 97 98 99
3 100 101 102
3 103 104 105
3 106 107 108
3 109 110 111
3 112 113 114
3 115 116 117
3 118 119 120
3 121 122 123
3 124 125 126
3 127 128 129
3 130 131 132
3 133 134 135
3 136 137 138
3 139 140 141
3 142 143 144
3 145 146 147
3 148 149 150
3 151 152 153
3 154 155 156
3 157 158 159
3 160 161 162
3 163 164 165
3 166 167 168
3 169 170 171
3 172 173 174
3 175 176 177
3 178 179 180
3 181 182 183
3 184 185 186
3 187 188 189
3 190 191 192
3 193 194 195
3 196 197 198
3 199 200 201
3 202 203 204
3 205 206 207
3 208 209 210
3 211 212 213
3 214 215 216
3 217 218 219
3 220 221 222
3 223 224 225
3 226 227 228
3 229 230 231
3 232 233 234
3 235 236 237
3 238 239 240
3 241 242 243
3 244 245 246
3 247 248 249
3 250 251 252
3 253 254 255
3 256 257 258
3 259 260 261
3 262 263 264
3 265 266 267
3 268 269 270
3 271 272 273
3 274 275 276
3 277 278 279
3 280 281 282
3 283 284 285
3 286 287 288
3 289 290 291
3 292 293 294
3 295 296 297
3 298 299 300
3 301 302 303
3 304 305 306
3 307 308 309
3 310 311 312
3 313 314 315
3 316 317 318
3 319 320 321
3 322 323 324
3 325 326 327
3 328 329 330
3 331 332 333
3 334 335 336
3 337 338 339
3 340 341 342
3 343 344 345
3 346 347 348
3 349 350 351
3 352 353 354
3 355 356 357
3 358 359 360
3 361 362 363
3 364 365 366
3 367 368 369
3 370 371 372
3 373 374 375
3 376 377 378
3 379 380 381
3 382 383 384
3 385 386 387
3 388 389 390
3 391 392 393
3 394 395 396
3 397 398 399
3 400 401 402
3 403 404 405
3 406 407 408
3 409 410 411
3 412 413 414
3 415 416 417
3 418 419 420
3 421 422 423
3 424 425 426
3 427 428 429
3 430 431 432
3 433 434 435
3 436 437 438
3 439 440 441
3 442 443 444
3 445 446 447
3 448 449 450
3 451 452 453
3 454 455 456
3 457 458 459
3 460 461 462
3 463 464 465
3 466 467 468
3 469 470 471
3 472 473 474
3 475 476 477
3 478 479 480
3 481 482 483
3 484 485 486
3 487 488 489
3 490 491 492
3 493 494 495
3 496 497 498
3 499 500 501
3 502 503 504
3 505 506 507
3 508 509 510
3 511 512 513
3 514 515 516
3 517 518 519
3 520 521 522
3 523 524 525
3 526 527 528
3 529 530 531
3 532 533 534
3 535 536 537
3 538 539 540
3 541 542 543
3 544 545 546
3 547 548 549
3 550 551 552
3 553 554 555
3 556 557 558
3 559 560 561
3 562 563 564
3 565 566 567
3 568 569 570
3 571 572 573
3 574 575 576
3 577 578 579
3 580 581 582
3 583 584 585
3 586 587 588
3 589 590 591
3 592 593 594
3 595 596 597
