ply
format ascii 1.0
comment Created by Blender 2.79 (sub 0) - www.blender.org, source file: ''
element vertex 96
property float x
property float y
property float z
property float nx
property float ny
property float nz
element face 32
property list uchar uint vertex_indices
end_header
0.010360 0.026403 0.000155 0.000724 0.000331 -1.000000
0.010449 0.002583 0.000147 0.000724 0.000331 -1.000000
-0.010387 0.002534 0.000132 0.000724 0.000331 -1.000000
-0.010387 0.002534 0.000132 -0.999990 -0.000586 -0.004472
-0.010479 0.016102 0.018988 -0.999990 -0.000586 -0.004472
-0.010401 0.026309 0.000167 -0.999990 -0.000586 -0.004472
-0.010401 0.026309 0.000167 -0.999950 0.009909 0.001220
-0.010479 0.016102 0.018988 -0.999950 0.009909 0.001220
-0.010389 0.025220 0.019188 -0.999950 0.009909 0.001220
0.010449 0.002583 0.000147 0.002403 -0.997479 -0.070914
-0.008730 -0.000024 0.036165 0.002403 -0.997479 -0.070914
-0.010387 0.002534 0.000132 0.002403 -0.997479 -0.070914
0.010400 0.025253 0.019037 0.000668 0.953556 0.301214
-0.010389 0.025220 0.019188 0.000668 0.953556 0.301214
0.005840 0.014274 0.053803 0.000668 0.953556 0.301214
-0.010387 0.002534 0.000132 -0.000579 0.001464 -0.999999
-0.010401 0.026309 0.000167 -0.000579 0.001464 -0.999999
0.010360 0.026403 0.000155 -0.000579 0.001464 -0.999999
0.008616 0.013989 0.051328 0.998344 0.005891 0.057223
0.010495 0.015103 0.018436 0.998344 0.005891 0.057223
0.010400 0.025253 0.019037 0.998344 0.005891 0.057223
0.010495 0.015103 0.018436 0.998185 -0.050838 0.032279
0.008693 -0.000133 0.050166 0.998185 -0.050838 0.032279
0.010449 0.002583 0.000147 0.998185 -0.050838 0.032279
0.008616 0.013989 0.051328 0.998371 0.000729 0.057050
0.008693 -0.000133 0.050166 0.998371 0.000729 0.057050
0.010495 0.015103 0.018436 0.998371 0.000729 0.057050
-0.008623 -0.000057 0.050953 -0.871286 -0.490747 0.005227
-0.010387 0.002534 0.000132 -0.871286 -0.490747 0.005227
-0.008730 -0.000024 0.036165 -0.871286 -0.490747 0.005227
0.010449 0.002583 0.000147 0.036271 -0.997940 -0.052913
0.008693 -0.000133 0.050166 0.036271 -0.997940 -0.052913
-0.008730 -0.000024 0.036165 0.036271 -0.997940 -0.052913
0.008693 -0.000133 0.050166 -0.003723 -0.999988 -0.003161
-0.005481 -0.000091 0.053725 -0.003723 -0.999988 -0.003161
-0.008730 -0.000024 0.036165 -0.003723 -0.999988 -0.003161
0.010400 0.025253 0.019037 0.999909 0.009842 -0.009263
0.010495 0.015103 0.018436 0.999909 0.009842 -0.009263
0.010449 0.002583 0.000147 0.999909 0.009842 -0.009263
0.010400 0.025253 0.019037 0.999991 0.003723 -0.001919
0.010449 0.002583 0.000147 0.999991 0.003723 -0.001919
0.010360 0.026403 0.000155 0.999991 0.003723 -0.001919
0.010400 0.025253 0.019037 -0.001149 0.998150 0.060793
0.010360 0.026403 0.000155 -0.001149 0.998150 0.060793
-0.010389 0.025220 0.019188 -0.001149 0.998150 0.060793
-0.010389 0.025220 0.019188 0.002846 0.953846 0.300284
-0.005278 0.014293 0.053849 0.002846 0.953846 0.300284
0.005840 0.014274 0.053803 0.002846 0.953846 0.300284
-0.007778 0.014218 0.052366 -0.218924 0.920873 0.322590
-0.005278 0.014293 0.053849 -0.218924 0.920873 0.322590
-0.010389 0.025220 0.019188 -0.218924 0.920873 0.322590
-0.008623 -0.000057 0.050953 -0.661425 -0.035031 0.749193
-0.005481 -0.000091 0.053725 -0.661425 -0.035031 0.749193
-0.007778 0.014218 0.052366 -0.661425 -0.035031 0.749193
-0.010387 0.002534 0.000132 -0.998169 -0.051312 0.032035
-0.008623 -0.000057 0.050953 -0.998169 -0.051312 0.032035
-0.010479 0.016102 0.018988 -0.998169 -0.051312 0.032035
0.010400 0.025253 0.019037 0.377717 0.867563 0.323518
0.005840 0.014274 0.053803 0.377717 0.867563 0.323518
0.008616 0.013989 0.051328 0.377717 0.867563 0.323518
0.010360 0.026403 0.000155 -0.004486 0.998354 0.057168
-0.010401 0.026309 0.000167 -0.004486 0.998354 0.057168
-0.010389 0.025220 0.019188 -0.004486 0.998354 0.057168
-0.010479 0.016102 0.018988 -0.998589 0.008776 0.052376
-0.008841 0.013918 0.050589 -0.998589 0.008776 0.052376
-0.010389 0.025220 0.019188 -0.998589 0.008776 0.052376
-0.008841 0.013918 0.050589 -0.665951 0.690851 0.281486
-0.007778 0.014218 0.052366 -0.665951 0.690851 0.281486
-0.010389 0.025220 0.019188 -0.665951 0.690851 0.281486
0.005840 0.014274 0.053803 0.012751 -0.015529 0.999798
-0.005481 -0.000091 0.053725 0.012751 -0.015529 0.999798
0.006138 -0.000021 0.053578 0.012751 -0.015529 0.999798
-0.005278 0.014293 0.053849 0.004085 -0.008700 0.999954
-0.005481 -0.000091 0.053725 0.004085 -0.008700 0.999954
0.005840 0.014274 0.053803 0.004085 -0.008700 0.999954
0.008693 -0.000133 0.050166 0.006542 -0.999267 0.037718
0.006138 -0.000021 0.053578 0.006542 -0.999267 0.037718
-0.005481 -0.000091 0.053725 0.006542 -0.999267 0.037718
0.006138 -0.000021 0.053578 0.798906 -0.045001 0.599770
0.008693 -0.000133 0.050166 0.798906 -0.045001 0.599770
0.008616 0.013989 0.051328 0.798906 -0.045001 0.599770
-0.005481 -0.000091 0.053725 -0.008996 -0.999957 -0.002185
-0.008623 -0.000057 0.050953 -0.008996 -0.999957 -0.002185
-0.008730 -0.000024 0.036165 -0.008996 -0.999957 -0.002185
-0.007778 0.014218 0.052366 -0.510143 -0.000217 0.860089
-0.005481 -0.000091 0.053725 -0.510143 -0.000217 0.860089
-0.005278 0.014293 0.053849 -0.510143 -0.000217 0.860089
-0.008623 -0.000057 0.050953 -0.998608 -0.014274 0.050784
-0.008841 0.013918 0.050589 -0.998608 -0.014274 0.050784
-0.010479 0.016102 0.018988 -0.998608 -0.014274 0.050784
0.006138 -0.000021 0.053578 0.665647 0.002096 0.746264
0.008616 0.013989 0.051328 0.665647 0.002096 0.746264
0.005840 0.014274 0.053803 0.665647 0.002096 0.746264
-0.007778 0.014218 0.052366 -0.858158 -0.000049 0.513385
-0.008841 0.013918 0.050589 -0.858158 -0.000049 0.513385
-0.008623 -0.000057 0.050953 -0.858158 -0.000049 0.513385
3 0 1 2
3 3 4 5
3 6 7 8
3 9 10 11
3 12 13 14
3 15 16 17
3 18 19 20
3 21 22 23
3 24 25 26
3 27 28 29
3 30 31 32
3 33 34 35
3 36 37 38
3 39 40 41
3 42 43 44
3 45 46 47
3 48 49 50
3 51 52 53
3 54 55 56
3 57 58 59
3 60 61 62
3 63 64 65
3 66 67 68
3 69 70 71
3 72 73 74
3 75 76 77
3 78 79 80
3 81 82 83
3 84 85 86
3 87 88 89
3 90 91 92
3 93 94 95
